<svg id="Check" xmlns="http://www.w3.org/2000/svg" width="80" height="80" viewBox="0 0 80 80">
  <path id="Path_6212" data-name="Path 6212" d="M174.82,321.42a8.745,8.745,0,0,1-4.641-1.893,8.579,8.579,0,0,0-2.665-1.379,8.888,8.888,0,0,0-3.1.254,8.488,8.488,0,0,1-4.9-.019,8.7,8.7,0,0,1-3.527-3.5,5.543,5.543,0,0,0-4.894-3.27,6.521,6.521,0,0,1-6.461-6.461,5.543,5.543,0,0,0-3.27-4.894,8.683,8.683,0,0,1-3.5-3.527,8.5,8.5,0,0,1-.019-4.9,8.822,8.822,0,0,0,.254-3.1,8.579,8.579,0,0,0-1.379-2.665,6.634,6.634,0,0,1,0-9.281,8.579,8.579,0,0,0,1.379-2.665,8.886,8.886,0,0,0-.254-3.1,8.488,8.488,0,0,1,.019-4.9,8.7,8.7,0,0,1,3.5-3.527,5.543,5.543,0,0,0,3.27-4.894,6.521,6.521,0,0,1,6.461-6.461,5.543,5.543,0,0,0,4.894-3.27,8.683,8.683,0,0,1,3.527-3.5,8.5,8.5,0,0,1,4.9-.019,8.824,8.824,0,0,0,3.1.254,8.58,8.58,0,0,0,2.665-1.379,6.634,6.634,0,0,1,9.281,0,8.579,8.579,0,0,0,2.665,1.379,8.886,8.886,0,0,0,3.1-.254,8.488,8.488,0,0,1,4.9.019,8.7,8.7,0,0,1,3.527,3.5,5.543,5.543,0,0,0,4.894,3.27,6.521,6.521,0,0,1,6.461,6.461,5.543,5.543,0,0,0,3.27,4.894,8.683,8.683,0,0,1,3.5,3.527,8.5,8.5,0,0,1,.019,4.9,8.822,8.822,0,0,0-.254,3.1,8.58,8.58,0,0,0,1.379,2.665,6.634,6.634,0,0,1,0,9.281,8.58,8.58,0,0,0-1.379,2.665,8.886,8.886,0,0,0,.254,3.1,8.488,8.488,0,0,1-.019,4.9,8.7,8.7,0,0,1-3.5,3.527,5.543,5.543,0,0,0-3.27,4.894,6.521,6.521,0,0,1-6.461,6.461,5.543,5.543,0,0,0-4.894,3.27,8.683,8.683,0,0,1-3.527,3.5,8.5,8.5,0,0,1-4.9.019,8.821,8.821,0,0,0-3.1-.254,8.579,8.579,0,0,0-2.665,1.379A8.745,8.745,0,0,1,174.82,321.42Z" transform="translate(-134.82 -241.42)" fill="#fff2e8"/>
  <path id="Path_6181" data-name="Path 6181" d="M24,48a5.247,5.247,0,0,1-2.784-1.136,5.149,5.149,0,0,0-1.6-.827,5.335,5.335,0,0,0-1.86.153,5.093,5.093,0,0,1-2.943-.011,5.22,5.22,0,0,1-2.116-2.1,5.23,5.23,0,0,0-1.178-1.4,5.265,5.265,0,0,0-1.758-.564A5.126,5.126,0,0,1,7.03,40.97a5.127,5.127,0,0,1-1.146-2.731,5.255,5.255,0,0,0-.564-1.758,5.207,5.207,0,0,0-1.4-1.178,5.209,5.209,0,0,1-2.1-2.116,5.1,5.1,0,0,1-.011-2.943,5.293,5.293,0,0,0,.153-1.86,5.148,5.148,0,0,0-.827-1.6A5.247,5.247,0,0,1,0,24a5.247,5.247,0,0,1,1.136-2.784,5.148,5.148,0,0,0,.827-1.6,5.331,5.331,0,0,0-.153-1.86,5.093,5.093,0,0,1,.011-2.943,5.22,5.22,0,0,1,2.1-2.116,5.233,5.233,0,0,0,1.4-1.178,5.261,5.261,0,0,0,.564-1.758A5.125,5.125,0,0,1,7.03,7.03,5.128,5.128,0,0,1,9.761,5.885a5.253,5.253,0,0,0,1.758-.564,5.206,5.206,0,0,0,1.178-1.4,5.21,5.21,0,0,1,2.116-2.1,5.1,5.1,0,0,1,2.943-.011,5.3,5.3,0,0,0,1.86.153,5.147,5.147,0,0,0,1.6-.827A5.247,5.247,0,0,1,24,0a5.247,5.247,0,0,1,2.784,1.136,5.147,5.147,0,0,0,1.6.827,5.332,5.332,0,0,0,1.86-.153,5.093,5.093,0,0,1,2.943.011,5.22,5.22,0,0,1,2.116,2.1,5.231,5.231,0,0,0,1.178,1.4,5.258,5.258,0,0,0,1.758.564A5.125,5.125,0,0,1,40.97,7.03a5.127,5.127,0,0,1,1.146,2.731,5.255,5.255,0,0,0,.564,1.758,5.207,5.207,0,0,0,1.4,1.178,5.209,5.209,0,0,1,2.1,2.116,5.1,5.1,0,0,1,.011,2.943,5.293,5.293,0,0,0-.153,1.86,5.148,5.148,0,0,0,.827,1.6A5.247,5.247,0,0,1,48,24a5.247,5.247,0,0,1-1.136,2.784,5.148,5.148,0,0,0-.827,1.6,5.332,5.332,0,0,0,.153,1.86,5.092,5.092,0,0,1-.011,2.943,5.219,5.219,0,0,1-2.1,2.116,5.232,5.232,0,0,0-1.4,1.178,5.261,5.261,0,0,0-.564,1.758A5.124,5.124,0,0,1,40.97,40.97a5.128,5.128,0,0,1-2.731,1.146,5.253,5.253,0,0,0-1.758.564,5.205,5.205,0,0,0-1.178,1.4,5.21,5.21,0,0,1-2.116,2.1,5.1,5.1,0,0,1-2.943.011,5.293,5.293,0,0,0-1.86-.153,5.149,5.149,0,0,0-1.6.827A5.247,5.247,0,0,1,24,48Zm-4.81-3.536a3.7,3.7,0,0,1,.725.067,6.269,6.269,0,0,1,2.145,1.051A4.083,4.083,0,0,0,24,46.465a4.075,4.075,0,0,0,1.941-.883,6.269,6.269,0,0,1,2.145-1.051,6.432,6.432,0,0,1,2.446.151,4.016,4.016,0,0,0,2.067.079,4.045,4.045,0,0,0,1.432-1.544,6.324,6.324,0,0,1,1.6-1.812,6.392,6.392,0,0,1,2.3-.792,4.053,4.053,0,0,0,1.958-.728,4.05,4.05,0,0,0,.728-1.957,6.374,6.374,0,0,1,.792-2.3,6.347,6.347,0,0,1,1.812-1.6A4.064,4.064,0,0,0,44.758,32.6a4.029,4.029,0,0,0-.079-2.067,6.464,6.464,0,0,1-.151-2.446,6.263,6.263,0,0,1,1.051-2.145A4.082,4.082,0,0,0,46.462,24a4.074,4.074,0,0,0-.883-1.941,6.27,6.27,0,0,1-1.051-2.145,6.432,6.432,0,0,1,.151-2.446,4.017,4.017,0,0,0,.079-2.067,4.045,4.045,0,0,0-1.544-1.432A6.333,6.333,0,0,1,41.4,12.378a6.389,6.389,0,0,1-.792-2.3,4.053,4.053,0,0,0-.728-1.958,4.05,4.05,0,0,0-1.958-.728,6.374,6.374,0,0,1-2.3-.792,6.347,6.347,0,0,1-1.6-1.812A4.064,4.064,0,0,0,32.6,3.246a4.029,4.029,0,0,0-2.067.079,6.446,6.446,0,0,1-2.446.151A6.262,6.262,0,0,1,25.94,2.425,4.082,4.082,0,0,0,24,1.542a4.074,4.074,0,0,0-1.941.883,6.269,6.269,0,0,1-2.145,1.051,6.43,6.43,0,0,1-2.446-.151A4.018,4.018,0,0,0,15.4,3.246,4.046,4.046,0,0,0,13.969,4.79a6.323,6.323,0,0,1-1.6,1.812,6.39,6.39,0,0,1-2.3.792,4.053,4.053,0,0,0-1.958.728,4.05,4.05,0,0,0-.728,1.958,6.375,6.375,0,0,1-.792,2.3,6.347,6.347,0,0,1-1.812,1.6,4.064,4.064,0,0,0-1.544,1.432,4.029,4.029,0,0,0,.079,2.067,6.464,6.464,0,0,1,.151,2.446,6.269,6.269,0,0,1-1.051,2.145A4.082,4.082,0,0,0,1.537,24a4.074,4.074,0,0,0,.883,1.941A6.271,6.271,0,0,1,3.471,28.09a6.431,6.431,0,0,1-.151,2.446A4.02,4.02,0,0,0,3.242,32.6a4.045,4.045,0,0,0,1.544,1.432,6.325,6.325,0,0,1,1.812,1.6,6.39,6.39,0,0,1,.792,2.3,4.053,4.053,0,0,0,.728,1.958,4.05,4.05,0,0,0,1.957.728,6.374,6.374,0,0,1,2.3.792,6.346,6.346,0,0,1,1.6,1.812A4.064,4.064,0,0,0,15.4,44.763a4.03,4.03,0,0,0,2.067-.079A9.015,9.015,0,0,1,19.19,44.464Z" transform="matrix(0.985, 0.174, -0.174, 0.985, 20.532, 12.197)" fill="#ff9c6e"/>
  <path id="Path_6184" data-name="Path 6184" d="M328.319,485.742a1.473,1.473,0,0,1-.99-.381l-4.741-4.274a1.479,1.479,0,0,1,1.982-2.2l3.669,3.307,8.1-8.553a1.48,1.48,0,1,1,2.149,2.035l-9.095,9.6A1.475,1.475,0,0,1,328.319,485.742Z" transform="translate(-290.099 -438.898)" fill="#fa541c"/>
</svg>
