<svg xmlns="http://www.w3.org/2000/svg" xmlns:xlink="http://www.w3.org/1999/xlink" width="250" height="250" viewBox="0 0 250 250"><defs><clipPath id="b"><rect width="250" height="250"/></clipPath></defs><g id="a" clip-path="url(#b)"><g transform="translate(-21.772 -25.683)" opacity="0.6"><g transform="translate(43.779 46.699)"><g transform="translate(0 1.801)"><rect width="13.359" height="5.645" transform="translate(198.163 141.684) rotate(180)" fill="#ebebeb"/><g transform="translate(192.122 142.91)"><path d="M427.046,339.7l6.739-.141,3.32-.055c1.109-.026,2.2-.02,3.3-.026l-.222.222-.025-5.645.253.253-6.679-.03c-2.224,0-4.454-.055-6.679-.081l.136-.136c-.01.921-.044,1.852-.065,2.8Zm0,0-.071-2.8c-.026-.944-.055-1.9-.065-2.851v-.136h.141c2.224-.026,4.454-.081,6.679-.081l6.679-.03h.253v.253l-.026,5.645v.222h-.222c-1.125-.01-2.255,0-3.375-.025l-3.36-.055Z" transform="translate(-426.91 -333.809)" fill="#ebebeb"/></g><g transform="translate(170.663 96.013)"><path d="M232.006,229.792l6.739-.142,3.32-.055c1.109-.025,2.2-.02,3.3-.03l-.222.222-.025-5.645.253.253-6.68-.03c-2.224,0-4.454-.055-6.679-.081l.136-.136c-.01.921-.044,1.852-.065,2.8Zm0,0-.071-2.8c-.025-.944-.055-1.9-.065-2.851v-.135h.144c2.224-.025,4.454-.081,6.679-.081l6.68-.03h.253v.253L245.6,229.8v.222h-.222c-1.125-.01-2.255,0-3.375-.03l-3.36-.055Z" transform="translate(-231.87 -223.9)" fill="#ebebeb"/></g><rect width="13.358" height="5.645" transform="translate(191.609 109.025) rotate(180)" fill="#ebebeb"/><g transform="translate(163.095 103.131)"><path d="M217.006,243.9l6.739-.142,3.32-.055c1.109-.025,2.2-.02,3.3-.025l-.222.222-.025-5.645.253.253-6.679-.03c-2.224,0-4.454-.055-6.68-.081l.136-.136c-.01.921-.044,1.852-.065,2.8Zm0,0-.071-2.8c-.025-.944-.055-1.9-.065-2.851v-.136h.144c2.224-.026,4.454-.081,6.679-.081l6.68-.03h.253v.253l-.025,5.645v.222h-.222c-1.125-.01-2.255,0-3.375-.03l-3.36-.055Z" transform="translate(-216.87 -238.009)" fill="#ebebeb"/></g><rect width="13.358" height="5.645" transform="translate(183.354 41.798) rotate(180)" fill="#ebebeb"/><g transform="translate(0 142.91)"><path d="M46.206,339.7l6.739-.137,3.32-.055c1.109-.025,2.2-.02,3.3-.025l-.222.222-.026-5.645.253.253-6.679-.03c-2.224,0-4.454-.055-6.679-.081l.136-.136c-.01.921-.044,1.852-.065,2.8Zm0,0-.071-2.8c-.026-.944-.055-1.9-.065-2.851v-.136h.144c2.224-.026,4.454-.081,6.679-.081l6.679-.03h.254v.253l-.026,5.645v.222H59.58c-1.125-.01-2.255,0-3.375-.025l-3.36-.055Z" transform="translate(-46.07 -333.809)" fill="#ebebeb"/></g><g transform="translate(7.452 25.645)"><path d="M60.976,56.412l6.738-.141,3.32-.055c1.109-.026,2.2-.02,3.3-.026l-.222.222-.025-5.645.253.253-6.678-.031c-2.224,0-4.454-.055-6.679-.081l.136-.136c-.01.921-.044,1.852-.065,2.8Zm0,0-.07-2.8c-.026-.944-.055-1.9-.065-2.851v-.135h.141c2.224-.025,4.454-.081,6.679-.081l6.679-.03h.253v.253l-.03,5.641v.222h-.222c-1.125-.01-2.255,0-3.375-.03l-3.36-.055Z" transform="translate(-60.841 -50.52)" fill="#ebebeb"/></g><rect width="13.359" height="5.645" transform="translate(13.496 38.654) rotate(180)" fill="#ebebeb"/><g transform="translate(192.122 0)"><path d="M427.046,56.412l6.739-.141,3.32-.055c1.109-.026,2.2-.02,3.3-.026l-.222.222-.025-5.645.253.253-6.679-.031c-2.224,0-4.454-.055-6.679-.081l.136-.136c-.01.921-.044,1.852-.065,2.8Zm0,0-.071-2.8c-.026-.944-.055-1.9-.065-2.851v-.135h.141c2.224-.025,4.454-.081,6.679-.081l6.679-.03h.253v.253l-.035,5.641v.222h-.222c-1.125-.01-2.255,0-3.375-.03l-3.36-.055Z" transform="translate(-426.91 -50.52)" fill="#ebebeb"/></g></g><g transform="translate(73.082 108.203)"><g transform="translate(2.421 60.703)"><rect width="36.297" height="40.191" transform="translate(18.737)" fill="#ebebeb"/><rect width="18.741" height="40.196" transform="translate(18.741 40.197) rotate(180)" fill="#dbdbdb"/><g transform="translate(1.286 2.768)"><path d="M62.73,421.915q2.081-4.291,4.126-8.6l4.066-8.649,4.016-8.682q2-4.351,3.955-8.727-2.081,4.291-4.126,8.6L70.7,404.506l-4.016,8.682Q64.693,417.539,62.73,421.915Z" transform="translate(-62.73 -387.256)" fill="#ebebeb"/><path d="M62.73,387.26q1.963,4.369,3.958,8.727l4.016,8.682,4.066,8.649q2.044,4.313,4.126,8.6-1.96-4.374-3.955-8.727l-4.016-8.682-4.066-8.649Q64.813,391.548,62.73,387.26Z" transform="translate(-62.73 -387.258)" fill="#ebebeb"/></g></g><g transform="translate(2.421)"><rect width="36.297" height="37.421" transform="translate(18.737)" fill="#ebebeb"/><rect width="18.741" height="37.427" transform="translate(18.741 37.428) rotate(180)" fill="#dbdbdb"/><path d="M127.19,270.126h1.342l.333-.665.463.665.625-1.377.6,1.377h2.472l.283-.918.264.918h.5V261.44H127.19Z" transform="translate(-93.386 -261.44)" fill="#dbdbdb"/><g transform="translate(1.286 2.765)"><path d="M62.73,299.2q2.081-3.992,4.126-8.011l4.066-8.051,4.016-8.087q2-4.048,3.955-8.126-2.081,3.992-4.126,8.011L70.7,282.983l-4.013,8.087Q64.693,295.118,62.73,299.2Z" transform="translate(-62.73 -266.921)" fill="#ebebeb"/><path d="M62.73,266.93q1.96,4.078,3.955,8.126l4.016,8.087,4.066,8.051q2.044,4.018,4.126,8.011-1.96-4.078-3.955-8.126l-4.015-8.087-4.066-8.051Q64.813,270.923,62.73,266.93Z" transform="translate(-62.73 -266.926)" fill="#ebebeb"/></g><rect width="4.031" height="4.031" transform="translate(25.16 35.102) rotate(180)" fill="#fff"/></g><g transform="translate(0 37.427)"><rect width="36.297" height="23.276" transform="translate(18.74)" fill="#dbdbdb"/><rect width="18.741" height="23.276" transform="translate(18.741 23.277) rotate(180)" fill="#c7c7c7"/><path d="M122.4,344.316h1.347l.333-.665.463.665.625-1.377.591,1.377h2.477l.283-.918.264.918h.5V335.63H122.4Z" transform="translate(-88.591 -335.63)" fill="#fff"/><g transform="translate(1.291 1.383)"><path d="M57.94,358.883q2.081-2.535,4.126-5.092l4.065-5.115,4.016-5.14q2-2.572,3.955-5.166-2.081,2.535-4.126,5.092l-4.064,5.113-4.016,5.14Q59.9,356.288,57.94,358.883Z" transform="translate(-57.94 -338.37)" fill="#dbdbdb"/><path d="M57.94,338.37q1.96,2.59,3.955,5.166l4.016,5.14,4.066,5.115q2.044,2.55,4.126,5.092-1.96-2.59-3.955-5.166l-4.016-5.137-4.065-5.115Q60.023,340.907,57.94,338.37Z" transform="translate(-57.94 -338.37)" fill="#dbdbdb"/></g></g><g transform="translate(72.94 65.736)"><rect width="36.297" height="35.162" transform="translate(18.738 0.002)" fill="#dbdbdb"/><rect width="18.741" height="35.162" transform="translate(18.741 35.162) rotate(180)" fill="#c7c7c7"/><path d="M402.54,400.438h1.347l.333-.665.463.665.625-1.377.6,1.377h2.468l.283-.918.264.918h.5V391.75H402.54Z" transform="translate(-368.733 -391.748)" fill="#fff"/><g transform="translate(1.288 2.091)"><path d="M338.08,426.874q2.081-3.829,4.126-7.688l4.066-7.728,4.016-7.762q2-3.89,3.955-7.8-2.081,3.829-4.126,7.688l-4.066,7.728-4.016,7.762Q340.037,422.964,338.08,426.874Z" transform="translate(-338.08 -395.896)" fill="#dbdbdb"/><path d="M338.08,395.9q1.96,3.912,3.955,7.8l4.016,7.762,4.066,7.728q2.042,3.859,4.126,7.688-1.96-3.912-3.955-7.8l-4.016-7.762-4.066-7.728Q340.163,399.729,338.08,395.9Z" transform="translate(-338.08 -395.897)" fill="#dbdbdb"/></g></g></g><g transform="translate(90.339)"><g transform="translate(4.485)"><path d="M319.52,46.95v85.81h65.952V46.95Zm63.521,83.631H321.954V49.129h61.086Z" transform="translate(-319.52 -46.95)" fill="#ebebeb"/><rect width="61.086" height="81.451" transform="translate(2.434 2.179)" fill="#fff"/><rect width="61.086" height="2.179" transform="translate(63.521 46.515) rotate(180)" fill="#ebebeb"/></g><rect width="74.918" height="6.256" transform="translate(74.918 92.061) rotate(180)" fill="#dbdbdb"/><path d="M315.09,231.946l70.946,1.331V229.44H315.09Z" transform="translate(-313.102 -137.38)" fill="#ebebeb"/><g transform="translate(6.919 2.179)"><path d="M323.84,51.27h61.087v55.961H323.84Zm58.834,2.012H326.094v51.931h56.579Z" transform="translate(-323.84 -51.27)" fill="#dbdbdb"/><rect width="1.216" height="53.943" transform="translate(40.375)" fill="#dbdbdb"/><rect width="1.216" height="53.943" transform="translate(19.494)" fill="#dbdbdb"/></g></g></g><g transform="translate(141.121 172.69)"><g transform="translate(0 41.543)"><rect width="50.286" height="41.548" fill="#ffc727"/><rect width="50.286" height="41.548" opacity="0.1"/><rect width="19.926" height="41.548" transform="translate(50.286 0.006)" fill="#ffc727"/><rect width="19.926" height="41.548" transform="translate(50.286 0.006)" opacity="0.2"/><g transform="translate(51.65 2.865)"><path d="M358.6,420.552q-2.21-4.435-4.39-8.894l-4.324-8.934-4.268-8.975q-2.127-4.5-4.2-9.02,2.218,4.435,4.39,8.894l4.324,8.934,4.268,8.975Q356.525,416.027,358.6,420.552Z" transform="translate(-341.416 -384.73)" fill="#ffc727"/><path d="M358.6,384.73q-2.081,4.525-4.2,9.02l-4.268,8.975-4.324,8.939q-2.172,4.464-4.39,8.894,2.081-4.525,4.2-9.02l4.268-8.975,4.324-8.936Q356.392,389.156,358.6,384.73Z" transform="translate(-341.416 -384.73)" fill="#ffc727"/></g><path d="M288.933,388.033H287.54l-.333-.691-.479.691-.645-1.423-.614,1.423h-2.562l-.293-.948-.275.948h-.518V379.06h7.112Z" transform="translate(-260.234 -379.054)" fill="#fff"/></g><g transform="translate(15.801)"><rect width="37.518" height="41.543" fill="#ffc727"/><rect width="19.372" height="41.548" transform="translate(37.518)" fill="#ffc727"/><rect width="19.372" height="41.548" transform="translate(37.518)" opacity="0.1"/><g transform="translate(2.689 2.861)" opacity="0.1"><path d="M307.759,338.2q-4.131-4.435-8.193-8.889l-8.071-8.934-7.966-8.975q-3.965-4.5-7.849-9.02,4.131,4.435,8.193,8.889l8.071,8.934,7.966,8.975Q303.875,333.671,307.759,338.2Z" transform="translate(-275.68 -302.375)"/><path d="M307.759,302.37q-3.89,4.525-7.849,9.02l-7.966,8.975-8.071,8.934q-4.056,4.457-8.193,8.889,3.881-4.525,7.849-9.02l7.966-8.975,8.071-8.934Q303.623,306.8,307.759,302.37Z" transform="translate(-275.68 -302.37)"/></g><rect width="3.395" height="4.792" transform="translate(50.769 34.515)" fill="#fff"/></g></g><g transform="translate(41.448 255.547)"><g transform="translate(0 0)"><path d="M41.45,461.2l26.3-.126,26.3-.04,52.6-.088,52.6.088,26.3.04,26.3.126-26.3.121-26.3.044-52.6.088-52.6-.088-26.3-.044Z" transform="translate(-41.45 -460.946)" fill="#263238"/></g></g><g transform="translate(145.984 112.012)"><g transform="translate(0)"><g transform="translate(4.939)"><path d="M288.23,176.42c.287.172.571.352.853.534" transform="translate(-273.212 -176.42)" fill="none" stroke="#263238" stroke-width="0.75"/><path d="M278,179.8c9.126,6.749,16.229,19.024,8.278,31.02-4.687,7.063-12.627,4.157-15.361,1.624-3.022-2.8-.243-5.655,2.78-3.748,5.237,3.32,5.973,11,.172,16.673a14.525,14.525,0,0,1-11.406,3.713" transform="translate(-260.443 -178.095)" fill="none" stroke="#263238" stroke-width="0.75" stroke-dasharray="4.055 4.055"/><path d="M259.464,277.1c-.625-.091-1-.175-1-.175" transform="translate(-258.466 -226.223)" fill="none" stroke="#263238" stroke-width="0.75"/></g><g transform="translate(0 47.442)"><path d="M250.287,274.661c-.237,2.032,3.881,3.148,4.192.489S250.524,272.627,250.287,274.661Z" transform="translate(-249.466 -271.793)" fill="#263238"/><g transform="translate(0.721 3.383)"><path d="M255.615,280c-.384.767-1.741.868-3.142-.111a9.4,9.4,0,0,1-2.371-2.661,9.441,9.441,0,0,1,3.548.307C255.277,278.081,256,279.225,255.615,280Z" transform="translate(-250.101 -277.174)" fill="#ebebeb"/><g transform="translate(0 0.055)"><path d="M250.1,277.28c.8.358,1.58.746,2.356,1.135s1.552.791,2.315,1.22c-.8-.358-1.58-.746-2.356-1.135S250.862,277.7,250.1,277.28Z" transform="translate(-250.1 -277.28)" fill="#263238"/><path d="M256.473,281.393a6.211,6.211,0,0,1-.489-.665,7.687,7.687,0,0,1-.414-.711,7.442,7.442,0,0,1,.9,1.373Z" transform="translate(-252.81 -278.639)" fill="#263238"/><path d="M253.99,278.99a8.143,8.143,0,0,1,1.705-.243,7,7,0,0,1-.847.166,8.11,8.11,0,0,1-.857.075Z" transform="translate(-252.027 -278.007)" fill="#263238"/><path d="M252.773,279.166a1.885,1.885,0,0,1-.363-.736A1.89,1.89,0,0,1,252.773,279.166Z" transform="translate(-251.245 -277.85)" fill="#263238"/></g></g><g transform="translate(0.882 0)"><path d="M256.427,271.391c-.2-.834-1.492-1.246-3.082-.62a9.432,9.432,0,0,0-2.921,2.044,9.346,9.346,0,0,0,3.529.521C255.653,273.179,256.627,272.231,256.427,271.391Z" transform="translate(-250.422 -270.468)" fill="#ebebeb"/><g transform="translate(0 0.512)"><path d="M250.42,273.936c.858-.166,1.705-.363,2.558-.56s1.7-.409,2.533-.645c-.858.162-1.705.363-2.557.56S251.263,273.695,250.42,273.936Z" transform="translate(-250.42 -272.099)" fill="#263238"/><path d="M257.572,271.48a7.147,7.147,0,0,0-.631.53,6.985,6.985,0,0,0-.565.6,7.147,7.147,0,0,0,.631-.53A7.9,7.9,0,0,0,257.572,271.48Z" transform="translate(-253.372 -271.48)" fill="#263238"/><path d="M254.65,274.12a7.361,7.361,0,0,0,.787.358,7.741,7.741,0,0,0,.817.273,8.2,8.2,0,0,0-1.6-.631Z" transform="translate(-252.517 -272.788)" fill="#263238"/><path d="M253.451,273.28a1.762,1.762,0,0,0-.3.283,1.553,1.553,0,0,0-.222.343,1.756,1.756,0,0,0,.3-.283,1.448,1.448,0,0,0,.222-.343Z" transform="translate(-251.663 -272.372)" fill="#263238"/></g></g><path d="M249.492,276.145a.734.734,0,1,1-.543.153.734.734,0,0,1,.543-.153Z" transform="translate(-248.67 -273.277)" fill="#455a64"/><path d="M249.832,273.235a.734.734,0,1,1-.543.153A.734.734,0,0,1,249.832,273.235Z" transform="translate(-248.839 -271.835)" fill="#455a64"/></g></g></g><g transform="translate(65.533 58.552)"><g transform="translate(0 0)"><g transform="translate(0 55.779)"><g transform="translate(0 0.032)"><g transform="translate(0 95.461)"><path d="M147.647,370.31s-10.74,21.535-10.745,21.554c-.887,4.45-1.589,8.364-1.761,10.423a.083.083,0,0,0,0,.035,3.147,3.147,0,0,0,.055,1.441c.01.014.01.026.02.035,1.145,1.16,36.489,9.3,37.811,9.167s1.059-3.925-.061-5.337S159.7,397.05,159.7,397.05l10.518-21.571Z" transform="translate(-133.312 -370.31)" fill="#d3766a"/><path d="M172.5,429.068c-1.331.132-36.141-8.011-37.28-9.167a.081.081,0,0,1-.02-.035,3.225,3.225,0,0,1-.055-1.441.087.087,0,0,1,0-.035c.172-2.058.873-5.978,1.756-10.423,0,0,1.383-2.765,2.572-5.156l22.3,6.114-2.058,4.228s11.6,9.167,12.728,10.579S173.832,428.941,172.5,429.068Z" transform="translate(-133.314 -386.414)" fill="#ebebeb"/><g transform="translate(0 19.78)"><path d="M172.85,431.827c-1.342.1-36.77-8.929-37.9-10.13-.444-.449.58-5.69,1.988-11.981l.044-.2,22.924,5.57-.111.384S171.81,425,172.91,426.45,174.2,431.732,172.85,431.827Z" transform="translate(-133.186 -409.52)" fill="#263238"/><g transform="translate(3.55 5.57)"><path d="M174.654,441.928c-5.932-1.663-30.031-7.839-36.024-9.04-.051-.01-.055.026-.01.036,5.847,1.781,29.991,7.762,36.009,9.1C174.76,442.055,174.78,441.964,174.654,441.928Z" transform="translate(-138.589 -426.669)" fill="#fff"/><path d="M180.745,421.493a8.584,8.584,0,0,0-7.429-.192c-.088.044-.02.166.065.166a34.141,34.141,0,0,1,7.279.323.156.156,0,0,0,.081-.3Z" transform="translate(-155.78 -420.548)" fill="#fff"/><path d="M183.585,424.372a8.584,8.584,0,0,0-7.429-.192c-.088.044-.02.166.065.166a34.153,34.153,0,0,1,7.279.323.156.156,0,0,0,.081-.3Z" transform="translate(-157.187 -421.976)" fill="#fff"/><path d="M186.433,427.262A8.584,8.584,0,0,0,179,427.07c-.088.044-.02.166.065.166a34.151,34.151,0,0,1,7.279.323.156.156,0,0,0,.081-.3Z" transform="translate(-158.599 -423.408)" fill="#fff"/></g><path d="M172.086,441.414c.571.4-.111,2.5-.611,2.55S132.388,434,131.768,433.683s.222-2.608,1.015-2.537S172.086,441.414,172.086,441.414Z" transform="translate(-131.553 -420.237)" fill="#ffc727"/><path d="M144.934,419.773c-2.239-1.937-5.257,1.539-3.012,3.481S147.18,421.714,144.934,419.773Z" transform="translate(-136.3 -414.319)" fill="#fff"/></g></g><g transform="translate(6.238 0)"><path d="M143.92,291.216l25.848,6.518s24.1-43.48,23.556-54.534c-.746-15.261-18.645-62.12-18.645-62.12H153.247s14.226,50.673,14.408,59.2C167.756,244.74,143.92,291.216,143.92,291.216Z" transform="translate(-143.92 -181.08)" fill="#455a64"/><g transform="translate(4.035 3.035)"><path d="M174.837,395.982c-1.377-.554-13.682-4.1-22.863-6.043-.061-.014-.081.075-.02.1,2.891,1.019,21.133,5.817,22.842,6.053C174.857,396.093,174.9,396.008,174.837,395.982Z" transform="translate(-151.918 -287.609)" fill="#263238"/><path d="M176.72,232.356c-1.705-7.155-3.5-14.287-5.448-21.378-1.953-7.123-3.971-14.236-6.225-21.274q-.416-1.286-.843-2.572a.111.111,0,0,0-.206.061c2,7,4.046,14,5.952,21.032s3.731,14.082,5.449,21.163q.635,2.633,1.256,5.261a48.359,48.359,0,0,1,1.094,5.484,14.333,14.333,0,0,1-.352,5.281,30.727,30.727,0,0,1-1.9,4.913q-4.639,10.064-9.267,20.134c-3.082,6.729-3.587,8.263-6.542,15.053-.368.843-.736,1.685-1.084,2.533a.049.049,0,1,0,.088.044c3.38-6.653,3.9-8.253,7.038-15.018q4.737-10.215,9.438-20.437c1.413-3.077,3.073-6.215,3.284-9.658C178.67,239.4,177.538,235.8,176.72,232.356Z" transform="translate(-155.228 -187.078)" fill="#263238"/></g></g></g><g transform="translate(5.855 0)"><g transform="translate(27.065 103.979)"><path d="M196.84,387.159s.827,23.705.827,23.729c.136,4.535.333,8.506.631,10.554a.1.1,0,0,0,0,.035,3.14,3.14,0,0,0,.378,1.393c.01.01.014.02.025.026,1.377.873,37.644.853,38.909.429s.146-4.066-1.261-5.186-15.3-7.325-15.3-7.325L220,387.124Z" transform="translate(-196.825 -387.124)" fill="#d3766a"/><path d="M198.14,424.422s.172,4.853.172,4.869c.136,4.535.333,8.506.631,10.554a.1.1,0,0,0,0,.036,6.1,6.1,0,0,0,.378,1.393c.01.01.014.02.025.026,1.377.873,37.643.853,38.909.429s.146-4.066-1.261-5.186-15.3-7.325-15.3-7.325l-.111-4.944Z" transform="translate(-197.469 -405.534)" fill="#ebebeb"/><g transform="translate(0 22.763)"><path d="M238.345,445.635c-1.282.409-37.84-.156-39.218-1.064-.53-.333-.757-5.665-.847-12.116v-.2l23.589.1-.016.4s13.9,6.478,15.3,7.632S239.631,445.226,238.345,445.635Z" transform="translate(-197.539 -432.253)" fill="#263238"/><g transform="translate(3.242 0.358)"><path d="M240.413,455.459c-6.159-.247-31.03-.665-37.137-.444-.051,0-.051.035,0,.04,6.1.378,30.969.59,37.134.5C240.54,455.56,240.544,455.463,240.413,455.459Z" transform="translate(-203.238 -443.862)" fill="#fff"/><path d="M241.777,433.249a8.591,8.591,0,0,0-7.269,1.534c-.071.065.02.166.1.146a34.142,34.142,0,0,1,7.155-1.373.156.156,0,0,0,.013-.308Z" transform="translate(-218.72 -433.004)" fill="#fff"/><path d="M245.216,435.39a8.607,8.607,0,0,0-7.269,1.534c-.071.065.02.166.1.146A34.138,34.138,0,0,1,245.2,435.7a.156.156,0,0,0,.013-.308Z" transform="translate(-220.422 -434.065)" fill="#fff"/><path d="M248.644,437.538a8.591,8.591,0,0,0-7.269,1.533c-.071.065.02.166.1.146a34.152,34.152,0,0,1,7.155-1.373.156.156,0,0,0,.013-.308Z" transform="translate(-222.123 -435.129)" fill="#fff"/></g><path d="M238.2,455.344c.651.264.475,2.458,0,2.628s-40.332-.625-41.008-.787-.388-2.59.4-2.7S238.2,455.344,238.2,455.344Z" transform="translate(-196.809 -443.262)" fill="#ffc727"/><path d="M206.846,440.279c-2.628-1.367-4.757,2.719-2.123,4.086S209.48,441.646,206.846,440.279Z" transform="translate(-200.133 -436.093)" fill="#fff"/></g></g><g transform="translate(0)"><path d="M174.037,181.034a.081.081,0,0,1,0,.02c-.1.444-5.433,21.561-6.1,21.954-.757.443,19.412,27.585,21.8,40.9,1.529,8.52,5.02,58.185,5.02,58.185H169.064s-2.517-42.174-3.36-56.077c-.333-5.393-20.557-30.324-22.479-46.946-.605-5.237,3.158-18.05,3.158-18.05h27.656Z" transform="translate(-143.16 -181.022)" fill="#455a64"/><g transform="translate(1.62 2.923)"><path d="M190.742,348.882c-.307-6.986-.585-13.989-1.094-20.965-.287-3.955-.853-7.778-1.246-11.723-.02-.206-.186-.257-.182-.044.182,7.017.762,13.96,1.135,20.971.374,6.986.732,8.649,1.125,15.634.222,3.955.419,7.91.726,11.864a.048.048,0,0,0,.1,0C191.327,357.594,191.05,355.894,190.742,348.882Z" transform="translate(-167.108 -250.833)" fill="#263238"/><path d="M213.975,265.806a37.236,37.236,0,0,0-1.074-5.463,27.438,27.438,0,0,0-2.083-5.02c-1.751-3.36-3.743-6.609-5.665-9.877q-2.921-4.964-5.952-9.857-1.712-2.747-3.437-5.484c-1.165-1.846-2.4-3.648-3.611-5.463-.044-.071-.162,0-.111.071,1.967,3.292,3.915,6.6,5.882,9.9s3.905,6.609,5.847,9.921c1.907,3.259,3.819,6.518,5.641,9.822a33.983,33.983,0,0,1,2.315,4.9,29.675,29.675,0,0,1,1.3,5.4c.686,4.273,1.246,8.571,2.107,12.809.01.055.1.04.1-.014C214.949,273.574,214.487,269.675,213.975,265.806Z" transform="translate(-168.992 -205.541)" fill="#263238"/><path d="M219.268,411.863c-1.474-.192-12.673-.58-22.045-.175a.048.048,0,1,0,0,.1c3.057.273,20.315.388,22.03.192C219.311,411.964,219.331,411.873,219.268,411.863Z" transform="translate(-171.543 -298.155)" fill="#263238"/><g transform="translate(18.885 0)"><path d="M191.436,221.647a48.419,48.419,0,0,0-7.588,3.532.088.088,0,0,0,.071.156c2.558-1.1,5.16-2.151,7.651-3.385a.166.166,0,0,0-.136-.3Z" transform="translate(-183.812 -204.066)" fill="#263238"/><path d="M195.33,186.887c0-.088-.162-.111-.162-.01a85,85,0,0,1-.431,8.559c-.119,1.293-1.173,8.568-3.458,8.038-.384-.091-.575-.463-.635-1.039a9.126,9.126,0,0,1,.3-2.23c.253-1.523.459-3.053.585-4.59a41.945,41.945,0,0,0-.091-8.607.073.073,0,1,0-.146.01,78.612,78.612,0,0,1-.7,11.88c-.287,1.892-1.236,4.741.742,5.03,2.019.3,3.32-4.474,3.567-5.781a43.829,43.829,0,0,0,.424-11.259Z" transform="translate(-186.934 -186.811)" fill="#263238"/><path d="M191.828,220.076a12.358,12.358,0,0,0-.514,1.508,3.4,3.4,0,0,0-.212,1.241.088.088,0,0,0,.156.035,4.384,4.384,0,0,0,.53-1.206c.172-.463.358-.928.52-1.4a.255.255,0,0,0-.479-.176Z" transform="translate(-187.422 -203.215)" fill="#263238"/></g><path d="M170.747,259.868c-.237-3.587-.222-7.38-1.751-10.711A36.076,36.076,0,0,0,166.2,244.5q-1.567-2.391-3.087-4.808c-4.056-6.442-7.93-13.015-11.476-19.75a43.965,43.965,0,0,1-4.141-10.176,32.54,32.54,0,0,1-.471-11.48c.111-.954.247-1.9.409-2.851a.057.057,0,0,0-.111-.025,37.588,37.588,0,0,0-.843,11.114,30.976,30.976,0,0,0,2.962,10.235c1.565,3.385,3.424,6.644,5.261,9.893q2.837,5.017,5.847,9.938c2,3.259,4.1,6.453,6.181,9.661a18.406,18.406,0,0,1,2.458,4.944,26.56,26.56,0,0,1,.782,5.6c.514,7.94,2.527,34.339,3.239,42.239q.136,1.506.273,3.006a.071.071,0,1,0,.141,0C173.32,294.117,171.266,267.783,170.747,259.868Z" transform="translate(-146.381 -191.047)" fill="#263238"/><path d="M162.108,194.767c-.01-.055-.091-.035-.1.014a18.7,18.7,0,0,1-.863,6.563,8.982,8.982,0,0,1-4.092,4.258,32.913,32.913,0,0,1-3.143,1.539c-.075.035-.044.156.04.132a17.432,17.432,0,0,0,5.791-2.7,7.568,7.568,0,0,0,2.689-5.827,18.8,18.8,0,0,0-.327-3.981Z" transform="translate(-150.09 -190.736)" fill="#263238"/></g></g></g></g><g transform="translate(7.478)"><g transform="translate(22.45 21.485)"><g transform="translate(0.419 0.336)"><path d="M192.054,118.682c2.883,8.858,10.679,23.95,13.464,25.768,2.467,1.609,14.074-.186,19.149-1.413,1.9-.459-2.371-14.917-4.39-14.388-2.427.635-9.658,2.265-10.18,1.866-.58-.444-7.814-9.383-12.98-14.67C192.433,111.053,190.965,115.331,192.054,118.682Z" transform="translate(-191.712 -113.703)" fill="#d3766a"/><g transform="translate(25.101 9.996)"><g transform="translate(2.813 0.364)"><path d="M250.994,153.326c.974-.121,9.212-.495,12.99-2.558,2-1.094,7.163-4.717,6.653-6.019-.469-1.185-2.129-.54-2.129-.54s2.28-1.65,1.609-3.292-3.41-.409-3.41-.409,2.218-1.866,1.433-3.456-3.336.111-3.336.111,2.107-1.609.908-2.648c-1.441-1.251-4.99,2.159-7.38,2.956-.544.182-11.284,2.9-11.284,2.9Z" transform="translate(-247.047 -134.242)" fill="#d3766a"/><g transform="translate(9.94 2.819)"><path d="M274.477,139.885c-2.613,2.5-4.192,3.138-7.678,3.849a.056.056,0,1,0,.01.111c3.481-.384,5.575-.9,7.8-3.839C274.717,139.861,274.6,139.765,274.477,139.885Z" transform="translate(-266.748 -139.831)" fill="#263238"/><path d="M277.721,146.5a19.032,19.032,0,0,1-8.248,4.076c-.05.014-.03.1.02.091,3.617-.7,5.69-1.261,8.316-4C277.933,146.55,277.857,146.4,277.721,146.5Z" transform="translate(-268.085 -143.12)" fill="#263238"/><path d="M280.874,154.016a17.085,17.085,0,0,1-8.47,3.466.069.069,0,0,0,.01.136,12.127,12.127,0,0,0,8.51-3.506C281.1,153.961,281.061,153.894,280.874,154.016Z" transform="translate(-269.523 -146.827)" fill="#263238"/></g></g><path d="M241.47,140.47a44.561,44.561,0,0,1,4.646-4.6c1.644-1.2,9.434-3.421,10.008-1.765.742,2.133-3.5,4.3-5.716,5.092,0,0,1.721,4.939-.989,7.155S241.47,140.47,241.47,140.47Z" transform="translate(-241.47 -133.517)" fill="#d3766a"/><path d="M264.085,135.982c-.732,2.439-3.708,3.284-5.795,4.214a.208.208,0,0,0-.081.333c.58,2.119.787,5.277-.7,7.058a.053.053,0,0,0,.075.075c1.852-1.7,1.9-4.818,1.115-7.1,2.159-.918,5.111-1.9,5.408-4.575C264.11,135.972,264.09,135.966,264.085,135.982Z" transform="translate(-249.415 -134.734)" fill="#263238"/></g></g><g transform="translate(0 0)"><path d="M223.156,145.3l-3.809-17.323-9.414,1.712c-3.713-4.252-11.134-12.751-14.141-15.3-3.526-2.994-5.842-.742-4.546,3.793,2.962,10.372,11.563,25.587,13.828,27.045C208.331,147.311,223.156,145.3,223.156,145.3Z" transform="translate(-190.883 -113.03)" fill="#ffc727"/><path d="M210.8,139.667a7.354,7.354,0,0,0,1.417.166,1.231,1.231,0,0,1,.534,2.189,3.631,3.631,0,0,1-3.253.277,2.358,2.358,0,0,1-1.644-2.513,1.261,1.261,0,0,1,2.012-.776A4.877,4.877,0,0,0,210.8,139.667Zm-2.6-4.121c-.363,1.721,2.29,3.188,3.648,2.275a.913.913,0,0,0,.035-1.427c-.395-.323-.732-.374-1.084-.665a1.614,1.614,0,0,1-.323-.333,2.526,2.526,0,0,0-.752-.665,1.1,1.1,0,0,0-1.525.815Zm-4.232.091a2.149,2.149,0,0,0,.343,2.427,2.188,2.188,0,0,0,1.983.964.737.737,0,0,0,.374-1.292,2.27,2.27,0,0,1-.706-.887c-.237-.534-.4-1.22-1-1.458a.87.87,0,0,0-1,.242Zm11.175,11.219c-.711,1.441,1.453,3.073,2.772,2.79.444-.1.863-.665.469-1.084-.313-.333-.686-.6-.978-.948-.358-.429-.554-.978-1.115-1.2a.887.887,0,0,0-1.148.438Zm-20.32-17.63a1.926,1.926,0,0,0-.495-.611q.424,1.082.893,2.174a2.975,2.975,0,0,0-.4-1.563Zm2.81-1.518a5.959,5.959,0,0,0-1.393-3.385c-.605-.776-1.65-2.032-2.765-1.751a.58.58,0,0,0-.4.554c-.071.853.908,1.774,1.331,2.447.53.858.908,1.806,1.448,2.661a.971.971,0,0,0,1.786-.524Zm-.333,5.423a.925.925,0,0,0,.847-.7,2.269,2.269,0,0,0-.075-1.175,1.956,1.956,0,0,0-.53-.964.717.717,0,0,0-1.181.348,3.486,3.486,0,0,0-.01.887c0,.126,0,.257-.01.384a2.74,2.74,0,0,0,.061.571.9.9,0,0,0,.9.645Z" transform="translate(-191.961 -117.74)" fill="#030402" opacity="0.1"/><g transform="translate(25.856 17.311)"><path d="M245.261,160.8c-.434-1.025-1.5-5.488-1.751-6.6-.247-1.094-1.115-5.625-1.373-6.77-.014-.061.071-.1.088-.035.273,1.13,1.492,5.58,1.756,6.689s1.273,5.585,1.342,6.709a.032.032,0,0,1-.063.01Z" transform="translate(-242.136 -147.352)" fill="#263238"/></g><path d="M211.138,146.317c-2.648-.014-4.97-.257-6.043-.948-2.27-1.464-10.866-16.673-13.828-27.045-.746-2.6-.3-4.454.887-4.99Z" transform="translate(-190.89 -113.18)" opacity="0.1"/></g></g><g transform="translate(0 20.721)"><g transform="translate(0 0)"><path d="M146.375,148.952c.065.1,31.545,4.131,31.877,3.839a21.88,21.88,0,0,0,.378-2.661s-2.883-34.273-4.379-36.281c-1.306-1.761-5.271-3.029-7.97-1.885-5.665,2.4-19.23,33.023-19.084,34.284a25.049,25.049,0,0,0-.823,2.7Z" transform="translate(-146.375 -111.526)" fill="#ffc727"/></g><path d="M161.157,150a8.54,8.54,0,0,0,1.5.565,1.384,1.384,0,0,1,0,2.533,4.1,4.1,0,0,1-3.627-.575,2.661,2.661,0,0,1-1.115-3.188,1.421,1.421,0,0,1,2.412-.3C160.618,149.341,160.791,149.755,161.157,150Zm-1.725-5.211c-.863,1.781,1.634,4.1,3.365,3.471a1.023,1.023,0,0,0,.424-1.552c-.343-.459-.7-.605-1-1.019a1.648,1.648,0,0,1-.257-.459,2.827,2.827,0,0,0-.641-.938,1.237,1.237,0,0,0-1.885.495Zm-2.916-1.9c-.944.352-1.185,1.624-1.115,2.523a2.454,2.454,0,0,0,1.322,2.1.828.828,0,0,0,1.125-1.01,2.557,2.557,0,0,1-.152-1.261c.091-.651.348-1.407-.081-1.983a.975.975,0,0,0-1.1-.367Zm10.342,6a.934.934,0,0,0-1.027.8,1.1,1.1,0,0,0,.782,1.165,1.69,1.69,0,0,0,1.059,0,.776.776,0,0,0,.409-.363.8.8,0,0,0,.111-.544.893.893,0,0,0-.691-.732.763.763,0,0,0-.111-.111,1.087,1.087,0,0,0-.534-.222Zm-7.734-12.173a2.653,2.653,0,0,0,.463,3.506.9.9,0,0,0,1.441-.591,3.42,3.42,0,0,0,.01-.6c0-.222-.025-.358-.02-.482a4.743,4.743,0,0,0,.044-1.306,1.109,1.109,0,0,0-1.934-.526Zm-5.466,12.53c-1.165,1.383.757,3.753,2.265,3.8.5.014,1.125-.5.807-1.053-.253-.444-.591-.837-.812-1.3-.273-.565-.333-1.22-.893-1.609a.991.991,0,0,0-1.367.166Zm27.831-.444a.966.966,0,0,0-.8.726,3.112,3.112,0,0,1-.6,1.5,7.125,7.125,0,0,0-1.236,1.251.74.74,0,0,0,.676,1.079,3.486,3.486,0,0,0,2.255-1.23c-.08-.95-.181-2.075-.3-3.326Zm-2.537-4.162c-.287.686-.232,1.464-.469,2.179a17.49,17.49,0,0,1-.746,1.927c-.212.444.212,1.17.767.928a3.8,3.8,0,0,0,2.048-1.872,4.13,4.13,0,0,0,.444-2.966c-.338-.776-1.624-1.19-2.039-.2Zm-2.875,6.875a4.594,4.594,0,0,1-1.569,1.286,1.08,1.08,0,1,0,.887,1.953,3.881,3.881,0,0,0,2.189-2.452.887.887,0,0,0-1.5-.786ZM171.467,126.8a1.118,1.118,0,0,0,1.312-.817c.283-1.084-.686-2.2-1.453-2.883a3.1,3.1,0,0,0-2.921-.944.882.882,0,0,0-.358,1.458c.469.585,1.12,1.015,1.619,1.583.538.617.921,1.454,1.8,1.6Zm3.854,4.278a2.17,2.17,0,0,0-.206-2.093,1.874,1.874,0,0,0-.716-.767.93.93,0,0,0-1.292.277,1.234,1.234,0,0,0-.061.918,2.617,2.617,0,0,0,.172.453c.01.02.016.035.02.044s0,.025.01.04a3.074,3.074,0,0,0,.6,1.347.948.948,0,0,0,1.476-.222Zm2.6-3.611a5.959,5.959,0,0,0-1.393-3.385c-.605-.776-1.65-2.032-2.765-1.751a.58.58,0,0,0-.4.554c-.071.853.908,1.774,1.331,2.447.53.858.908,1.806,1.448,2.661a.971.971,0,0,0,1.784-.524Zm-3.809,8.637a1.33,1.33,0,0,0,.565-.014,1.141,1.141,0,0,0,.655-.53,1.861,1.861,0,0,0,.2-.873,1.7,1.7,0,0,0-.222-.812c-.055-.071-.111-.136-.166-.206l-.222-.162a.966.966,0,0,0-.645-.1,1.02,1.02,0,0,0-.834.767,4.958,4.958,0,0,0-.175.9l.044.277a.87.87,0,0,0,.2.374,1.086,1.086,0,0,0,.605.384Zm3.481-3.216a.925.925,0,0,0,.847-.7,2.269,2.269,0,0,0-.075-1.175,1.957,1.957,0,0,0-.53-.964.717.717,0,0,0-1.181.348,3.484,3.484,0,0,0-.01.887c0,.126,0,.257-.01.384a2.735,2.735,0,0,0,.061.571.9.9,0,0,0,.9.645Z" transform="translate(-149.808 -116.743)" fill="#030402" opacity="0.1"/></g><g transform="translate(21.192)"><g transform="translate(0 14.296)"><g transform="translate(0 0)"><path d="M193.241,112.909c-1.922-.175-4.383-4.283-4.853-6.892-.03-.182.736-1.7,1.58-3.581.51-1.145,1.044-2.439,1.453-3.648l6.98,4.4a20.388,20.388,0,0,0-2.3,4.409,2.884,2.884,0,0,0-.111.514.793.793,0,0,1-.014.088C195.815,109.187,195.1,113.081,193.241,112.909Z" transform="translate(-188.387 -98.787)" fill="#fedfcc"/></g><path d="M199.181,108.386a.726.726,0,0,1-.016.081,4.63,4.63,0,0,1-.8-.222c-4.363-1.573-3.6-7.3-3.289-8.889l1.745,1.1,4.768,3a20.236,20.236,0,0,0-2.29,4.409A2.9,2.9,0,0,0,199.181,108.386Z" transform="translate(-191.577 -99.071)" fill="#263238"/></g><g transform="translate(0.732)"><g transform="translate(1.838 2.959)"><path d="M194.671,79.559c-1.441,2.6-1.69,10.942-.1,13.157,2.311,3.209,6.951,4.46,9.893,1.488,2.851-2.883,2.985-13.761,1.125-15.866C202.848,75.245,196.8,75.72,194.671,79.559Z" transform="translate(-193.481 -76.31)" fill="#fedfcc"/></g><g transform="translate(7.762 9.573)"><g transform="translate(0.706 2.759)"><path d="M208.453,96.114c0-.02-.044.025-.044.051,0,.575-.1,1.23-.625,1.4-.014,0-.014.035,0,.03C208.423,97.533,208.544,96.66,208.453,96.114Z" transform="translate(-207.193 -95.495)" fill="#263238"/><path d="M207.393,94.9c-.918-.1-1.053,1.745-.2,1.842S208.164,94.983,207.393,94.9Z" transform="translate(-206.622 -94.891)" fill="#263238"/></g><g transform="translate(5.195 3.021)"><path d="M215.6,96.5c0-.02.04.03.04.055-.065.571-.04,1.236.463,1.468.014,0,.01.035,0,.03C215.469,97.919,215.451,97.035,215.6,96.5Z" transform="translate(-215.523 -95.95)" fill="#263238"/><path d="M216.188,95.41c.928,0,.853,1.856,0,1.852S215.411,95.406,216.188,95.41Z" transform="translate(-215.549 -95.41)" fill="#263238"/></g><path d="M207.944,93.214a7.554,7.554,0,0,1-.757.091,1.232,1.232,0,0,1-.787-.055.39.39,0,0,1-.152-.453.966.966,0,0,1,.834-.52,1.415,1.415,0,0,1,1.01.192.416.416,0,0,1-.149.746Z" transform="translate(-205.721 -90.824)" fill="#263238"/><path d="M216.994,90.722a7.563,7.563,0,0,1-.721-.243,1.22,1.22,0,0,1-.686-.388.4.4,0,0,1,.055-.475.971.971,0,0,1,.978-.111,1.422,1.422,0,0,1,.828.609.414.414,0,0,1-.456.608Z" transform="translate(-210.332 -89.421)" fill="#263238"/><g transform="translate(1.32 0.914)"><g transform="translate(0 0)"><path d="M208.068,98.244a4.848,4.848,0,0,1,2.26.03c.065,0,.136-.132.152-.192h0c0-.02.044-1.211.044-1.211.152.091.944.51.944.283a29.15,29.15,0,0,0-.358-5.882c-.01-.061-.111-.055-.111,0-.088,1.816.152,3.637.1,5.463a3.315,3.315,0,0,0-.893-.333c-.065.014.02,1.286-.014,1.478a2.8,2.8,0,0,0-2.113.111C207.821,98.134,207.715,98.355,208.068,98.244Z" transform="translate(-207.842 -91.229)" fill="#263238"/></g></g><path d="M205.278,107.51c.126.141.253.333.459.363a1.465,1.465,0,0,0,.62-.111.021.021,0,0,1,.025.03.764.764,0,0,1-.742.264.605.605,0,0,1-.414-.53C205.214,107.5,205.258,107.489,205.278,107.51Z" transform="translate(-205.225 -98.38)" fill="#263238"/></g><g transform="translate(1.836)"><path d="M197.107,77.5c-.075,1.3-.384,5.322-1,6.134-.6.787-1.947,2.719-2.623,3.017a17.341,17.341,0,0,1,1.2-6.542A6.792,6.792,0,0,1,197.107,77.5Z" transform="translate(-193.479 -73.941)" fill="#263238" opacity="0.2"/><g transform="translate(0.094)"><path d="M210.02,84.136a2.948,2.948,0,0,1-2.76.807,3.008,3.008,0,0,1-2.184-1.957.024.024,0,1,0-.044.014,2.977,2.977,0,0,0,2.165,2.173,3.039,3.039,0,0,0,2.871-.989C210.1,84.151,210.049,84.105,210.02,84.136Z" transform="translate(-199.296 -76.647)" fill="#263238"/><path d="M205.436,70.464a4.626,4.626,0,0,0-4.046,1.866,3.327,3.327,0,0,0-.475,2.129c0,.03.065.03.065,0a3.628,3.628,0,0,1,1.942-3.152,4.677,4.677,0,0,1,4.167-.2,2.958,2.958,0,0,1,1.5,1.387c.03.065.162.035.136-.03A3.589,3.589,0,0,0,205.436,70.464Z" transform="translate(-197.247 -70.453)" fill="#263238"/><path d="M224.008,76.422a3.789,3.789,0,0,0-1.458-2.133,5.211,5.211,0,0,0-3.37-.676.026.026,0,0,0,0,.051,5.222,5.222,0,0,1,2.916.54,3.717,3.717,0,0,1,1.583,1.922,3.608,3.608,0,0,1-1.811,4.369,3.659,3.659,0,0,1-2.905.091c-.035-.014-.065.04-.03.055a3.735,3.735,0,0,0,4.687-1.533A3.781,3.781,0,0,0,224.008,76.422Z" transform="translate(-206.178 -72.01)" fill="#263238"/><path d="M194.258,78.876s-1.387-3.173.1-4.832c.843-.944,3.375-.621,3.375-.621A4.59,4.59,0,0,1,200.8,71.7a8.3,8.3,0,0,1,4.606,1.109,4.269,4.269,0,0,1,3.925.222,3.942,3.942,0,0,1-.863,6.8c-1.937.767-4.349-1.08-4.349-1.08-.247.014-2.853,1.331-4.575-1.039,0,0-1.64,1.246-2.942.186A2.228,2.228,0,0,1,194.258,78.876Z" transform="translate(-193.669 -71.04)" fill="#263238"/></g></g><g transform="translate(0 10.54)"><path d="M193.183,93.917s-1.322-2.962-2.628-2.537-.665,4.464.62,5.251a1.434,1.434,0,0,0,2.038-.395Z" transform="translate(-189.838 -91.338)" fill="#fedfcc"/><path d="M191.658,93.709c-.02,0-.03.025-.014.035a3.621,3.621,0,0,1,1.413,2.59.791.791,0,0,0-1.125-.444c-.03.014-.01.055.014.055a.887.887,0,0,1,.9.489,4.281,4.281,0,0,1,.307.863c.03.1.2.081.182-.026a.044.044,0,0,0,0-.026C193.592,96.015,192.964,94.093,191.658,93.709Z" transform="translate(-190.729 -92.513)" fill="#263238"/></g></g></g><g transform="translate(40.883 18.988)"><rect width="56.803" height="33.436" transform="translate(0.004 16.646) rotate(-17.04)" fill="#ffc727"/><rect width="56.803" height="33.436" transform="translate(0.004 16.646) rotate(-17.04)" opacity="0.2"/><rect width="19.089" height="33.436" transform="translate(36.065 5.597) rotate(-17.04)" opacity="0.2"/><g transform="translate(37.694 1.637)"><path d="M326.686,111.33q-.916,4.245-1.791,8.495l-1.725,8.516-1.663,8.531q-.817,4.268-1.593,8.551.917-4.246,1.8-8.5l1.725-8.516,1.663-8.531Q325.906,115.613,326.686,111.33Z" transform="translate(-310.946 -111.33)" fill="#ffc727"/><path d="M326.844,145.337q-3.043-3.1-6.11-6.189l-6.155-6.134-6.195-6.09q-3.1-3.034-6.245-6.033,3.042,3.1,6.11,6.189l6.154,6.134,6.195,6.09Q323.709,142.339,326.844,145.337Z" transform="translate(-302.14 -116.068)" fill="#ffc727"/></g><g transform="translate(3.424 14.133)"><g transform="translate(0 2.326)"><rect width="0.313" height="4.394" transform="translate(7.303 4.201) rotate(162.96)" fill="#263238"/><rect width="0.313" height="4.394" transform="translate(6.599 4.433) rotate(162.96)" fill="#263238"/><rect width="0.313" height="4.394" transform="translate(5.876 4.643) rotate(162.96)" fill="#263238"/><rect width="0.313" height="4.394" transform="translate(5.158 4.871) rotate(162.96)" fill="#263238"/><rect width="0.313" height="4.394" transform="translate(4.456 5.089) rotate(162.96)" fill="#263238"/><rect width="0.313" height="4.394" transform="translate(3.742 5.305) rotate(162.96)" fill="#263238"/><rect width="0.313" height="4.394" transform="translate(3.017 5.521) rotate(162.96)" fill="#263238"/><rect width="0.313" height="4.394" transform="translate(2.308 5.741) rotate(162.962)" fill="#263238"/><rect width="0.313" height="4.394" transform="translate(1.586 5.959) rotate(162.96)" fill="#263238"/></g><path d="M250.907,138.812l-1.246.03,2.689-.823-1.049.665.475,1.543c.853-.141,1.427.565,1.862,1.983l-2.689.823c-.434-1.413-.351-2.329.434-2.684Z" transform="translate(-241.866 -137.052)" fill="#263238"/><path d="M257.49,138.945l.7-.222-.631-2.058,1.8-.554.625,2.058.706-.222-.948,2.633Z" transform="translate(-245.746 -136.111)" fill="#263238"/></g><path d="M227.42,130.234l.8,2.618,37.541-6.189-2.29-7.471Z" transform="translate(-227.42 -113.589)" opacity="0.1"/><g transform="translate(45.846 31.976)"><path d="M343.594,175.1l-18.257,5.59-7.038-3.622,18.257-5.594Z" transform="translate(-318.3 -171.47)" fill="#ffc727"/><path d="M343.594,175.1l-18.257,5.59-7.038-3.622,18.257-5.594Z" transform="translate(-318.3 -171.47)" opacity="0.2"/></g><path d="M239.29,205.9l18.257-5.59,3.8-6.941-18.251,5.588Z" transform="translate(-233.302 -150.347)" fill="#ffc727"/><path d="M239.29,205.9l18.257-5.59,3.8-6.941-18.251,5.588Z" transform="translate(-233.302 -150.347)" opacity="0.1"/></g><g transform="translate(16.127 25.408)"><g transform="translate(0.403 0.35)"><path d="M179.442,126.447c2.669,8.924,10.1,24.2,12.843,26.081,2.427,1.663,14.074.152,19.182-.954,1.912-.414-2.013-14.969-4.046-14.487-2.439.58-9.705,2.032-10.225,1.619-.565-.453-7.588-9.57-12.627-14.978C180,118.829,178.43,123.072,179.442,126.447Z" transform="translate(-179.148 -121.505)" fill="#d3766a"/><g transform="translate(27.223 8.052)"><path d="M233.11,146.181s3.859-4.349,6.593-6.009a20.6,20.6,0,0,1,9.454-2.7c3.587-.141,12.36,2,12.183,4.626-.156,2.386-9.015-.253-9.015-.253s9.474,1.2,8.752,4.031-10.821-.807-10.821-.807,9.705,1.448,8.5,4.252c-.908,2.119-10.245-.665-10.245-.665s8.334,1.3,7.491,3.522c-.928,2.458-9.711.429-9.711.429-3.087,5.287-6.719,6.542-9.408,7.129C236.238,159.882,233.11,146.181,233.11,146.181Z" transform="translate(-233.11 -137.467)" fill="#fedfcc"/><g transform="translate(13.849 3.755)"><path d="M264.742,144.91c1.12.1,2.25.192,3.354.395s2.2.444,3.284.736a18.717,18.717,0,0,1,4.1,1.573,41.2,41.2,0,0,0-7.446-2.008c-1.109-.2-2.2-.454-3.3-.651C264.7,144.95,264.711,144.91,264.742,144.91Z" transform="translate(-262.618 -144.91)" fill="#263238"/><path d="M263.178,152.8c1.423.192,2.841.333,4.253.58s2.719.611,4.1.958c.111.025.055.075-.051.051-1.4-.293-2.714-.454-4.116-.732s-2.794-.605-4.2-.827C263.148,152.83,263.154,152.8,263.178,152.8Z" transform="translate(-261.847 -148.819)" fill="#263238"/><path d="M260.6,159.32a31.974,31.974,0,0,1,6.438,1.383c.111.03.035.088-.075.061-2.129-.5-3.8-.908-6.366-1.367C260.551,159.39,260.551,159.314,260.6,159.32Z" transform="translate(-260.562 -152.051)" fill="#263238"/></g></g></g><g transform="translate(0 0)"><path d="M209.9,153.814l-3.391-17.408-9.448,1.484c-3.607-4.339-10.826-13.015-13.773-15.643-3.456-3.082-5.821-.887-4.636,3.682,2.714,10.443,10.947,25.856,13.177,27.368C195.03,155.463,209.9,153.814,209.9,153.814Z" transform="translate(-178.346 -120.813)" fill="#ffc727"/><path d="M205.326,139.434a7.356,7.356,0,0,0,1.417.166,1.231,1.231,0,0,1,.534,2.189,3.631,3.631,0,0,1-3.253.277,2.358,2.358,0,0,1-1.644-2.513,1.261,1.261,0,0,1,2.012-.776A4.879,4.879,0,0,0,205.326,139.434Zm-1-1.786a2.192,2.192,0,0,0,2.038-.061.754.754,0,0,0,.264-.3Zm-4.909.767a2.006,2.006,0,0,0,1.393.378.737.737,0,0,0,.635-.7Zm10.694,7.774a.878.878,0,0,0-.453.434,1.908,1.908,0,0,0,.989,2.321Zm-15.191,3.35a3.112,3.112,0,0,1-.6,1.5,7.247,7.247,0,0,0-1.236,1.251.742.742,0,0,0,.681,1.08,3.548,3.548,0,0,0,3.092-3.644.986.986,0,0,0-1.937-.185Zm-1.741-4.889c-.287.686-.232,1.464-.469,2.179a17.484,17.484,0,0,1-.746,1.927c-.212.444.212,1.17.767.928a3.8,3.8,0,0,0,2.048-1.872,4.13,4.13,0,0,0,.443-2.966c-.333-.776-1.624-1.191-2.038-.2ZM185.7,126.807a1.118,1.118,0,0,0,1.312-.817c.283-1.084-.686-2.2-1.453-2.883a3.1,3.1,0,0,0-2.921-.944.882.882,0,0,0-.358,1.458c.469.585,1.12,1.015,1.619,1.583.54.615.924,1.454,1.8,1.6Zm3.854,4.278a2.17,2.17,0,0,0-.206-2.093,1.874,1.874,0,0,0-.716-.767.93.93,0,0,0-1.292.277,1.234,1.234,0,0,0-.061.918,2.612,2.612,0,0,0,.172.453c.01.02.014.035.02.044a.355.355,0,0,1,.01.04,3.073,3.073,0,0,0,.6,1.347.948.948,0,0,0,1.478-.222Zm-1.206,5.024a1.33,1.33,0,0,0,.565-.014,1.141,1.141,0,0,0,.655-.53,1.859,1.859,0,0,0,.2-.873,1.7,1.7,0,0,0-.222-.812c-.055-.071-.111-.136-.166-.206l-.222-.162a.966.966,0,0,0-.645-.1,1.02,1.02,0,0,0-.834.767,4.957,4.957,0,0,0-.175.9l.044.277a.869.869,0,0,0,.2.374,1.086,1.086,0,0,0,.608.384Zm4.258-5.075v-.01l-.984-1.135a.665.665,0,0,0-.721.527,3.265,3.265,0,0,0-.01.887c0,.126,0,.253-.01.384a2.366,2.366,0,0,0,.061.566.887.887,0,0,0,.893.645.925.925,0,0,0,.847-.7,2.291,2.291,0,0,0-.071-1.169Z" transform="translate(-180.166 -121.43)" fill="#030402" opacity="0.1"/><g transform="translate(1.864 7.879)"><path d="M231.684,169.786c-.409-1.035-1.367-5.524-1.594-6.644-.222-1.1-.983-5.655-1.211-6.8-.01-.061.075-.1.088-.035.247,1.135,1.357,5.609,1.594,6.729s1.141,5.609,1.181,6.739C231.745,169.8,231.7,169.816,231.684,169.786Z" transform="translate(-205.25 -146.263)" fill="#263238"/><g transform="translate(0 2.215)"><g transform="translate(0 0)"><path d="M205.359,164.216q-2.329.129-4.646.111a36.867,36.867,0,0,1-4.657-.267,7.482,7.482,0,0,1-2.29-.605,6.828,6.828,0,0,1-1.674-1.69,34.381,34.381,0,0,1-2.477-3.96c-1.514-2.714-2.815-5.544-4.086-8.364-1.241-2.84-2.422-5.71-3.486-8.621,1.286,2.82,2.558,5.645,3.874,8.445q1.945,4.214,4.1,8.316a41.722,41.722,0,0,0,2.381,3.955,6.431,6.431,0,0,0,1.514,1.65,7.16,7.16,0,0,0,2.174.611,61.649,61.649,0,0,0,9.264.419Z" transform="translate(-182.043 -140.82)" fill="#263238"/></g><g transform="translate(0.05 0.993)"><path d="M183.086,144.258a4.427,4.427,0,0,1-.554-.681,2.807,2.807,0,0,1-.395-.787c.075.126.166.243.247.363l.247.358a6.837,6.837,0,0,1,.455.747Z" transform="translate(-182.137 -142.79)" fill="#263238"/></g></g><g transform="translate(8.955)"><path d="M199.79,136.43c1.282,1.282,2.422,2.689,3.607,4.056s2.329,2.772,3.526,4.116l.453.495a3.264,3.264,0,0,0,.232.232c.04.04.075.071.111.1s.01,0,.01.014.035,0,.055,0c.384-.014.868-.088,1.306-.146l2.678-.4c1.791-.264,3.577-.534,5.368-.776h.02v.014l.065.444-.111-.444.02.014c-1.774.378-3.548.716-5.322,1.044-.893.162-1.786.3-2.678.444a12.475,12.475,0,0,1-1.387.162.491.491,0,0,1-.111-.01.372.372,0,0,1-.136-.075,1.858,1.858,0,0,1-.146-.121c-.091-.081-.166-.162-.247-.247-.156-.166-.313-.333-.463-.5-1.191-1.373-2.336-2.772-3.466-4.182l-1.69-2.123C200.925,137.833,200.385,137.106,199.79,136.43Z" transform="translate(-199.79 -136.43)" fill="#263238"/><g transform="translate(0.661 0.152)"><path d="M201.1,136.73a4.444,4.444,0,0,1,.475.746,2.568,2.568,0,0,1,.3.834c-.061-.136-.136-.257-.2-.388l-.206-.384C201.337,137.27,201.2,137.013,201.1,136.73Z" transform="translate(-201.1 -136.73)" fill="#263238"/></g></g></g></g></g></g></g></g><g transform="translate(41.447 164.966)"><g transform="translate(0 0)"><g transform="translate(19.929)"><path d="M81.058,340.324a132.583,132.583,0,0,1,.2-14.161,180.417,180.417,0,0,1,4.435-28.85c1.236-5.337,2.76-10.589,4.349-15.83.051-.156.3-.111.257.051-4.909,18.484-8.934,37.558-8.657,56.771.075,5.378.7,10.659,1.211,16,.014.141-.222.2-.253.055a80.134,80.134,0,0,1-1.539-14.038Z" transform="translate(-80.954 -281.386)" fill="#ffc727"/><path d="M90.952,281.67s7.436,18.872,5.766,23.309a8.506,8.506,0,0,1-5.1,5.383s4.546,6.5,1.373,12.586-10.245,5.807-10.716,12.713C82.283,335.668,81.889,306.782,90.952,281.67Z" transform="translate(-81.613 -281.528)" fill="#3eb29b"/><path d="M83.566,327.651a.143.143,0,0,1,.01-.1,172.754,172.754,0,0,1,7.214-37.971c.01-.035.071-.025.061.014q-2.21,8.278-3.905,16.652a8.216,8.216,0,0,1,3.548-1.976c.026-.01.035.025.014.04a9.411,9.411,0,0,0-3.668,2.447q-.325,1.642-.631,3.284a15.16,15.16,0,0,1,6.27-3.652.028.028,0,0,1,.02.051,15.172,15.172,0,0,0-6.422,4.308q-.847,4.7-1.492,9.425a8.982,8.982,0,0,1,4.435-2.543c.051-.01.081.065.03.081a9.356,9.356,0,0,0-4.5,2.883c-.01.01-.02.014-.026.02q-.222,1.663-.419,3.326a11.406,11.406,0,0,1,3.1-1.877.023.023,0,0,1,.014.044,10.713,10.713,0,0,0-3.112,2.058.132.132,0,0,1-.04.014c-.126,1.059-.247,2.113-.352,3.173a15.145,15.145,0,0,1,6.306-4.505c.051-.02.075.055.026.075a16.426,16.426,0,0,0-6.215,4.782.143.143,0,0,1-.156.05q-.243,2.439-.424,4.879c0,.02-.04.026-.035,0C83.314,330.986,83.43,329.316,83.566,327.651Z" transform="translate(-82.084 -285.437)" fill="#263238"/><path d="M95.7,313.637a9.272,9.272,0,0,1,4.47-1.393.028.028,0,1,1,0,.055,17.72,17.72,0,0,0-4.42,1.441.062.062,0,0,1-.055-.111Z" transform="translate(-88.254 -296.675)" fill="#263238"/><path d="M93.92,353.484a9.4,9.4,0,0,1,3.354-1.145c.04,0,.044.055,0,.065a12.555,12.555,0,0,0-3.32,1.165C93.916,353.586,93.874,353.515,93.92,353.484Z" transform="translate(-87.368 -316.548)" fill="#263238"/></g><g transform="translate(0 23.355)"><path d="M42.123,328.455a50.526,50.526,0,0,1,8.6,7.522,31.03,31.03,0,0,1,6.039,10.235,76.508,76.508,0,0,1,4.5,24.482,59.258,59.258,0,0,1-1.331,13.767.132.132,0,0,1-.257-.051,77.181,77.181,0,0,0-.137-24.068c-1.277-7.809-3.284-16.3-8.25-22.651a62.881,62.881,0,0,0-9.4-8.981C41.718,328.571,41.94,328.329,42.123,328.455Z" transform="translate(-41.636 -328.05)" fill="#ffc727"/><path d="M59.977,364.717A46.1,46.1,0,0,0,53.7,356.7c-3.718-3.718-6.85-6.361-7.335-8.824s3.728-4.273,3.728-4.273-5.146.921-6.558-1.236-2.089-14.675-2.089-14.675,9.363,6.684,13.726,16.058S59.977,364.717,59.977,364.717Z" transform="translate(-41.447 -327.687)" fill="#3eb29b"/><path d="M47.755,334.011c3.94,3.869,7.9,8,10.225,13.084a49.968,49.968,0,0,1,2.068,5.393s0,0,0,.01c.121.368.243.736.351,1.109a.285.285,0,0,1,.02.061,106.309,106.309,0,0,1,2.661,11.563c0,.026-.035.04-.04.01-.4-1.953-.847-3.925-1.347-5.887a.22.22,0,0,1-.055-.01,8.308,8.308,0,0,0-2.458-.625c-.055,0-.051-.1,0-.1a9.234,9.234,0,0,1,2.432.444c-.454-1.774-.948-3.542-1.5-5.281a26.066,26.066,0,0,0-5.554-.726.016.016,0,1,1,0-.03,21.106,21.106,0,0,1,5.463.465c-.1-.3-.2-.6-.3-.893a28.58,28.58,0,0,0-3.7-.625c-.02,0-.02-.04,0-.04a18.186,18.186,0,0,1,3.617.443c-.51-1.508-1.059-2.994-1.663-4.444a27.22,27.22,0,0,0-1.765-3.437,22.3,22.3,0,0,0-2.994-.534c-.03,0-.026-.051,0-.051a8.1,8.1,0,0,1,2.8.277c-.495-.8-1.01-1.573-1.563-2.328h0a15.849,15.849,0,0,0-6.377-.495c-.035,0-.051-.055-.014-.065a13.389,13.389,0,0,1,6.11.175c-.222-.3-.449-.585-.681-.878a13.979,13.979,0,0,0-3.925-.614.023.023,0,0,1,0-.044,10.268,10.268,0,0,1,3.659.323c-1.735-2.159-3.652-4.182-5.544-6.185C47.6,333.971,47.666,333.915,47.755,334.011Z" transform="translate(-44.516 -330.795)" fill="#263238"/><path d="M48.049,350.874a8.517,8.517,0,0,1,1.862-.065c.075.01.071.132,0,.132-.614.02-1.23-.03-1.852,0C48.01,350.955,48,350.879,48.049,350.874Z" transform="translate(-44.704 -339.133)" fill="#263238"/><path d="M61.377,375.03a8.45,8.45,0,0,1,2.883.58c.026.01.01.044-.014.04-.954-.222-1.917-.318-2.883-.479C61.292,375.156,61.3,375.03,61.377,375.03Z" transform="translate(-51.291 -351.146)" fill="#263238"/><path d="M65.388,366.711a6.265,6.265,0,0,1,1.226.111.036.036,0,0,1,0,.071,6.618,6.618,0,0,1-1.226-.054.063.063,0,1,1,0-.126Z" transform="translate(-53.279 -347.024)" fill="#263238"/></g><g transform="translate(18.628 36.833)"><path d="M105.729,354.811a42.6,42.6,0,0,0-8.7,4.1,25.915,25.915,0,0,0-7.249,6.892,64.268,64.268,0,0,0-9.3,18.777,49.934,49.934,0,0,0-2.107,11.446.111.111,0,1,0,.222.02A64.654,64.654,0,0,1,84.26,376.6c2.84-6.023,6.431-12.435,11.911-16.42a52.9,52.9,0,0,1,9.686-5.1C106.031,355,105.9,354.75,105.729,354.811Z" transform="translate(-78.373 -354.6)" fill="#ffc727"/><path d="M86.88,380.078a38.968,38.968,0,0,1,6.931-5.04c3.869-2.151,7.017-3.567,7.976-5.443s-2.028-4.318-2.028-4.318,3.955,1.937,5.59.514,5.079-11.391,5.079-11.391-9.126,3.249-14.821,9.822S86.88,380.078,86.88,380.078Z" transform="translate(-82.588 -354.401)" fill="#3eb29b"/><path d="M87.809,380.17c4.565-8.566,10.655-16.315,19-21.43a42.228,42.228,0,0,0-6.107,4.778,9.682,9.682,0,0,1,4.9,1.035c.035.02.01.061-.026.051a13.485,13.485,0,0,0-5.048-.853.092.092,0,0,1-.055-.02c-.3.283-.59.566-.878.853a15.311,15.311,0,0,1,2.623.348c.026,0,.014.04,0,.035a13.45,13.45,0,0,0-2.772-.222,57.533,57.533,0,0,0-4.3,4.889,4.389,4.389,0,0,1,1.832.132.037.037,0,0,1-.014.071,9.4,9.4,0,0,0-1.957-.026c-.253.318-.5.635-.746.958a17.691,17.691,0,0,1,5.544.54c.026,0,.02.051-.01.04a22.2,22.2,0,0,0-5.69-.368c-.232.307-.454.625-.681.938a11.912,11.912,0,0,1,3.292.378.033.033,0,0,1-.014.065,12.505,12.505,0,0,0-3.411-.267q-1.476,2.028-2.825,4.137a3.063,3.063,0,0,1,1.448.088c.025,0,.02.04-.01.04a6.241,6.241,0,0,0-1.563.075q-1.22,1.9-2.351,3.829a.1.1,0,1,1-.176-.093Z" transform="translate(-83.044 -356.552)" fill="#263238"/><path d="M101.849,387.126a7.163,7.163,0,0,1,2.653.323c.025,0,.02.044,0,.04a20.955,20.955,0,0,0-2.638-.273C101.8,387.216,101.789,387.131,101.849,387.126Z" transform="translate(-89.986 -370.611)" fill="#263238"/><path d="M117.622,366.427a4.51,4.51,0,0,1,1.22.071.037.037,0,1,1-.014.071c-.4-.044-.8-.03-1.2-.04a.051.051,0,0,1,0-.1Z" transform="translate(-97.798 -360.354)" fill="#263238"/></g><g transform="translate(11.15 61.89)"><g transform="translate(0 1.916)"><path d="M63.55,434.9H84.143l-2.936-21.511-.747-5.519H67.238l-.752,5.514Z" transform="translate(-63.55 -407.87)" fill="#455a64"/><path d="M69.37,413.384H84.089l-.746-5.514H70.122Z" transform="translate(-66.434 -407.87)" fill="#263238"/></g><rect width="17.006" height="4.671" transform="translate(18.797 4.671) rotate(180)" fill="#455a64"/></g></g></g><g transform="translate(66.722 45.344)"><g transform="translate(0 0)"><path d="M234.66,49.745a11.207,11.207,0,0,0,17.888,9l5.488,1.4-2.285-5.115a11.209,11.209,0,1,0-21.091-5.286Z" transform="translate(-234.658 -38.434)" fill="#fff"/><path d="M233.89,49.657a11.329,11.329,0,0,0,1.654,5.887,12.76,12.76,0,0,0,.887,1.273,12.517,12.517,0,0,0,1.074,1.12,11.032,11.032,0,0,0,7.007,3.007,9.46,9.46,0,0,0,1.559,0,11.363,11.363,0,0,0,5.811-2.144l-.152.03,5.479,1.441.444.111-.186-.424-2.265-5.12-.01.212a11.33,11.33,0,1,0-21.3-5.4Zm0,0a11.076,11.076,0,0,1,13.9-10.726,10.963,10.963,0,0,1,4.4,2.3,11.514,11.514,0,0,1,2.946,3.981,11.069,11.069,0,0,1,.918,4.853,11.208,11.208,0,0,1-1.292,4.762l-.055.111.051.111,2.305,5.107.257-.3-5.5-1.361-.088-.02-.065.051a11.023,11.023,0,0,1-5.615,2.194,9.1,9.1,0,0,1-1.529.026,10.728,10.728,0,0,1-4.43-1.125,10.345,10.345,0,0,1-2.537-1.725,12.343,12.343,0,0,1-1.074-1.109,12.072,12.072,0,0,1-.893-1.256,11.219,11.219,0,0,1-1.7-5.865Z" transform="translate(-233.888 -38.344)" fill="#263238"/><g transform="translate(7.357 4.655)"><path d="M255.908,55.432v1.235a.908.908,0,0,1-.934.928.929.929,0,0,1-.928-.928V54.692c0-.02.02-.02.02-.04-.02-.02-.02-.02-.02-.04a.96.96,0,0,1,.928-.934,2.129,2.129,0,1,0,0-4.258,2.1,2.1,0,0,0-1.821,1.044.943.943,0,0,1-1.292.343.921.921,0,0,1-.323-1.273,3.992,3.992,0,1,1,4.369,5.9Zm0,4.162v.343a.913.913,0,0,1-.934.934.93.93,0,0,1-.928-.934v-.344a.943.943,0,0,1,.928-.928.915.915,0,0,1,.934.928Z" transform="translate(-251.406 -47.557)" fill="#d4380d"/></g></g></g></g></g></svg>