<svg xmlns="http://www.w3.org/2000/svg" xmlns:xlink="http://www.w3.org/1999/xlink" width="250" height="250" viewBox="0 0 250 250"><defs><clipPath id="b"><rect width="250" height="250"/></clipPath></defs><g id="a" clip-path="url(#b)"><g transform="translate(-65.63 -24.515)" opacity="0.6"><g transform="translate(65.63 70.585)"><g transform="translate(189.932 13.406)"><path d="M596.063,120.874l-3.9,18.906-2.513-2.451-4.275,3.047L582.1,136.32l-7.326,5.326-6.261-10.471-6.984,4.092-2.77-3.818-8.868,5-2.668-5.714,6.216-30.107,33.326,6.881Z" transform="translate(-540.714 -100.624)" fill="#ebebeb"/><path d="M640.878,117.5l9.292,13.368-11.56-2.386Z" transform="translate(-594.821 -110.617)" fill="#dbdbdb"/><path d="M581.873,192.754l-5.723,27.737-44.89-9.267,5.682-27.512,2.668,5.711,8.872-5,2.766,3.818,6.987-4.087,6.257,10.471,7.33-5.326,3.263,4.056,4.279-3.047Z" transform="translate(-531.26 -149.82)" fill="#ebebeb"/></g><g transform="translate(144.907)"><path d="M426.151,113.728,380.4,116.559,376.77,57.838l33.97-2.1L423.21,66.2Z" transform="translate(-376.77 -55.732)" fill="#ebebeb"/><path d="M460.05,55.73l12.469,10.463-11.781.73Z" transform="translate(-426.08 -55.73)" fill="#dbdbdb"/><g transform="translate(15.384 14.069)"><path d="M420.389,115.666l-.176-1.326c-.461-2.745.29-5.817,2.676-9.027,2.149-2.839,3.316-4.907,3.19-7.212-.147-2.61-1.88-4.258-5.107-4.127a9.092,9.092,0,0,0-5.079,1.876L414.484,92.7a13.437,13.437,0,0,1,7.2-2.456c5.882-.33,8.745,3.153,8.966,7.04.2,3.479-1.607,6.094-3.9,9.149-2.1,2.786-2.794,5.082-2.5,7.685l.126,1.326Zm-.726,7.224a3.027,3.027,0,0,1,2.888-3.394,3.208,3.208,0,1,1-2.888,3.394Z" transform="translate(-414.484 -90.221)" fill="#dbdbdb"/></g></g><g transform="translate(18.715 9.137)"><path d="M126.59,125.084l-4.6-2.084-.635,1.411a1.2,1.2,0,0,1-1.048.7,7.3,7.3,0,0,0-.751.073,1.2,1.2,0,0,1-1.164-.481l-.9-1.256-4.112,2.945.9,1.256a1.2,1.2,0,0,1,.081,1.256,6.138,6.138,0,0,0-.31.689,1.191,1.191,0,0,1-1,.767l-1.542.151.5,5.029,1.546-.155a1.209,1.209,0,0,1,1.129.564c.065.106.135.208.208.31s.147.2.224.3a1.2,1.2,0,0,1,.171,1.244l-.644,1.419,4.605,2.088.641-1.411a1.2,1.2,0,0,1,1.048-.7,7.411,7.411,0,0,0,.751-.073,1.2,1.2,0,0,1,1.164.481l.9,1.256,4.112-2.945-.9-1.256a1.2,1.2,0,0,1-.081-1.256,7.356,7.356,0,0,0,.31-.685,1.2,1.2,0,0,1,1-.771l1.542-.151-.5-5.029-1.546.151a1.2,1.2,0,0,1-1.126-.564c-.065-.106-.139-.208-.212-.31s-.147-.2-.224-.3a1.2,1.2,0,0,1-.171-1.248Zm-2.61,4.656a4.142,4.142,0,1,1-5.78-.954,4.142,4.142,0,0,1,5.78.954Z" transform="translate(-111.51 -109.604)" fill="#ebebeb"/><path d="M651.63,291.694l-3.069,1.77.542.938a.846.846,0,0,1-.029.882,5.1,5.1,0,0,0-.265.459.844.844,0,0,1-.746.465H646.98v3.541h1.085a.839.839,0,0,1,.746.465,4.6,4.6,0,0,0,.265.459.837.837,0,0,1,.029.882l-.543.938,3.069,1.77.542-.942a.84.84,0,0,1,.783-.412c.086,0,.176.008.261.008s.176,0,.261-.008a.842.842,0,0,1,.779.408l.547.946,3.069-1.77-.542-.942a.837.837,0,0,1,.032-.882,4.6,4.6,0,0,0,.265-.459.84.84,0,0,1,.746-.465h1.085V296.2h-1.087a.84.84,0,0,1-.746-.465,4.583,4.583,0,0,0-.265-.459.838.838,0,0,1-.032-.882l.542-.942-3.069-1.77-.542.942a.838.838,0,0,1-.779.412c-.086,0-.176-.008-.261-.008s-.176,0-.261.008a.844.844,0,0,1-.783-.412Zm1.587,3.386a2.9,2.9,0,1,1-2.9,2.9,2.9,2.9,0,0,1,2.9-2.9Z" transform="translate(-439.028 -195.414)" fill="#ebebeb"/><path d="M165.451,90.566l-2.814,2.149.661.861a.839.839,0,0,1,.086.882,5.146,5.146,0,0,0-.2.49.847.847,0,0,1-.681.559l-1.077.139.459,3.512,1.077-.139a.841.841,0,0,1,.8.367c.1.147.208.286.322.42a.841.841,0,0,1,.141.873l-.416,1,3.271,1.358.416-1a.847.847,0,0,1,.722-.51c.086-.008.171-.016.261-.029s.171-.024.257-.041a.835.835,0,0,1,.824.306l.665.869,2.814-2.149-.661-.865a.847.847,0,0,1-.081-.882c.078-.159.141-.322.2-.485a.847.847,0,0,1,.681-.559l1.077-.139-.459-3.512-1.077.139a.847.847,0,0,1-.8-.363,4.585,4.585,0,0,0-.322-.42.841.841,0,0,1-.141-.873l.416-1L168.6,90.158l-.417,1a.851.851,0,0,1-.718.51c-.086.008-.176.016-.261.029s-.171.024-.257.041a.842.842,0,0,1-.828-.306Zm2.011,3.153a2.9,2.9,0,1,1-2.5,3.247,2.9,2.9,0,0,1,2.5-3.247Z" transform="translate(-141.062 -90.158)" fill="#ebebeb"/></g><g transform="translate(0 52.287)"><g transform="translate(9.349 0)"><path d="M108.6,245.235a111.333,111.333,0,0,0-.163-11.842,150.67,150.67,0,0,0-3.712-24.126c-1.036-4.467-2.309-8.855-3.633-13.24-.041-.13-.253-.094-.216.045,4.1,15.459,7.473,31.408,7.24,47.48-.065,4.5-.587,8.913-1.012,13.383-.012.118.183.167.212.045A67.3,67.3,0,0,0,108.6,245.235Z" transform="translate(-95.847 -195.946)" fill="#ebebeb"/><path d="M93.579,196.24s-6.221,15.786-4.826,19.494a7.138,7.138,0,0,0,4.263,4.5s-3.806,5.432-1.146,10.528,8.566,4.854,8.959,10.63C100.832,241.4,101.16,217.243,93.579,196.24Z" transform="translate(-88.55 -196.12)" fill="#ebebeb"/><path d="M106.128,236.252a.116.116,0,0,0-.008-.081,144.576,144.576,0,0,0-6.032-31.755c-.008-.029-.061-.02-.053.012q1.848,6.926,3.267,13.926a6.878,6.878,0,0,0-2.97-1.658c-.02-.008-.033.024-.012.033a7.846,7.846,0,0,1,3.063,2.048c.183.914.359,1.831.529,2.745a12.675,12.675,0,0,0-5.246-3.055c-.029-.012-.041.033-.016.041a12.683,12.683,0,0,1,5.372,3.6q.71,3.928,1.248,7.885a7.519,7.519,0,0,0-3.708-2.125c-.045-.012-.071.053-.024.065a7.818,7.818,0,0,1,3.761,2.411.087.087,0,0,0,.024.016c.126.926.241,1.856.351,2.786a9.534,9.534,0,0,0-2.6-1.566c-.024-.012-.041.029-.012.041a8.95,8.95,0,0,1,2.6,1.721.109.109,0,0,0,.033.012c.1.885.208,1.77.3,2.655a12.651,12.651,0,0,0-5.274-3.765c-.041-.016-.061.045-.024.065a13.739,13.739,0,0,1,5.2,4,.114.114,0,0,0,.131.041q.2,2.037.355,4.083a.016.016,0,1,0,.033,0Q106.3,238.345,106.128,236.252Z" transform="translate(-94.523 -200.95)" fill="#fff"/><path d="M99.29,229.016a7.785,7.785,0,0,0-3.736-1.167c-.033,0-.033.045,0,.049a14.915,14.915,0,0,1,3.7,1.207C99.3,229.126,99.335,229.049,99.29,229.016Z" transform="translate(-92.682 -214.836)" fill="#fff"/><path d="M102.489,270.288a7.775,7.775,0,0,0-2.806-.959c-.033,0-.035.049,0,.053a10.488,10.488,0,0,1,2.774.975C102.494,270.374,102.526,270.309,102.489,270.288Z" transform="translate(-95.127 -239.396)" fill="#fff"/></g><g transform="translate(22.432 19.54)"><path d="M136.644,244.626a42.324,42.324,0,0,0-7.2,6.294,25.857,25.857,0,0,0-5.05,8.562,64.011,64.011,0,0,0-3.761,20.477,49.634,49.634,0,0,0,1.11,11.515.11.11,0,1,0,.216-.041,64.42,64.42,0,0,1,.114-20.126c1.069-6.531,2.745-13.636,6.9-18.943a52.465,52.465,0,0,1,7.866-7.513C136.981,244.72,136.794,244.52,136.644,244.626Z" transform="translate(-120.623 -244.292)" fill="#ebebeb"/><path d="M122.9,274.81a38.76,38.76,0,0,1,5.246-6.706c3.112-3.108,5.731-5.319,6.135-7.379s-3.116-3.573-3.116-3.573,4.3.771,5.482-1.032,1.746-12.27,1.746-12.27-7.83,5.592-11.482,13.432S122.9,274.81,122.9,274.81Z" transform="translate(-121.972 -243.85)" fill="#ebebeb"/><path d="M135.638,250.363c-3.3,3.239-6.612,6.685-8.554,10.94a41.684,41.684,0,0,0-1.728,4.511s0,0,0,.008c-.1.31-.2.616-.3.93a.116.116,0,0,0-.016.049,89.158,89.158,0,0,0-2.222,9.667c0,.02.029.033.033.012.339-1.632.71-3.28,1.126-4.923a.173.173,0,0,0,.045-.008,6.778,6.778,0,0,1,2.056-.522c.045,0,.045-.086,0-.081a7.629,7.629,0,0,0-2.031.371c.38-1.481.791-2.963,1.256-4.417a21.781,21.781,0,0,1,4.646-.608c.016,0,.02-.024,0-.024a17.53,17.53,0,0,0-4.568.388c.081-.249.163-.5.249-.746a23.3,23.3,0,0,1,3.092-.522c.02,0,.016-.032,0-.032a15.087,15.087,0,0,0-3.027.367c.423-1.26.885-2.5,1.4-3.716a22.438,22.438,0,0,1,1.481-2.871,19.224,19.224,0,0,1,2.509-.449.021.021,0,1,0,0-.041,6.8,6.8,0,0,0-2.346.232c.412-.665.844-1.317,1.309-1.95h0a13.241,13.241,0,0,1,5.331-.412.027.027,0,0,0,.012-.053,11.219,11.219,0,0,0-5.111.147c.188-.249.375-.49.567-.734a11.6,11.6,0,0,1,3.283-.514.018.018,0,0,0,0-.035,8.5,8.5,0,0,0-3.059.273c1.452-1.8,3.055-3.5,4.642-5.176C135.772,250.33,135.715,250.285,135.638,250.363Z" transform="translate(-121.921 -247.683)" fill="#fff"/><path d="M151.7,267.805a7.112,7.112,0,0,0-1.558-.053c-.061.008-.057.11,0,.11.514.016,1.032-.024,1.546,0C151.741,267.867,151.745,267.81,151.7,267.805Z" transform="translate(-138.077 -257.991)" fill="#fff"/><path d="M136.689,292.8a7.116,7.116,0,0,0-2.415.485c-.02.008-.008.041.012.032.8-.192,1.6-.265,2.411-.4a.06.06,0,0,0-.008-.118Z" transform="translate(-128.7 -272.833)" fill="#fff"/><path d="M134.551,284.2a5.06,5.06,0,0,0-1.023.094c-.033,0-.033.061,0,.061a5.1,5.1,0,0,0,1.028-.049.054.054,0,0,0-.009-.106Z" transform="translate(-128.25 -267.741)" fill="#fff"/></g><g transform="translate(0 30.803)"><path d="M66.359,271.879a35.748,35.748,0,0,1,7.281,3.426,21.814,21.814,0,0,1,6.067,5.76,53.825,53.825,0,0,1,7.775,15.7,42.013,42.013,0,0,1,1.766,9.574.092.092,0,0,1-.183.016,54.465,54.465,0,0,0-4.744-16.263c-2.374-5.038-5.376-10.4-9.961-13.734a44.1,44.1,0,0,0-8.1-4.263C66.11,272.038,66.212,271.83,66.359,271.879Z" transform="translate(-65.959 -271.704)" fill="#ebebeb"/><path d="M85.323,292.932a32.514,32.514,0,0,0-5.8-4.214c-3.235-1.8-5.87-2.982-6.669-4.552s1.7-3.61,1.7-3.61-3.3,1.619-4.675.432-4.25-9.528-4.25-9.528,7.632,2.716,12.4,8.215S85.323,292.932,85.323,292.932Z" transform="translate(-65.63 -271.46)" fill="#ebebeb"/><path d="M89.859,293.873c-3.819-7.163-8.909-13.644-15.888-17.923,0,0-.008,0,0,0a35.186,35.186,0,0,1,5.107,4,8.111,8.111,0,0,0-4.1.865.025.025,0,0,0,.02.045,11.218,11.218,0,0,1,4.222-.714.1.1,0,0,0,.049-.016c.249.237.494.473.734.714a13.147,13.147,0,0,0-2.19.29.014.014,0,0,0,0,.029,11.324,11.324,0,0,1,2.317-.192,46.949,46.949,0,0,1,3.6,4.087,3.671,3.671,0,0,0-1.534.11.029.029,0,1,0,.012.057,8.436,8.436,0,0,1,1.636-.024c.208.265.42.529.624.8a14.876,14.876,0,0,0-4.63.448.018.018,0,1,0,.008.035,18.608,18.608,0,0,1,4.756-.31c.2.257.379.522.571.783a10.153,10.153,0,0,0-2.758.314.029.029,0,0,0,.012.057,10.642,10.642,0,0,1,2.857-.224c.82,1.129,1.607,2.288,2.363,3.459a2.6,2.6,0,0,0-1.212.073.017.017,0,1,0,.008.032,5.209,5.209,0,0,1,1.309.061q1.023,1.585,1.966,3.2C89.765,294.036,89.912,293.967,89.859,293.873Z" transform="translate(-70.565 -274.119)" fill="#fff"/><path d="M95.14,305.3a5.931,5.931,0,0,0-2.219.269.017.017,0,1,0,.008.033,16.645,16.645,0,0,1,2.2-.224.039.039,0,0,0,.008-.078Z" transform="translate(-81.781 -291.49)" fill="#fff"/><path d="M80.539,283.9a3.752,3.752,0,0,0-1.023.061.031.031,0,1,0,.012.061c.334-.035.67-.024,1-.032C80.588,283.99,80.6,283.909,80.539,283.9Z" transform="translate(-73.837 -278.822)" fill="#fff"/></g><g transform="translate(12.311 51.761)"><g transform="translate(0 1.599)"><path d="M113.036,349.366H95.81l2.456-17.993.628-4.613h11.057l.628,4.613Z" transform="translate(-95.81 -326.76)" fill="#dbdbdb"/><path d="M114.145,331.373H101.83l.628-4.613h11.058Z" transform="translate(-99.374 -326.76)" fill="#c7c7c7"/></g><rect width="14.22" height="3.908" transform="translate(1.501)" fill="#dbdbdb"/></g></g></g><g transform="translate(66.988 198.635)"><g transform="translate(0 0)"><path d="M68.96,381.884l31-.1,31-.035,62.008-.07,62.008.07,31,.035,31,.1-31,.1-31,.033-62.008.07-62.008-.07-31-.035Z" transform="translate(-68.96 -381.68)" fill="#263238"/></g></g><g transform="translate(74.861 203.607)"><g transform="translate(0 0)"><ellipse cx="116.962" cy="12.816" rx="116.962" ry="12.816" fill="#ebebeb"/></g></g><g transform="translate(84.728 78.223)"><g transform="translate(0 0)"><g transform="translate(0 34.47)"><g transform="translate(20.75 7.428)"><g transform="translate(26.767 67.071)"><path d="M261.292,380.738c-.951.322-28.2.416-29.247-.237-.4-.245-.641-4.214-.8-9.019-.035-1.036-.065-2.109-.09-3.2l-2.211-14.538,18.217-.118,1.721,14.538-.071,3.2s10.45,4.63,11.515,5.47S262.242,380.416,261.292,380.738Z" transform="translate(-228.941 -353.629)" fill="#eb9481"/><path d="M264.506,401.854c-.951.322-28.2.416-29.247-.237-.481-.3-.741-6.1-.889-12.213l17.727-.114-.071,3.2s10.45,4.63,11.515,5.47S265.455,401.533,264.506,401.854Z" transform="translate(-232.155 -374.744)" fill="#fff"/><g transform="translate(2.3 12.99)"><path d="M264.63,406.49c-.95.322-28.2.416-29.247-.237-.4-.245-.641-4.214-.8-9.019l17.573-.114s10.45,4.63,11.515,5.47S265.581,406.167,264.63,406.49Z" transform="translate(-234.58 -392.369)" fill="#a6a6a6"/><g transform="translate(1.746 0)"><g transform="translate(0 5.203)"><path d="M267.281,417.35c-4.568-.1-23.006-.053-27.53.2-.035,0-.035.029,0,.029,4.528.2,22.962,0,27.53-.155C267.379,417.419,267.379,417.35,267.281,417.35Z" transform="translate(-239.373 -409.522)" fill="#263238"/><path d="M296.161,408.149a3.659,3.659,0,0,0-2.729,1.126,3.542,3.542,0,0,0-1.012,2.443c0,.029.053.029.057,0a4.241,4.241,0,0,1,3.687-3.512.029.029,0,0,0,0-.057Z" transform="translate(-270.573 -404.102)" fill="#263238"/><path d="M274.619,398.229a6.366,6.366,0,0,0-5.079,2.133c-.045.057.041.118.094.09a25.388,25.388,0,0,1,5.017-2,.115.115,0,0,0-.032-.224Z" transform="translate(-257.018 -398.229)" fill="#263238"/><path d="M278.089,399.559a6.367,6.367,0,0,0-5.079,2.133c-.045.057.041.118.094.09a25.389,25.389,0,0,1,5.017-2,.115.115,0,0,0-.032-.224Z" transform="translate(-259.073 -399.016)" fill="#263238"/><path d="M281.549,400.9a6.367,6.367,0,0,0-5.079,2.133c-.045.057.041.118.094.09a25.386,25.386,0,0,1,5.017-2,.115.115,0,0,0-.032-.224Z" transform="translate(-261.122 -399.809)" fill="#263238"/><path d="M285.019,402.239a6.366,6.366,0,0,0-5.079,2.133c-.045.057.041.118.094.09a25.292,25.292,0,0,1,5.017-2,.115.115,0,0,0-.032-.224Z" transform="translate(-263.176 -400.603)" fill="#263238"/><path d="M240.392,407.26a1.6,1.6,0,0,0,.02,3.19A1.6,1.6,0,0,0,240.392,407.26Z" transform="translate(-238.862 -403.576)" fill="#263238"/></g><path d="M280.563,385.79c-.93-.763-2.093-.008-2.66.787a9.537,9.537,0,0,0-1.644,4.683c0,.041.029.053.057.053a.225.225,0,0,0,.331.147,16.027,16.027,0,0,0,3.781-2.99C281,387.724,281.444,386.512,280.563,385.79Zm-2.227,3.89c-.628.461-1.273.889-1.885,1.371a27.8,27.8,0,0,1,1.02-2.712,9.995,9.995,0,0,1,.665-1.234c.4-.6,2.187-2.141,2.374-.151C280.612,388.05,279.082,389.135,278.335,389.68Z" transform="translate(-261.004 -385.474)" fill="#263238"/><path d="M262.274,396.76a15.893,15.893,0,0,0,4.8-.469.221.221,0,0,0,.135-.334.048.048,0,0,0,0-.078,9.634,9.634,0,0,0-4.43-2.235c-.963-.183-2.325.081-2.464,1.277C260.185,396.05,261.344,396.621,262.274,396.76Zm-1.11-1.036c-1.244-1.562,1.11-1.7,1.815-1.538a10.177,10.177,0,0,1,1.334.432c.91.347,1.75.816,2.619,1.248-.776.073-1.538.216-2.309.318C263.7,396.307,261.85,396.584,261.164,395.724Z" transform="translate(-251.559 -390.28)" fill="#263238"/></g></g></g><path d="M163.32,189.2s21.156,35.993,21.725,38.522c.869,3.883,5.486,42.23,5.486,42.23l22.014-.4s-3.793-33.811-7.387-44.951c-2.59-8.023-21.26-34.635-21.26-34.635Z" transform="translate(-163.32 -189.2)" fill="#37474f"/><g transform="translate(3.535 3.281)"><path d="M252.1,377.874c-3.161-.024-14.366-.151-18.572.245a.031.031,0,0,0,0,.061c1.448.208,15.414-.114,18.572-.216a.045.045,0,0,0,0-.09Z" transform="translate(-208.409 -304.172)" fill="#263238"/><path d="M172.062,197.265c1.387,2.174,2.851,4.3,4.268,6.461s2.831,4.316,4.226,6.49q4.179,6.51,8.166,13.139a40.4,40.4,0,0,1,3.3,6.416,39.37,39.37,0,0,1,1.856,6.91c.432,2.363.714,4.748.983,7.134q.428,3.812.853,7.619.869,7.8,1.742,15.59c.071.635.141,1.277.2,1.913.008.094-.159.11-.171.016-.649-5.164-1.187-10.34-1.775-15.513q-.441-3.861-.877-7.722c-.273-2.394-.529-4.789-.9-7.171a47.5,47.5,0,0,0-1.55-6.93,33.43,33.43,0,0,0-3.043-6.734c-2.549-4.4-5.25-8.725-7.95-13.041-2.725-4.352-5.47-8.688-8.321-12.963-.351-.526-.705-1.053-1.073-1.57a.04.04,0,1,1,.064-.044Z" transform="translate(-171.986 -197.242)" fill="#263238"/></g></g><g transform="translate(0 0)"><g transform="translate(0 68.557)"><path d="M140.134,374.233c-1-.061-26.922-10.56-27.643-11.556a.381.381,0,0,1-.041-.192c0-.889,1.8-4.01,3.3-8.105.094-.261.763-1.476,1.693-3.116,2.553-4.5,7.069-12.2,7.069-12.2l16.94,6.73-8.109,12.139-1.26,2.937s7.95,8.215,8.623,9.394S141.133,374.29,140.134,374.233Z" transform="translate(-112.449 -339.06)" fill="#eb9481"/><path d="M140.134,391.949c-1-.061-26.922-10.56-27.643-11.556a.381.381,0,0,1-.041-.192c0-.889,1.8-4.01,3.3-8.105.094-.261.763-1.477,1.693-3.116l15.9,6.661-1.26,2.937s7.95,8.215,8.623,9.394S141.133,392.006,140.134,391.949Z" transform="translate(-112.449 -356.776)" fill="#fff"/><g transform="translate(0.006 15.324)"><path d="M140.142,396.476c-1-.057-26.918-10.56-27.64-11.556-.273-.375.885-3.915,3.259-8.293l16.329,6.485s7.95,8.211,8.623,9.39S141.142,396.534,140.142,396.476Z" transform="translate(-112.463 -376.627)" fill="#a6a6a6"/><g transform="translate(2.096 3.011)"><g transform="translate(0 1.819)"><path d="M143.225,407.726c-4.2-1.8-21.3-8.68-25.592-10.14-.035-.012-.045.012-.012.029,4.124,1.876,21.284,8.615,25.575,10.185C143.29,407.828,143.314,407.763,143.225,407.726Z" transform="translate(-117.601 -393.865)" fill="#263238"/><path d="M171.638,411.284a3.668,3.668,0,0,0-2.953.021,3.541,3.541,0,0,0-1.856,1.885c-.008.024.035.045.053.021a4.246,4.246,0,0,1,4.736-1.872.029.029,0,0,0,.021-.053Z" transform="translate(-146.747 -401.799)" fill="#263238"/><path d="M156.157,394.322a6.356,6.356,0,0,0-5.507.073c-.061.035-.008.127.053.118a25.43,25.43,0,0,1,5.4.029.115.115,0,0,0,.053-.22Z" transform="translate(-137.153 -391.584)" fill="#263238"/><path d="M158.867,396.862a6.356,6.356,0,0,0-5.507.073c-.061.035-.008.126.053.118a25.432,25.432,0,0,1,5.4.029.115.115,0,0,0,.053-.22Z" transform="translate(-138.758 -393.088)" fill="#263238"/><path d="M161.587,399.4a6.369,6.369,0,0,0-5.507.073c-.061.035-.008.127.053.118a25.43,25.43,0,0,1,5.4.029.115.115,0,0,0,.053-.22Z" transform="translate(-140.368 -394.594)" fill="#263238"/><path d="M164.3,401.942a6.356,6.356,0,0,0-5.507.073c-.061.035-.008.126.053.118a25.432,25.432,0,0,1,5.4.029.115.115,0,0,0,.053-.22Z" transform="translate(-141.973 -396.096)" fill="#263238"/><path d="M121.157,388.591a1.6,1.6,0,0,0-1.179,2.963A1.6,1.6,0,0,0,121.157,388.591Z" transform="translate(-118.433 -388.468)" fill="#263238"/></g><path d="M164.359,384.823c-.575-1.058-1.934-.8-2.761-.265a9.566,9.566,0,0,0-3.28,3.724.047.047,0,0,0,.032.071c-.012.135.09.3.249.261a16.019,16.019,0,0,0,4.626-1.35C164.037,386.781,164.9,385.822,164.359,384.823Zm-3.527,2.77c-.754.192-1.513.347-2.264.564a27.74,27.74,0,0,1,1.966-2.133,10.731,10.731,0,0,1,1.077-.9c.592-.412,2.827-1.164,2.257.751-.313,1.059-2.136,1.487-3.038,1.716Z" transform="translate(-141.705 -384.059)" fill="#263238"/><path d="M145.486,387.166a16.033,16.033,0,0,0,4.621,1.366.225.225,0,0,0,.253-.257.047.047,0,0,0,.033-.071,9.565,9.565,0,0,0-3.271-3.732c-.824-.529-2.187-.8-2.761.257C143.813,385.726,144.674,386.689,145.486,387.166Zm-.635-1.379c-.567-1.917,1.668-1.158,2.26-.741a10.241,10.241,0,0,1,1.077.9,28.536,28.536,0,0,1,1.958,2.137c-.746-.22-1.505-.375-2.26-.571-.9-.234-2.726-.671-3.036-1.727Z" transform="translate(-133.342 -384.008)" fill="#263238"/></g></g></g><g transform="translate(3.239)"><path d="M139.353,257.738l-18.963-7.657s23.512-34.567,23.683-37.14c.155-2.28-10.173-22.112-10.582-27.892a17.254,17.254,0,0,1,5.866-14.061L158.92,179.3a17.006,17.006,0,0,1-5.315,5.139s10.03,22.924,9.464,29.973C162.494,221.5,139.353,257.738,139.353,257.738Z" transform="translate(-120.39 -170.989)" fill="#37474f"/><g transform="translate(3.513 1.673)"><path d="M145.293,365.274c-2.741-1.179-1.937-.882-4.7-2.027-1.35-.564-10.21-4.246-11.56-4.548-.029-.008-.049.041-.024.057,1.179.722,10.1,4.25,11.466,4.789,2.778,1.093,1.99.751,4.781,1.815C145.314,365.372,145.346,365.294,145.293,365.274Z" transform="translate(-129.003 -283.804)" fill="#263238"/><g transform="translate(26.917 6.86)"><path d="M200.995,202.932a36.566,36.566,0,0,0-5.961,1.934.063.063,0,1,0,.041.118c2-.583,4.034-1.129,6-1.819a.122.122,0,0,0-.076-.232Z" transform="translate(-194.992 -198.433)" fill="#263238"/><path d="M202.919,200.828a8.824,8.824,0,0,0-.5,1.048,2.412,2.412,0,0,0-.257.877c0,.057.078.073.114.035a3.081,3.081,0,0,0,.49-.828c.167-.322.339-.644.5-.971C203.367,200.774,203.037,200.619,202.919,200.828Z" transform="translate(-199.237 -197.132)" fill="#263238"/><path d="M203.708,193.766c.118-.3.241-.6.367-.9s.282-.612.392-.93c.016-.049.1-.016.078.033-.118.3-.2.624-.294.934s-.2.62-.3.93a18.167,18.167,0,0,1-.673,1.7,2.1,2.1,0,0,0,.938-.163,1.709,1.709,0,0,0,.661-.8c.171-.339.331-.681.51-1.016a7.413,7.413,0,0,0,.542-1.134c.016-.049.094-.016.078.033a12.857,12.857,0,0,1-1.044,2.411c-.18.3-.326.612-.657.726a2.716,2.716,0,0,1-1.118.073c-.045.012-.106-.016-.09-.073C203.276,194.986,203.471,194.362,203.708,193.766Z" transform="translate(-199.789 -191.91)" fill="#263238"/></g><path d="M202.457,205.767c.693,1.473,1.305,2.941,1.958,4.409.635,1.436,1.228,2.888,1.807,4.344,1.166,2.949,2.211,5.951,3.129,8.986.453,1.5.873,3.014,1.248,4.536a33.153,33.153,0,0,1,.905,4.638,12.253,12.253,0,0,1-.392,4.65,27.2,27.2,0,0,1-1.726,4.336c-.423.882-.571.763-.367.317a21.257,21.257,0,0,0,2-8.313,23.986,23.986,0,0,0-.722-4.593q-.539-2.313-1.2-4.589c-.869-2.994-1.9-5.926-2.963-8.855-.6-1.64-1.232-3.263-1.834-4.9s-1.235-3.133-1.909-4.936C202.368,205.751,202.437,205.722,202.457,205.767Z" transform="translate(-172.453 -193.241)" fill="#263238"/><path d="M167.172,187.934c.339-.127.811.081,1.158.139a10.608,10.608,0,0,0,1.34.135,10.422,10.422,0,0,0,1.334-.045,2.837,2.837,0,0,0,1.277-.339,6.388,6.388,0,0,0,1.627-1.728,9.876,9.876,0,0,0,1.27-2.227c.016-.049.086-.016.073.033-.141.453-.249.914-.432,1.358a9.092,9.092,0,0,1-.624,1.2,5.172,5.172,0,0,1-1.689,1.917,4.92,4.92,0,0,1-2.681.371,10.481,10.481,0,0,1-1.509-.2c-.359-.078-.963-.135-1.191-.449a.109.109,0,0,1,.046-.169Z" transform="translate(-151.562 -180.274)" fill="#263238"/><path d="M133.642,248.9q4.675-7.073,9.178-14.26t8.884-14.5a20.24,20.24,0,0,0,1.95-3.614,6.273,6.273,0,0,0-.232-4.127,69.139,69.139,0,0,0-2.912-7.358c-1.093-2.411-2.272-4.781-3.431-7.16a68.664,68.664,0,0,1-3.243-7.208,12.319,12.319,0,0,1-.51-7.281,21.194,21.194,0,0,1,3.434-6.669c.379-.539.763-1.073,1.142-1.611.029-.041.09.008.061.049a28.452,28.452,0,0,0-4.042,6.885,11.911,11.911,0,0,0-.783,3.855,12.477,12.477,0,0,0,.616,3.944,51.836,51.836,0,0,0,3.108,7.16c1.154,2.382,2.337,4.748,3.451,7.151a76.54,76.54,0,0,1,3.027,7.391,10.3,10.3,0,0,1,.783,3.5,7.615,7.615,0,0,1-1.309,3.614c-2.835,4.838-5.78,9.61-8.758,14.358q-4.485,7.146-9.141,14.191l-1.175,1.775C133.7,249.056,133.593,248.97,133.642,248.9Z" transform="translate(-131.742 -175.091)" fill="#263238"/></g></g></g></g><g transform="translate(20.01)"><g transform="translate(21.656 17.351)"><path d="M216.807,132.987c1.766,3.875,10.683,9.214,14.86,9.79a87.4,87.4,0,0,0,15.26.078c3.668-.559.865-10.455-1.3-10.2-5.955.7-11.013,1.473-12.6,1.473-1.94,0-12.445-3.373-13.714-3.846C216.214,129.115,215.807,130.788,216.807,132.987Z" transform="translate(-215.618 -129.54)" fill="#eb9481"/><g transform="translate(0 0)"><g transform="translate(0 0.002)"><path d="M215.842,133.493c2.235,3.308,9.667,8.717,9.667,8.717l1.032-2.284,3.414-7.55s-6.824-2.154-11.315-3.112a9.841,9.841,0,0,0-1.607-.229C214.162,128.875,213.913,130.65,215.842,133.493Z" transform="translate(-214.597 -129.025)" fill="#ffc727"/></g><path d="M215.842,133.493c2.235,3.308,9.667,8.717,9.667,8.717l1.032-2.284c-2.77-3.218-7.048-8.093-9.508-10.9C214.162,128.872,213.913,130.648,215.842,133.493Z" transform="translate(-214.597 -129.02)" fill="#263238"/><path d="M238.056,145.68c.567-1.387,3.088-6.987,3.716-8.162.045-.081.106-.073.071.016a82.966,82.966,0,0,1-3.732,8.166C238.1,145.729,238.039,145.713,238.056,145.68Z" transform="translate(-228.485 -134.018)" fill="#263238"/></g><g transform="translate(28.918 2.586)"><path d="M285.49,135.993c3.626-.477,8.109-1.289,11.9.322a2.026,2.026,0,0,1,1.016.873c1.713.693,1.9,1.709,1.9,1.709a3.392,3.392,0,0,1,1.448,2.2s2,.836,1.7,2.129c-.334,1.452-3.084,0-5.087.118-4.585.282-11.026,1.966-12.339,2.182Z" transform="translate(-285.49 -135.361)" fill="#eb9481"/><path d="M304.709,146.962a20.609,20.609,0,0,1,8.354.856.037.037,0,1,0,.02-.071,15.619,15.619,0,0,0-8.378-.848C304.643,146.914,304.643,146.967,304.709,146.962Z" transform="translate(-296.84 -142.056)" fill="#263238"/><path d="M303.285,140.5a21.731,21.731,0,0,1,7.509,1.415c.012,0,.024-.016.012-.02a14,14,0,0,0-7.518-1.456C303.2,140.446,303.2,140.5,303.285,140.5Z" transform="translate(-295.989 -138.337)" fill="#263238"/><path d="M302.593,136.928a21.926,21.926,0,0,1,5.89,1.15.013.013,0,0,0,.008-.024,13.079,13.079,0,0,0-5.906-1.2C302.5,136.846,302.507,136.924,302.593,136.928Z" transform="translate(-295.577 -136.243)" fill="#263238"/><path d="M293.654,156.64c-.583.273-.445.579.673.84s5.743.334,5.58,1.946-6.694,1.411-8.517.84a30.7,30.7,0,0,1-4.573-2.138C288.1,157.913,291.149,157.093,293.654,156.64Z" transform="translate(-286.276 -147.96)" fill="#eb9481"/></g></g><g transform="translate(0 15.934)"><path d="M227.42,152.576c-.029.7-.1,1.407-.2,2.109.008-.024.02-.049.029-.073.135-.367.269-.741.432-1.1.008-.02.041-.012.035.008a6.193,6.193,0,0,1-.355,1.134c-.071.176-.141.347-.216.518q-.073.471-.171.93c-.122.583-.673,3.063-.8,3.483-.024.09-.131.071-.127-.029.029-.459.494-3.043.587-3.626a32.73,32.73,0,0,1,.726-3.365C227.383,152.539,227.424,152.555,227.42,152.576Z" transform="translate(-199.725 -141.536)" fill="#263238"/><g transform="translate(0 0)"><path d="M184.95,155.133c-1.089.564-2.492,1.432-8.815.183-.4-.081-.792-.176-1.191-.3-5.926-1.783-13.041-8.753-13.439-9.243,0,0,9.414-15.268,21.46-20.07,1.489-.592,3.953.551,5.319,1.975.485.51,1.546,4.255,1.138,7.289S186.043,154.574,184.95,155.133Z" transform="translate(-161.505 -125.546)" fill="#ffc727"/><g transform="translate(3.245 1.968)"><g transform="translate(19.079 7.321)"><path d="M216.514,148.32a4.631,4.631,0,0,1-.265,1.9,4.025,4.025,0,0,1,.033-.967A3.808,3.808,0,0,1,216.514,148.32Z" transform="translate(-216.233 -148.32)" fill="#fff"/></g><g transform="translate(14.971 17.719)"><path d="M206.444,173.81a4.631,4.631,0,0,1-.265,1.9,4.028,4.028,0,0,1,.033-.967,4.21,4.21,0,0,1,.232-.938Z" transform="translate(-206.163 -173.81)" fill="#fff"/></g><g transform="translate(7.996 9.859)"><path d="M189.34,154.54a4.631,4.631,0,0,1-.265,1.9,4.631,4.631,0,0,1,.265-1.9Z" transform="translate(-189.063 -154.54)" fill="#fff"/></g><g transform="translate(21.767 17.188)"><path d="M223.1,172.51a4.63,4.63,0,0,1-.265,1.9,4.027,4.027,0,0,1,.032-.967A4.211,4.211,0,0,1,223.1,172.51Z" transform="translate(-222.823 -172.51)" fill="#fff"/></g><g transform="translate(13.086 8.501)"><path d="M201.54,151.225a4.631,4.631,0,0,1,1.9.265,4.027,4.027,0,0,1-.967-.033,4.208,4.208,0,0,1-.938-.232Z" transform="translate(-201.54 -151.213)" fill="#fff"/></g><g transform="translate(5.164 16.01)"><path d="M182.12,169.635a4.63,4.63,0,0,1,1.9.265A4.631,4.631,0,0,1,182.12,169.635Z" transform="translate(-182.12 -169.623)" fill="#fff"/></g><g transform="translate(14.481 24.14)"><path d="M204.96,189.565a4.631,4.631,0,0,1,1.9.265,4.028,4.028,0,0,1-.967-.032,3.807,3.807,0,0,1-.938-.233Z" transform="translate(-204.96 -189.553)" fill="#fff"/></g><g transform="translate(2.721 21.187)"><path d="M176.13,182.325a4.631,4.631,0,0,1,1.9.265A4.631,4.631,0,0,1,176.13,182.325Z" transform="translate(-176.13 -182.313)" fill="#fff"/></g><g transform="translate(19.298 0)"><path d="M216.77,130.385a4.63,4.63,0,0,1,1.9.265,4.631,4.631,0,0,1-1.9-.265Z" transform="translate(-216.77 -130.373)" fill="#fff"/></g><g transform="translate(15.459 2.614)"><path d="M208.894,136.78a4.149,4.149,0,0,1-.705.661,4.021,4.021,0,0,1-.828.5,4.148,4.148,0,0,1,.705-.661A4.461,4.461,0,0,1,208.894,136.78Z" transform="translate(-207.36 -136.78)" fill="#fff"/></g><g transform="translate(2.9 10.009)"><path d="M178.1,154.91a4.149,4.149,0,0,1-.705.661,4.021,4.021,0,0,1-.828.5,4.151,4.151,0,0,1,.705-.661,3.951,3.951,0,0,1,.828-.5Z" transform="translate(-176.57 -154.91)" fill="#fff"/></g><g transform="translate(18.584 13.346)"><path d="M216.554,163.09a4.15,4.15,0,0,1-.705.661,4.019,4.019,0,0,1-.828.5,4.15,4.15,0,0,1,.705-.661,4.209,4.209,0,0,1,.828-.5Z" transform="translate(-215.02 -163.09)" fill="#fff"/></g><g transform="translate(8.427 19.742)"><path d="M191.654,178.77a4.147,4.147,0,0,1-.705.661,4.02,4.02,0,0,1-.828.5,4.151,4.151,0,0,1,.705-.661,4.209,4.209,0,0,1,.828-.5Z" transform="translate(-190.12 -178.77)" fill="#fff"/></g><g transform="translate(22.475 4.609)"><path d="M226.094,141.67a4.148,4.148,0,0,1-.705.661,4.023,4.023,0,0,1-.828.5,4.148,4.148,0,0,1,.705-.661,4.02,4.02,0,0,1,.828-.5Z" transform="translate(-224.56 -141.67)" fill="#fff"/></g><g transform="translate(22.639 10.486)"><path d="M226.118,157.614a4.15,4.15,0,0,1-.661-.705,4.02,4.02,0,0,1-.5-.828,4.149,4.149,0,0,1,.661.705,4.461,4.461,0,0,1,.5.828Z" transform="translate(-224.96 -156.08)" fill="#fff"/></g><g transform="translate(0 15.593)"><path d="M170.618,170.134a4.149,4.149,0,0,1-.661-.705,4.021,4.021,0,0,1-.5-.828,4.151,4.151,0,0,1,.661.705A4.02,4.02,0,0,1,170.618,170.134Z" transform="translate(-169.46 -168.6)" fill="#fff"/></g><g transform="translate(19.885 21.667)"><path d="M219.368,185.024a4.15,4.15,0,0,1-.661-.705,4.02,4.02,0,0,1-.5-.828,4.15,4.15,0,0,1,.661.705A4.249,4.249,0,0,1,219.368,185.024Z" transform="translate(-218.21 -183.49)" fill="#fff"/></g><g transform="translate(9.92 4.352)"><path d="M194.938,142.574a4.147,4.147,0,0,1-.661-.705,4.021,4.021,0,0,1-.5-.828,4.15,4.15,0,0,1,.661.705A4.461,4.461,0,0,1,194.938,142.574Z" transform="translate(-193.78 -141.04)" fill="#fff"/></g><g transform="translate(10.096 25.126)"><path d="M195.368,193.5a4.15,4.15,0,0,1-.661-.705,4.021,4.021,0,0,1-.5-.828,4.149,4.149,0,0,1,.661.705A4.251,4.251,0,0,1,195.368,193.5Z" transform="translate(-194.21 -191.97)" fill="#fff"/></g><g transform="translate(11.788 12.873)"><path d="M199.518,163.464a4.15,4.15,0,0,1-.661-.705,4.021,4.021,0,0,1-.5-.828,4.15,4.15,0,0,1,.661.705A3.951,3.951,0,0,1,199.518,163.464Z" transform="translate(-198.36 -161.93)" fill="#fff"/></g></g></g></g><g transform="translate(21.4)"><g transform="translate(0 10.906)"><g transform="translate(0 0)"><path d="M217.135,124.449c-1.534-.285-2.982-3.463-3.165-5.6-.012-.147.718-1.309,1.538-2.766.494-.885,1.023-1.885,1.44-2.827.086-.2.587.453.587.453l1.093.836,3.61,2.77a16.475,16.475,0,0,0-2.178,3.377,2.359,2.359,0,0,0-.131.408.314.314,0,0,1-.02.071C219.713,121.953,218.616,124.723,217.135,124.449Z" transform="translate(-213.97 -113.22)" fill="#eb9481"/></g><path d="M223.9,121.91a.314.314,0,0,1-.02.071,4.459,4.459,0,0,1-.624-.237c-3.953-1.852-2.211-7.151-2.211-7.151l1.546.767,3.61,2.77a16.475,16.475,0,0,0-2.178,3.377,2.536,2.536,0,0,0-.123.4Z" transform="translate(-217.933 -114.033)" fill="#263238"/></g><g transform="translate(1.191)"><path d="M244.42,95.58a4.133,4.133,0,0,1,1.819,3.186,8.21,8.21,0,0,1-.988,4.1C245.064,102.939,244.42,95.58,244.42,95.58Z" transform="translate(-233.19 -91.869)" fill="#263238"/><g transform="translate(1.506 1.957)"><path d="M221.339,94.094c-1.085,2.146-1.032,8.892.326,10.63,1.966,2.521,5.751,3.39,8.04.9,2.215-2.415,1.99-11.209.42-12.849C227.818,90.358,222.946,90.925,221.339,94.094Z" transform="translate(-220.58 -91.28)" fill="#eb9481"/></g><line transform="translate(2.44 15.308)" fill="none" stroke="#f5a79e" stroke-linecap="round" stroke-linejoin="round" stroke-width="1"/><g transform="translate(6.728 7.537)"><g transform="translate(0.301 2.169)"><path d="M235.866,111.424c0-.016-.035.024-.033.041.024.461-.024.991-.436,1.154-.012,0-.012.029,0,.024C235.907,112.562,235.964,111.857,235.866,111.424Z" transform="translate(-234.872 -110.954)" fill="#263238"/><path d="M234.7,110.278c-.741-.041-.763,1.448-.078,1.481S235.316,110.311,234.7,110.278Z" transform="translate(-234.122 -110.278)" fill="#263238"/></g><g transform="translate(3.776 2.148)"><path d="M242.677,111.385c0-.016.035.02.035.041-.02.461.029.991.444,1.15.012,0,.012.029,0,.024C242.644,112.522,242.583,111.817,242.677,111.385Z" transform="translate(-242.64 -110.91)" fill="#263238"/><path d="M243.118,110.228c.741-.045.776,1.44.09,1.481S242.5,110.265,243.118,110.228Z" transform="translate(-242.661 -110.227)" fill="#263238"/></g><path d="M233.8,106c.2-.049.383-.127.579-.192a.983.983,0,0,0,.551-.31.314.314,0,0,0-.045-.379.78.78,0,0,0-.783-.094,1.155,1.155,0,0,0-.67.485.335.335,0,0,0,.368.49Z" transform="translate(-233.387 -104.959)" fill="#263238"/><path d="M243.267,107.646a5.978,5.978,0,0,1-.587-.163.977.977,0,0,1-.567-.282.313.313,0,0,1,.024-.383.784.784,0,0,1,.779-.135,1.155,1.155,0,0,1,.693.449.339.339,0,0,1-.343.515Z" transform="translate(-238.52 -105.95)" fill="#263238"/><path d="M233.93,122.11c.11.11.216.261.383.277a1.254,1.254,0,0,0,.5-.106.017.017,0,0,1,.02.024.618.618,0,0,1-.587.241.491.491,0,0,1-.355-.412.024.024,0,0,1,.041-.024Z" transform="translate(-233.683 -115.111)" fill="#263238"/><g transform="translate(0.924 0.587)"><path d="M237.643,110.844s.02.689-.016,1.007a6.7,6.7,0,0,0-1.876.065c-.147.033-.131-.086.035-.163a2.74,2.74,0,0,1,1.6-.212c.033-.086-.049-1.061,0-1.058a2.724,2.724,0,0,1,.71.245c0-1.436-.229-2.859-.208-4.287,0-.049.078-.057.086-.012a23.468,23.468,0,0,1,.42,4.609C238.4,111.225,237.766,110.911,237.643,110.844Z" transform="translate(-235.649 -106.4)" fill="#263238"/></g><g transform="translate(0.566 5.791)"><path d="M236.206,119.163a2.067,2.067,0,0,1-.857,1.023c-.616.249-.828-.31-.2-.8a2.01,2.01,0,0,1,1.057-.219Z" transform="translate(-234.77 -119.158)" fill="#263238"/><path d="M235.566,120.565a.833.833,0,0,1-.216.126c-.567.229-.792-.224-.334-.681C235.325,120.034,235.663,120.148,235.566,120.565Z" transform="translate(-234.77 -119.663)" fill="#ff99ba"/></g></g><g transform="translate(0.807)"><path d="M220.015,97.026c.746.229,1.6-2.015,1.848-2.876.212-.759.461-3.17.5-3.337s3.251,2.133,5.131,1.583,3.137-2.235,3.161-3.022-2.309-2.786-4.328-2.888-4.752,2.464-4.752,2.464a9.363,9.363,0,0,0,.9-1.2,2.221,2.221,0,0,0-1.578,1.358s.257-1.166.159-1.187-1.114.979-.885,1.734a3.973,3.973,0,0,0-1.281,2.129C218.779,92.9,219.137,96.757,220.015,97.026Z" transform="translate(-218.867 -86.483)" fill="#263238"/><path d="M232.848,97.166a6.459,6.459,0,0,1-1.775.635,4.229,4.229,0,0,1-2.027-.326,6.48,6.48,0,0,1-1.778-1.053c-.469-.388-.889-.853-1.391-1.2-.126-.086-.269.094-.2.212a6.78,6.78,0,0,0,3.41,2.513,3.878,3.878,0,0,0,3.761-.767C232.86,97.178,232.856,97.162,232.848,97.166Z" transform="translate(-222.889 -91.644)" fill="#263238"/></g><g transform="translate(0 8.332)"><path d="M219.622,108.92s-1.158-2.349-2.2-1.97-.4,3.63.665,4.223a1.164,1.164,0,0,0,1.636-.379Z" transform="translate(-216.889 -106.909)" fill="#eb9481"/><path d="M218.674,109.279c-.016,0-.024.02-.012.029a2.959,2.959,0,0,1,1.224,2.048.64.64,0,0,0-.922-.317c-.024.012-.008.049.016.045a.71.71,0,0,1,.738.367,3.707,3.707,0,0,1,.277.685c.024.078.159.057.147-.029,0-.008,0-.012,0-.02C220.314,111.085,219.743,109.548,218.674,109.279Z" transform="translate(-217.935 -108.312)" fill="#263238"/></g></g></g><g transform="translate(16.868 18.097)"><g transform="translate(0.723 1.075)"><path d="M204.716,135.147c-.8,4.621,4.193,20.191,7.4,23.1,4.777,4.324,13.608,7.167,16.81,8.093,1.4.4,5.256-9.41,3.843-10.059-3.022-1.383-12.413-4.312-13.3-5.066s-6.283-8.519-8.682-12.993C207.58,132.213,205.12,132.809,204.716,135.147Z" transform="translate(-204.631 -133.483)" fill="#eb9481"/><g transform="translate(20.182 21.932)"><path d="M259.688,187.25s4.165,1.061,6.857,1.885a17.3,17.3,0,0,1,4.956,2.317c1.419,1.26,6.551,7.428,5.082,8.7-1.33,1.154-5.066-4.707-5.066-4.707s4.291,5.58,2.434,6.677-5.2-6.086-5.2-6.086,4.283,5.833,2.187,6.661c-1.583.624-4.977-5.711-4.977-5.711s3.647,5.038,2.048,5.751c-1.766.787-5.266-4.862-5.266-4.862-4.374,1.129-6.913-.122-8.619-1.228C253.716,196.391,259.688,187.25,259.688,187.25Z" transform="translate(-254.107 -187.25)" fill="#eb9481"/><g transform="translate(11.114 6.169)"><path d="M293.41,202.38c.526.635,1.065,1.281,1.538,1.962s.914,1.383,1.317,2.1a14.342,14.342,0,0,1,1.305,2.963,30.383,30.383,0,0,0-2.814-4.944c-.469-.681-.9-1.387-1.371-2.068A.015.015,0,1,1,293.41,202.38Z" transform="translate(-288.476 -202.374)" fill="#263238"/><path d="M287.3,206.433a17.583,17.583,0,0,1,3.536,5.176c.032.073-.008.071-.053,0-.575-.885-2.888-4.312-3.5-5.164C287.272,206.433,287.293,206.42,287.3,206.433Z" transform="translate(-284.863 -204.774)" fill="#263238"/><path d="M281.4,208.957a12.71,12.71,0,0,1,2.619,4.087c.032.073-.029.061-.071-.008-.844-1.376-1.5-2.46-2.59-4.046C281.34,208.969,281.377,208.931,281.4,208.957Z" transform="translate(-281.354 -206.266)" fill="#263238"/></g></g></g><g transform="translate(0 0)"><path d="M208.206,133.925c-3.724-5.266-5.951-3.316-5.2,2.4a91.451,91.451,0,0,0,2.575,11.719l9.4-4.552S210.588,137.3,208.206,133.925Z" transform="translate(-202.858 -130.848)" fill="#ffc727"/><g transform="translate(1.201 0.16)"><g transform="translate(6.42 4.989)"><path d="M221.547,143.47a4.165,4.165,0,0,1,.265.93,3.986,3.986,0,0,1,.065.963A4.608,4.608,0,0,1,221.547,143.47Z" transform="translate(-221.544 -143.47)" fill="#fff"/></g><g transform="translate(0.863 7.855)"><path d="M207.92,150.833a4.229,4.229,0,0,1,.93-.265,3.985,3.985,0,0,1,.963-.065A4.608,4.608,0,0,1,207.92,150.833Z" transform="translate(-207.92 -150.497)" fill="#fff"/></g><g transform="translate(0)"><path d="M206.908,131.24a4.258,4.258,0,0,1-.469.844,4.124,4.124,0,0,1-.635.726,4.256,4.256,0,0,1,.469-.844,4.124,4.124,0,0,1,.635-.726Z" transform="translate(-205.804 -131.24)" fill="#fff"/></g><g transform="translate(7.93 10.65)"><path d="M226.348,157.35a4.258,4.258,0,0,1-.469.844,4.125,4.125,0,0,1-.635.726,4.552,4.552,0,0,1,1.105-1.57Z" transform="translate(-225.244 -157.35)" fill="#fff"/></g><g transform="translate(0.961 12.739)"><path d="M209.73,163.574a4.257,4.257,0,0,1-.844-.469,4.124,4.124,0,0,1-.726-.635,4.257,4.257,0,0,1,.844.469,4.124,4.124,0,0,1,.726.635Z" transform="translate(-208.159 -162.47)" fill="#fff"/></g></g><path d="M218.975,142.271c.5.689,1.02,1.363,1.534,2.039-.131-.342-.245-.685-.347-1.04,0-.016.02-.024.024-.008.106.269.22.539.322.808l.147.392c.012.029.02.057.032.086.4.526.8,1.058,1.187,1.6.461.641.905,1.3,1.354,1.95.461.673.9,1.464,1.387,2.121a5.728,5.728,0,0,1-.914.459c-.081.051-.139-.033-.053-.061s.776-.449.783-.459c-.449-.657-.967-1.264-1.436-1.909s-.934-1.277-1.387-1.929c-.917-1.322-1.764-2.692-2.672-4.018C218.939,142.271,218.963,142.254,218.975,142.271Z" transform="translate(-212.379 -137.608)" fill="#263238"/><path d="M203.7,150.843c.141.277.3.555.423.84.053.118.1.237.155.355-.216-1.02-.423-2.036-.632-3.055,0-.012.016-.016.02,0,.432,1.652.865,3.3,1.264,4.96a48.387,48.387,0,0,1,1.061,4.8,5.326,5.326,0,0,1,.882-.3,4.02,4.02,0,0,1-.971.469,50.843,50.843,0,0,1-1.224-4.987c-.1-.459-.2-.914-.294-1.376-.106-.277-.232-.542-.359-.808-.135-.285-.241-.579-.355-.873C203.665,150.839,203.692,150.823,203.7,150.843Z" transform="translate(-203.324 -141.579)" fill="#263238"/><path d="M209.869,163.192c1.305-.738,6.759-3.562,7.983-4.092.086-.035.131.008.045.057a83.187,83.187,0,0,1-7.995,4.087C209.864,163.257,209.831,163.212,209.869,163.192Z" transform="translate(-206.999 -147.569)" fill="#263238"/></g></g></g></g></g><g transform="translate(131.527 106.71)"><g transform="translate(18.136)"><path d="M395.92,284.115H271.64L289.608,182.2h124.28Z" transform="translate(-271.64 -171.643)" fill="#ffc727"/><path d="M358.226,156.32H317.554l-1.864,10.557h43.526Z" transform="translate(-297.722 -156.32)" fill="#ffc727"/><g opacity="0.1"><path d="M395.92,284.115H271.64L289.608,182.2h124.28Z" transform="translate(-271.64 -171.643)"/><path d="M358.226,156.32H317.554l-1.864,10.557h43.526Z" transform="translate(-297.722 -156.32)"/></g></g><g transform="translate(22.904 0.758)"><g transform="translate(10.47 0)"><path d="M309.2,161.728a7.119,7.119,0,0,1-.2-1.775,6.759,6.759,0,0,1,.2-1.775,6.756,6.756,0,0,1,.2,1.775A7.121,7.121,0,0,1,309.2,161.728Z" transform="translate(-308.997 -158.179)" fill="#263238"/></g><g transform="translate(5.287 1.518)"><path d="M298.065,164.976A6.932,6.932,0,0,1,297,163.54a6.854,6.854,0,0,1-.71-1.64,6.93,6.93,0,0,1,1.065,1.436A7.358,7.358,0,0,1,298.065,164.976Z" transform="translate(-296.291 -161.9)" fill="#263238"/></g><g transform="translate(1.375 5.531)"><path d="M289.776,173.515a7.8,7.8,0,0,1-3.076-1.775,7,7,0,0,1,1.64.71A7.08,7.08,0,0,1,289.776,173.515Z" transform="translate(-286.7 -171.74)" fill="#263238"/></g><g transform="translate(0 10.757)"><path d="M286.878,184.754a7.117,7.117,0,0,1-1.775.2,6.757,6.757,0,0,1-1.775-.2,7.821,7.821,0,0,1,3.549,0Z" transform="translate(-283.329 -184.55)" fill="#263238"/></g><g transform="translate(1.522 14.575)"><path d="M290.136,193.91a6.932,6.932,0,0,1-1.436,1.065,6.854,6.854,0,0,1-1.64.71,6.932,6.932,0,0,1,1.436-1.065A6.854,6.854,0,0,1,290.136,193.91Z" transform="translate(-287.06 -193.91)" fill="#263238"/></g><g transform="translate(5.532 17.181)"><path d="M298.665,200.3a7.8,7.8,0,0,1-1.774,3.076,7,7,0,0,1,.71-1.64A7.238,7.238,0,0,1,298.665,200.3Z" transform="translate(-296.891 -200.3)" fill="#263238"/></g><g transform="translate(10.756 18.083)"><path d="M309.9,202.51a7.117,7.117,0,0,1,.2,1.775,6.758,6.758,0,0,1-.2,1.775,6.759,6.759,0,0,1-.2-1.775,6.935,6.935,0,0,1,.2-1.775Z" transform="translate(-309.697 -202.51)" fill="#263238"/></g><g transform="translate(14.574 17.039)"><path d="M319.059,199.95a6.93,6.93,0,0,1,1.065,1.436,6.855,6.855,0,0,1,.71,1.64,7.8,7.8,0,0,1-1.775-3.076Z" transform="translate(-319.059 -199.95)" fill="#263238"/></g><g transform="translate(17.181 14.326)"><path d="M325.45,193.3a7.8,7.8,0,0,1,3.076,1.775A7.8,7.8,0,0,1,325.45,193.3Z" transform="translate(-325.45 -193.3)" fill="#263238"/></g><g transform="translate(18.083 10.466)"><path d="M327.66,184.042a7.12,7.12,0,0,1,1.775-.2,6.757,6.757,0,0,1,1.775.2,7.821,7.821,0,0,1-3.549,0Z" transform="translate(-327.66 -183.837)" fill="#263238"/></g><g transform="translate(17.039 5.283)"><path d="M325.1,172.905a6.932,6.932,0,0,1,1.436-1.065,6.853,6.853,0,0,1,1.64-.71,7.8,7.8,0,0,1-3.076,1.775Z" transform="translate(-325.1 -171.131)" fill="#263238"/></g><g transform="translate(14.326 1.375)"><path d="M318.45,164.626a7.8,7.8,0,0,1,1.775-3.076A7.8,7.8,0,0,1,318.45,164.626Z" transform="translate(-318.45 -161.55)" fill="#263238"/></g></g><path d="M369.412,289.485H244.863L227.18,191.27H351.729Z" transform="translate(-227.18 -177.014)" fill="#ffc727"/><g transform="translate(37.984 63.943)"><circle cx="5.176" cy="5.176" r="5.176" transform="translate(0 0)" fill="#263238"/><circle cx="5.176" cy="5.176" r="5.176" transform="translate(40.921 0)" fill="#263238"/><path d="M378.372,330.679l-.286-.542c-.024-.049-2.7-4.993-8.08-4.993-4.907,0-6.1,4.656-6.151,4.854l-.147.592-1.187-.286.141-.6c.012-.057,1.456-5.788,7.342-5.788,6.135,0,9.043,5.417,9.165,5.65l.286.542Z" transform="translate(-345.299 -319.498)" fill="#263238"/></g></g><g transform="translate(265.495 77.118)"><g transform="translate(0 0)"><g transform="translate(0 5.676)"><path d="M555.61,324.038c.265-.057.529-.118.8-.188" transform="translate(-555.61 -231.599)" fill="none" stroke="#263238" stroke-width="1"/><path d="M560.107,190.055c6.241-2.109,11.466-7.016,11.957-12.751,1.085-12.645-14.317-19.628-12.726-34.244,1.517-13.938,16.137-14.934,22-13.008,6.474,2.129,4.255,8.35-1.607,7.546-10.161-1.391-16.549-12.437-11.723-24.968,3.606-9.361,12.592-12.894,16.243-13.971" transform="translate(-557.749 -98.264)" fill="none" stroke="#263238" stroke-width="1" stroke-dasharray="4.004 4.004"/><path d="M622.52,97.873c.506-.131.791-.183.791-.183" transform="translate(-595.227 -97.69)" fill="none" stroke="#263238" stroke-width="1"/></g><g transform="translate(24.114)"><path d="M630.415,89.475c-1.04-3.222-8.007-2.064-6.649,2.146S631.455,92.7,630.415,89.475Z" transform="translate(-619.976 -86.054)" fill="#263238"/><g transform="translate(0)"><path d="M614.728,85.9c.053-1.415,2.019-2.5,4.8-2a15.579,15.579,0,0,1,5.4,2.374,15.56,15.56,0,0,1-5.56,1.978C616.56,88.549,614.675,87.317,614.728,85.9Z" transform="translate(-614.727 -83.774)" fill="#ebebeb"/><g transform="translate(1.551 0.87)"><path d="M627.178,89.436c-1.444.008-2.884-.035-4.328-.081s-2.884-.118-4.32-.237c1.444-.012,2.884.035,4.328.081S625.742,89.317,627.178,89.436Z" transform="translate(-618.53 -87.807)" fill="#263238"/><path d="M621.58,85.907a12.225,12.225,0,0,1,2.3,1.443,12.22,12.22,0,0,1-2.3-1.444Z" transform="translate(-620.336 -85.906)" fill="#263238"/><path d="M627.369,89.57a13.245,13.245,0,0,1-2.4,1.542A13.247,13.247,0,0,1,627.369,89.57Z" transform="translate(-622.343 -88.076)" fill="#263238"/><path d="M631.88,87.62a3.089,3.089,0,0,1,1.058.853,3.09,3.09,0,0,1-1.058-.853Z" transform="translate(-626.434 -86.921)" fill="#263238"/></g></g><g transform="translate(2.312 4.245)"><path d="M620.736,100.455c.869,1.118,3.1.848,5.062-1.183a15.557,15.557,0,0,0,2.99-5.082,15.539,15.539,0,0,0-5.666,1.648C620.67,97.241,619.863,99.334,620.736,100.455Z" transform="translate(-620.395 -94.186)" fill="#ebebeb"/><g transform="translate(1.561)"><path d="M631.053,94.18c-1.179.836-2.317,1.717-3.463,2.6s-2.268,1.783-3.369,2.716c1.179-.836,2.317-1.717,3.463-2.6S629.956,95.118,631.053,94.18Z" transform="translate(-624.221 -94.18)" fill="#263238"/><path d="M628.58,104.375a11.7,11.7,0,0,0,.583-1.232,10.906,10.906,0,0,0,.441-1.289,11.715,11.715,0,0,0-.583,1.232,11.993,11.993,0,0,0-.441,1.289Z" transform="translate(-626.802 -98.724)" fill="#263238"/><path d="M629.817,99.612a12.814,12.814,0,0,0-1.428,0,11.88,11.88,0,0,0-1.419.151,12.822,12.822,0,0,0,1.428,0A11.8,11.8,0,0,0,629.817,99.612Z" transform="translate(-625.849 -97.384)" fill="#263238"/><path d="M635.929,98.736a2.8,2.8,0,0,0,.253-.632,2.856,2.856,0,0,0,.106-.673,3.044,3.044,0,0,0-.359,1.305Z" transform="translate(-631.153 -96.105)" fill="#263238"/></g></g><path d="M638,88.7a1.221,1.221,0,1,1,.787-1.538A1.221,1.221,0,0,1,638,88.7Z" transform="translate(-627.563 -85.279)" fill="#455a64"/><path d="M639.84,94.411a1.221,1.221,0,1,1,.785-1.538A1.222,1.222,0,0,1,639.84,94.411Z" transform="translate(-628.649 -88.661)" fill="#455a64"/></g></g></g><g transform="translate(144.653 70.515)"><g transform="translate(0 0)"><path d="M282.272,79.029a10.164,10.164,0,0,1-16.985,6.433l-5.087.746,2.545-4.4a10.167,10.167,0,1,1,19.526-2.782Z" transform="translate(-259.857 -67.717)" fill="#fff"/><path d="M281.774,78.9a10.209,10.209,0,0,1-2.052,5.152,11.37,11.37,0,0,1-.922,1.061,12.03,12.03,0,0,1-1.073.91,10.053,10.053,0,0,1-6.6,2.048,9.049,9.049,0,0,1-1.407-.147,10.264,10.264,0,0,1-5.029-2.484l.118.035-5.083.78-.367.057.188-.326,2.529-4.405-.012.176a10.272,10.272,0,0,1,.628-9.06,10.238,10.238,0,0,1,16.043-2.191A10.226,10.226,0,0,1,281.774,78.9Zm0,0a10.073,10.073,0,0,0-15.729-9.341A10.559,10.559,0,0,0,263,72.875a10,10,0,0,0-1.289,4.3,10.213,10.213,0,0,0,.714,4.43l.035.09-.049.081-2.562,4.389-.183-.269,5.09-.714.071-.008.049.049a10,10,0,0,0,4.868,2.509,8.66,8.66,0,0,0,1.379.167,9.314,9.314,0,0,0,1.391,0,9.882,9.882,0,0,0,2.716-.6,9.495,9.495,0,0,0,2.451-1.322,10.683,10.683,0,0,0,1.073-.9,11.272,11.272,0,0,0,.926-1.048A10.116,10.116,0,0,0,281.774,78.9Z" transform="translate(-259.359 -67.587)" fill="#263238"/><g transform="translate(7.333 4.492)"><path d="M277.337,89.1a.988.988,0,0,1,1-1.044,1.045,1.045,0,0,1,0,2.088.988.988,0,0,1-1-1.044Zm.42-2.411L277.52,78.6h1.619l-.237,8.093Z" transform="translate(-277.335 -78.6)" fill="#ffc727"/><path d="M286.847,89.1a.988.988,0,0,1,1-1.044,1.045,1.045,0,0,1,0,2.088.988.988,0,0,1-1-1.044Zm.42-2.411L287.03,78.6h1.619l-.237,8.093Z" transform="translate(-282.966 -78.6)" fill="#ffc727"/><path d="M296.347,89.1a.988.988,0,0,1,1-1.044,1.045,1.045,0,0,1,0,2.088.988.988,0,0,1-1-1.044Zm.423-2.411-.236-8.093h1.619l-.237,8.093Z" transform="translate(-288.591 -78.6)" fill="#ffc727"/></g></g></g></g></g></svg>