<svg xmlns="http://www.w3.org/2000/svg" xmlns:xlink="http://www.w3.org/1999/xlink" width="250" height="250" viewBox="0 0 250 250"><defs><clipPath id="b"><rect width="250" height="250"/></clipPath></defs><g id="a" clip-path="url(#b)"><g transform="translate(-26.313 -44.548)"><g transform="translate(37.313 60.548)"><g transform="translate(10.093 111.329)"><path d="M263.884,286.491s-37.9-18.175-61.405-18.175c-28.227,0-55.651,8.1-66.056,10.776-27.327,7.026-80.272,7.4-80.272,7.4Z" transform="translate(-56.15 -268.316)" fill="#dbdbdb"/><path d="M56.16,293.082S77.679,282.51,102,282.51c16.969,0,41.323,2.191,64.267,5.776,8.734,1.366,54.2,4.794,54.2,4.794Z" transform="translate(-56.155 -274.905)" fill="#c7c7c7"/></g><g transform="translate(0 0)"><path d="M354.868,223.069c-2.556,0-66.4-.445-84.435-.445-1.259,0,.332-2.186,1.029-2.336a61.077,61.077,0,0,1,6.784-.745,22.226,22.226,0,0,0,6.462-1.618,23.628,23.628,0,0,1,5.466-1.913c3.713-.584,6.976,1.431,10.459,2.32a7.876,7.876,0,0,0,6.332-.868c1.613-.964,3.076-2.126,4.758-2.979a26.1,26.1,0,0,1,20.865-.954,24.289,24.289,0,0,1,4.565,2.336c1.7,1.114,3.166,2.545,4.876,3.649,3.783,2.449,8.455,1.65,12.581,3.054C354.836,222.641,355.088,223.069,354.868,223.069Z" transform="translate(-145.304 -130.756)" fill="#ebebeb"/><path d="M345.052,72.306c-3.381,0-60.3.375-63.881.262-.257-.005-.4-.386-.139-.514,2.256-1.114,4.812-.895,7.159-1.683a7.647,7.647,0,0,0,3.183-2.4,6.577,6.577,0,0,1,2.963-1.934,6.272,6.272,0,0,1,3.226-.1,26.01,26.01,0,0,1,3.257,1.357,6.7,6.7,0,0,0,7.346-1.972,16.126,16.126,0,0,1,5.385-4.137,7.13,7.13,0,0,1,5.7-.081c2.09.95,3.52,2.849,5.481,3.992,2.325,1.361,5.107,1.04,7.673,1.447s4.538,2.572,6.789,3.821a4.806,4.806,0,0,0,2.454.761c.5-.011,1-.15,1.495-.209a2.034,2.034,0,0,1,2.031.574C345.3,71.641,345.272,72.306,345.052,72.306Z" transform="translate(-150.378 -60.548)" fill="#ebebeb"/><path d="M421.844,113.832c-2.47,0-44.029.271-46.638.193-.188-.005-.289-.284-.1-.375,1.645-.814,3.515-.654,5.224-1.227a5.539,5.539,0,0,0,2.325-1.752,4.8,4.8,0,0,1,2.165-1.409,4.55,4.55,0,0,1,2.352-.075,21.314,21.314,0,0,1,2.379.986,4.89,4.89,0,0,0,5.363-1.441,11.761,11.761,0,0,1,3.928-3.022,5.211,5.211,0,0,1,4.161-.059c1.527.691,2.572,2.081,4,2.915,1.7.991,3.729.755,5.6,1.056s3.317,1.881,4.956,2.786a3.519,3.519,0,0,0,1.8.557,10.724,10.724,0,0,0,1.093-.156,1.493,1.493,0,0,1,1.484.418C422.026,113.344,422,113.832,421.844,113.832Z" transform="translate(-194.061 -81.294)" fill="#ebebeb"/><path d="M174.473,145.742c-2.47,0-44.029.271-46.638.193-.188-.005-.289-.284-.1-.375,1.645-.814,3.515-.654,5.224-1.227a5.539,5.539,0,0,0,2.325-1.752,4.8,4.8,0,0,1,2.165-1.409,4.551,4.551,0,0,1,2.352-.075,21.325,21.325,0,0,1,2.379.986,4.89,4.89,0,0,0,5.363-1.441,11.761,11.761,0,0,1,3.928-3.022,5.211,5.211,0,0,1,4.161-.059c1.527.691,2.572,2.081,4,2.915,1.7.991,3.729.755,5.6,1.056s3.317,1.881,4.956,2.786a3.519,3.519,0,0,0,1.8.557,10.729,10.729,0,0,0,1.093-.156,1.494,1.494,0,0,1,1.484.418C174.658,145.254,174.64,145.742,174.473,145.742Z" transform="translate(-79.238 -96.106)" fill="#ebebeb"/><path d="M84.153,98.272c-2.47,0-44.029.271-46.638.193-.188-.005-.289-.284-.1-.375,1.645-.814,3.515-.654,5.224-1.227a5.54,5.54,0,0,0,2.325-1.752A4.794,4.794,0,0,1,47.127,93.7a4.551,4.551,0,0,1,2.352-.075,21.316,21.316,0,0,1,2.379.986,4.89,4.89,0,0,0,5.363-1.441,11.754,11.754,0,0,1,3.928-3.022,5.211,5.211,0,0,1,4.161-.059c1.527.691,2.572,2.081,4,2.915,1.7.991,3.729.755,5.6,1.056s3.317,1.881,4.956,2.786a3.52,3.52,0,0,0,1.8.557,10.723,10.723,0,0,0,1.093-.156,1.494,1.494,0,0,1,1.484.418C84.335,97.785,84.314,98.272,84.153,98.272Z" transform="translate(-37.313 -74.072)" fill="#ebebeb"/></g></g><g transform="translate(41.834 189.806)"><g transform="translate(0 0)"><path d="M423.17,318.467a74.612,74.612,0,0,1,12.806,0,74.059,74.059,0,0,1-12.806,0Z" transform="translate(-220.939 -309.397)" fill="#dbdbdb"/><path d="M390.042,385.779c-21.149.354-44.666.348-65.832,0C345.38,385.431,368.887,385.42,390.042,385.779Z" transform="translate(-175.004 -340.646)" fill="#dbdbdb"/><path d="M132.761,349.192c-20.79.354-43.9.348-64.7,0C88.866,348.844,111.965,348.839,132.761,349.192Z" transform="translate(-56.106 -323.665)" fill="#dbdbdb"/><path d="M116.924,385.769c-11.338.359-22.751.359-34.094,0C94.168,385.4,105.581,385.4,116.924,385.769Z" transform="translate(-62.962 -340.638)" fill="#dbdbdb"/><path d="M219.8,406.692c-22.826.354-48.2.348-71.045,0C171.608,406.344,196.975,406.339,219.8,406.692Z" transform="translate(-93.565 -350.355)" fill="#dbdbdb"/><path d="M329.114,393.783c-11.338.359-22.751.359-34.094,0C306.363,393.418,317.777,393.418,329.114,393.783Z" transform="translate(-161.455 -344.358)" fill="#dbdbdb"/><path d="M243.394,373.187c-11.338.359-22.751.359-34.094,0C220.643,372.828,232.057,372.828,243.394,373.187Z" transform="translate(-121.666 -334.799)" fill="#dbdbdb"/><path d="M389.6,442.547c-11.338.359-22.751.359-34.094,0C366.853,442.188,378.267,442.188,389.6,442.547Z" transform="translate(-189.533 -366.995)" fill="#dbdbdb"/><path d="M331.113,430.474c-20.843.354-44.018.348-64.883,0C287.1,430.131,310.264,430.12,331.113,430.474Z" transform="translate(-148.092 -361.394)" fill="#dbdbdb"/><path d="M156.034,321.037c-11.338.359-22.751.359-34.094,0C133.278,320.678,144.691,320.678,156.034,321.037Z" transform="translate(-81.116 -310.593)" fill="#dbdbdb"/><path d="M403.445,323.717c-11.338.359-22.751.359-34.094,0C380.688,323.358,392.1,323.358,403.445,323.717Z" transform="translate(-195.957 -311.837)" fill="#dbdbdb"/><path d="M118.253,309.944c-18.78.354-39.662.348-58.453,0C78.591,309.6,99.467,309.59,118.253,309.944Z" transform="translate(-52.271 -305.447)" fill="#dbdbdb"/><path d="M404.189,370.469a106.356,106.356,0,0,1-15.239,0A106.356,106.356,0,0,1,404.189,370.469Z" transform="translate(-205.055 -333.536)" fill="#dbdbdb"/><path d="M142.611,414.9c-19.284.354-40.728.348-60.029,0C101.883,414.552,123.315,414.541,142.611,414.9Z" transform="translate(-62.847 -354.163)" fill="#dbdbdb"/><path d="M341.441,364.772c-25.451.354-53.743.348-79.211,0C287.7,364.424,315.984,364.419,341.441,364.772Z" transform="translate(-146.235 -330.897)" fill="#dbdbdb"/><path d="M227.159,436.483a106.356,106.356,0,0,1-15.239,0A106.374,106.374,0,0,1,227.159,436.483Z" transform="translate(-122.882 -364.178)" fill="#dbdbdb"/><path d="M45.75,302.026c70.113-.327,148.766-.332,218.879,0-70.113.332-148.762.327-218.879,0Z" transform="translate(-45.75 -301.779)" fill="#dbdbdb"/></g></g><g transform="translate(192.144 68.309)"><g transform="translate(0 0)"><path d="M389.485,134.495a6.37,6.37,0,0,1-6.478,6.36h-1.157v8.793a6.363,6.363,0,0,1-12.726,0v-8.793H332.677a5.681,5.681,0,0,1-3.935-1.388,6.187,6.187,0,0,1-1.04-8.905l42.8-53.216c.118,0,.118-.118.23-.23a1.628,1.628,0,0,0,.348-.461,1.243,1.243,0,0,0,.578-.348c.118-.118.348-.23.461-.348a1.221,1.221,0,0,1,.691-.23c.118-.23.23-.348.461-.348.118-.118.348-.118.7-.23a.673.673,0,0,0,.461-.118H376.4a1.027,1.027,0,0,0,.578.118c.118.118.461.118.7.23.118,0,.348.118.461.118.23.23.461.348.578.461.23.118.348.23.578.348a.115.115,0,0,1,.118.118c.118,0,.348.113.348.23l.461.461c.118.113.23.348.348.461a3.085,3.085,0,0,1,.461.578.874.874,0,0,0,.23.461,4.21,4.21,0,0,1,.23.7c0,.113.113.348.113.461a1.237,1.237,0,0,1,.118.7c0,.23.118.348.118.578v47.088h1.157a6.448,6.448,0,0,1,6.491,6.358ZM369.123,99.559,346.1,128.134h23.022Z" transform="translate(-326.269 -75.031)" fill="#ffc727"/></g></g><g transform="translate(47.18 68.309)"><g transform="translate(0 0)"><path d="M118.937,134.495a6.37,6.37,0,0,1-6.478,6.36H111.3v8.793a6.363,6.363,0,0,1-12.726,0v-8.793H62.129a5.681,5.681,0,0,1-3.935-1.388,6.191,6.191,0,0,1-1.04-8.905l42.8-53.216c.118,0,.118-.118.23-.23a1.627,1.627,0,0,0,.348-.461,1.243,1.243,0,0,0,.579-.348c.118-.118.348-.23.461-.348a1.221,1.221,0,0,1,.691-.23c.118-.23.23-.348.461-.348.118-.118.348-.118.7-.23a.673.673,0,0,0,.461-.118h1.967a1.027,1.027,0,0,0,.579.118c.113.118.461.118.691.23.118,0,.348.118.461.118.23.23.461.348.578.461.23.118.348.23.579.348a.115.115,0,0,1,.118.118c.118,0,.348.113.348.23l.461.461c.118.113.23.348.348.461a3.086,3.086,0,0,1,.461.578.874.874,0,0,0,.23.461,4.216,4.216,0,0,1,.23.7c0,.113.113.348.113.461a1.237,1.237,0,0,1,.118.7c0,.23.118.348.118.578v47.088h1.157A6.449,6.449,0,0,1,118.937,134.495ZM98.575,99.559,75.556,128.136H98.575Z" transform="translate(-55.724 -75.031)" fill="#ffc727"/></g></g><g transform="translate(84.86 61.319)"><g transform="translate(32.086 0)"><g transform="translate(0)"><g opacity="0.2"><path d="M254.579,109.473c0,12.351-3.257,23.737-9.088,32.423-5.7,8.552-14.655,15.062-25.1,15.062-10.716,0-19.531-6.51-25.238-15.062-5.964-8.681-9.088-20.072-9.221-32.423.136-12.484,3.257-23.737,9.221-32.43,5.7-8.681,14.519-15.057,25.238-15.057,10.448,0,19.4,6.377,25.1,15.057C251.327,85.73,254.579,96.988,254.579,109.473Z" transform="translate(-185.929 -61.986)" fill="#ffc727"/></g><g transform="translate(4.909 6.78)" opacity="0.2"><path d="M253.934,115.347c0,10.584-2.792,20.35-7.791,27.793-4.885,7.33-12.56,12.913-21.519,12.913-9.189,0-16.745-5.583-21.631-12.913-5.111-7.443-7.791-17.206-7.9-27.793.118-10.7,2.792-20.35,7.9-27.8,4.885-7.443,12.447-12.908,21.631-12.908,8.956,0,16.627,5.466,21.519,12.908C251.143,95,253.934,104.646,253.934,115.347Z" transform="translate(-195.09 -74.64)" fill="#ffc727"/></g><g transform="translate(12.871 17.791)" opacity="0.2"><path d="M252.875,124.885a36.513,36.513,0,0,1-5.68,20.276c-3.569,5.348-9.163,9.42-15.7,9.42-6.7,0-12.217-4.071-15.78-9.42-3.729-5.428-5.68-12.555-5.766-20.276.086-7.807,2.035-14.848,5.766-20.281,3.569-5.428,9.082-9.415,15.78-9.415,6.532,0,12.131,3.985,15.7,9.412A36.368,36.368,0,0,1,252.875,124.885Z" transform="translate(-209.95 -95.19)" fill="#ffc727"/></g></g></g><g transform="translate(0 27.578)"><g transform="translate(44.014 0)"><g transform="translate(0 35.661)"><path d="M253,269.824H208.19l1.254-17.961L210.7,233.9l1.254-17.966,1.259-17.961,1.254-17.966h32.246l1.254,17.966,1.259,17.961,1.254,17.966,1.259,17.961Z" transform="translate(-208.19 -180.009)" fill="#ffc727"/><path d="M252.324,197.976H217.57l1.254-17.966H251.07Z" transform="translate(-212.544 -180.01)" opacity="0.1"/><path d="M253,332.071H208.19l1.254-17.961h42.3Z" transform="translate(-208.19 -242.256)" opacity="0.1"/><path d="M252.659,265.026H212.88l1.254-17.966h37.272Z" transform="translate(-210.367 -211.132)" opacity="0.1"/><path d="M214.47,180.01h8.1l11,89.815H208.19Z" transform="translate(-208.19 -180.01)" opacity="0.1"/><path d="M247.72,193.81h0a2.168,2.168,0,0,0-2.171,2.171l-.461,4.71h5.257l-.461-4.71a2.163,2.163,0,0,0-2.164-2.171Z" transform="translate(-225.317 -186.415)" fill="#263238"/><path d="M264.08,225.24h0a2.168,2.168,0,0,0-2.171,2.171l-.461,4.71H266.7l-.461-4.71A2.167,2.167,0,0,0,264.08,225.24Z" transform="translate(-232.911 -201.004)" fill="#263238"/><path d="M223.28,258.48h0a2.168,2.168,0,0,0-2.171,2.171l-.461,4.71H225.9l-.461-4.71A2.167,2.167,0,0,0,223.28,258.48Z" transform="translate(-213.973 -216.434)" fill="#263238"/><path d="M247.72,291.86h0a2.168,2.168,0,0,0-2.171,2.171l-.461,4.71h5.257l-.461-4.71a2.16,2.16,0,0,0-2.164-2.171Z" transform="translate(-225.317 -231.927)" fill="#263238"/></g><g transform="translate(12.635)"><path d="M251.3,123.216H231.77a9.762,9.762,0,0,1,19.5-.713A6.347,6.347,0,0,1,251.3,123.216Z" transform="translate(-231.77 -113.456)" fill="#ffc727"/><path d="M251.311,129.094H231.78a10.077,10.077,0,0,1,.181-1.9l18.877-1.077a9.648,9.648,0,0,1,.439,2.266Q251.311,128.734,251.311,129.094Z" transform="translate(-231.775 -119.334)" opacity="0.1"/></g><g transform="translate(11.483 9.185)"><rect width="12.495" height="1.372" transform="translate(2.528 0.002) rotate(90)" fill="#c7c7c7"/><rect width="12.495" height="1.372" transform="translate(6.159 0.004) rotate(90)" fill="#c7c7c7"/><rect width="12.495" height="1.372" transform="translate(9.79) rotate(90)" fill="#c7c7c7"/><rect width="12.495" height="1.372" transform="translate(13.421 0.002) rotate(90)" fill="#c7c7c7"/><rect width="12.495" height="1.372" transform="translate(17.052 0.004) rotate(90)" fill="#c7c7c7"/><rect width="21.84" height="1.061" transform="translate(0 6.849)" fill="#c7c7c7"/><rect width="12.495" height="1.372" transform="translate(20.683) rotate(90)" fill="#c7c7c7"/></g><g transform="translate(10.658 21.682)"><rect width="23.491" height="11.295" transform="translate(0)" fill="#ffc727"/><path d="M251.571,153.92v2.122l-23.491,3.815V153.92Z" transform="translate(-228.08 -153.92)" opacity="0.1"/></g><g transform="translate(5.406 4.032)" opacity="0.05"><rect width="5.251" height="2.219" transform="translate(28.115 90.42)"/><rect width="5.251" height="2.219" transform="translate(25.184 93.217)"/><rect width="5.251" height="2.219" transform="translate(8.739 57.617)"/><rect width="5.251" height="2.219" transform="translate(5.808 60.414)"/><rect width="5.251" height="2.219" transform="translate(2.888 57.617)"/><rect width="4.019" height="1.698" transform="translate(15.41)"/><rect width="4.019" height="1.698" transform="translate(13.165 2.143)"/><rect width="4.019" height="1.698" transform="translate(10.936)"/><rect width="5.251" height="2.219" transform="translate(0 92.333)"/><rect width="5.251" height="2.219" transform="translate(21.985 39.024)"/><rect width="5.251" height="2.219" transform="translate(24.91 41.827)"/><rect width="5.251" height="2.219" transform="translate(16.997 20.79)"/><rect width="5.251" height="2.219" transform="translate(19.927 23.587)"/><rect width="5.251" height="2.219" transform="translate(16.616 72.69)"/></g><g transform="translate(2.738 31.836)"><rect width="39.329" height="7.657" fill="#455a64"/></g><g transform="translate(9.264 19.909)"><rect width="26.271" height="2.765" fill="#455a64"/></g><g transform="translate(11.483 9.187)"><rect width="21.84" height="2.299" fill="#455a64"/></g></g><g transform="translate(0 98.205)"><g transform="translate(28.572 0)"><g transform="translate(47.299 2.448)"><g transform="translate(0.472 3.744)"><path d="M272.149,311.209a3.648,3.648,0,0,1-2.481-.472,2.531,2.531,0,0,1-1.136-2.122c.027-.247.081-.4.343-.295a3.17,3.17,0,0,1,.991.916,8.8,8.8,0,0,0,1.168,1.109c.3.23.621.429.927.654.037.027.075.053.113.086.016.011.027.021.043.032h.021a.032.032,0,0,1,.032.016.019.019,0,0,1,.005.016.036.036,0,0,1-.027.059Z" transform="translate(-268.524 -308.289)" fill="#263238"/><path d="M272.692,311.821a3.2,3.2,0,0,1-2.133-.482,3.326,3.326,0,0,1-.686-.836c-.086-.139-.343-.557-.236-.724.193-.3,1.077.922,1.2,1.04a3.638,3.638,0,0,0,1.634.852c.038.027.075.054.113.086a4.019,4.019,0,0,1-1.227-.471,6.134,6.134,0,0,1-1.232-1.211c-.09-.1-.359-.407-.461-.214-.064.128.181.536.236.621a3.44,3.44,0,0,0,.648.793,3.282,3.282,0,0,0,2.133.531C272.692,311.81,272.692,311.815,272.692,311.821Z" transform="translate(-269.029 -308.958)" fill="#fff"/></g><g transform="translate(3.594 2.049)"><path d="M275.316,310.256c-.005.032-.016.064-.021.1v.005a.014.014,0,0,1-.016.016.034.034,0,0,1-.043-.016c-.005-.005-.005-.011,0-.021s0-.011.005-.011.005-.021.011-.027h0v-.011c-.15-.557-.209-1.136-.365-1.7-.15-.531-.337-1.056-.445-1.6-.07-.343-.305-2.063.452-1.849.337.1.568.584.691.873a3.528,3.528,0,0,1,.279,1.238A11.643,11.643,0,0,1,275.316,310.256Z" transform="translate(-274.353 -305.126)" fill="#263238"/><path d="M276,309.037a4.091,4.091,0,0,0-.123-1.168c-.032-.136-.2-.766-.413-.75-.139.011-.161.284-.171.375a3.653,3.653,0,0,0,.15,1.147,15.844,15.844,0,0,1,.279,2.3c-.005.048-.016.1-.021.145s-.011.081-.016.123c0,.016-.005.027-.005.043a.068.068,0,0,1-.005.032.034.034,0,0,0,.043.016.588.588,0,0,0,.011-.1v.075h0l.016-.081a.02.02,0,0,1,.005-.016v-.128A16.042,16.042,0,0,0,276,309.037Zm-.257,1.736q-.032-.678-.128-1.345c-.053-.359-.118-.718-.193-1.071a3.923,3.923,0,0,1-.1-.611c-.005-.156.016-.74.317-.375a2.376,2.376,0,0,1,.295,1.136,5.459,5.459,0,0,1-.021,1.066c-.044.4-.114.8-.173,1.2Z" transform="translate(-274.79 -306.05)" fill="#fff"/></g><g transform="translate(1.727 6.986)"><path d="M274.154,316.843h0a.115.115,0,0,1-.032.005,4.3,4.3,0,0,1-2.438-.477,1.955,1.955,0,0,1-.787-1.752c.171-.713,1.131.145,1.388.348a23.24,23.24,0,0,1,1.892,1.838c.005.005.005.011.011.016h0A.033.033,0,0,1,274.154,316.843Z" transform="translate(-270.868 -314.341)" fill="#263238"/><path d="M274.673,317.448c-.043-.027-.09-.053-.136-.086-.509-.322-1-.659-1.474-1.024-.118-.09-.986-.863-1.12-.588-.081.166.209.509.3.622a2.594,2.594,0,0,0,.584.525,5.905,5.905,0,0,0,1.719.543.451.451,0,0,1,.08.021c.005.005.011.005.016.011h0C274.662,317.47,274.679,317.46,274.673,317.448Zm-1.527-.439a2.242,2.242,0,0,1-.664-.452c-.128-.123-.584-.584-.466-.772.064-.1.118-.048.241.011a.983.983,0,0,1,.16.1c.129.086.247.181.37.279.214.171.429.332.643.493.359.263.729.509,1.1.74a11.648,11.648,0,0,1-1.388-.4Z" transform="translate(-271.36 -314.968)" fill="#fff"/></g><g transform="translate(5.038 5.389)"><path d="M278.43,313.872a4.553,4.553,0,0,1-1.323,2.309c-.005.005-.011.005-.016.011a.028.028,0,0,1-.038-.016.029.029,0,0,1,.005-.043l.038-.038c.128-1.05.268-2.09.375-3.14.027-.247.22-1.822.7-1.57.3.161.322.8.343,1.093A4.358,4.358,0,0,1,278.43,313.872Z" transform="translate(-277.046 -311.359)" fill="#263238"/><path d="M278.153,313.311c-.027-.086-.07-.177-.171-.118-.188.118-.262.859-.295,1.066-.128.847-.327,1.661-.536,2.488-.016.07-.032.139-.053.209l-.048.064c.011.011.027.021.038.016s.005-.016.005-.021c.021-.027.043-.053.064-.086h0a5.291,5.291,0,0,0,.761-1.489,4.954,4.954,0,0,0,.226-1.034A2.784,2.784,0,0,0,278.153,313.311Zm-.991,3.558a.19.19,0,0,0-.027.043c.011-.027.016-.053.027-.086a15.985,15.985,0,0,0,.472-1.921c.053-.332.09-.664.161-.991.027-.139.1-.536.214-.6s.113.091.123.177c.005.064.005.181.011.241a5.386,5.386,0,0,1-.98,3.138Z" transform="translate(-277.047 -312.202)" fill="#fff"/></g><path d="M273.681,315.274h-.156c0-.136-.005-.271-.011-.407-.016-.546-.043-1.093-.075-1.645-.016-.311-.043-.621-.075-.927v-.032c-.005-.027-.005-.048-.011-.075a.417.417,0,0,0-.011-.081,6.669,6.669,0,0,0-.531-2.015c-.1-.214-.2-.423-.317-.627-.011-.021-.021-.038-.032-.059,0-.005-.005-.011-.011-.016a.588.588,0,0,0-.032-.059c-.011-.016-.016-.032-.027-.048-.359-.627-.766-1.227-1.152-1.833-.113-.171-.22-.348-.332-.52-.005-.011-.016-.021-.021-.032a.158.158,0,0,0-.027-.038c-.488-.766-.964-1.543-1.468-2.293-.021-.027.027-.053.043-.027.343.5.7.991,1.045,1.484.048.064.09.136.139.2.09.128.181.262.271.391.181.262.365.525.543.787a21.554,21.554,0,0,1,1.42,2.3,1.872,1.872,0,0,1,.086.181c.016.038.038.075.053.113a1.02,1.02,0,0,1,.059.136,7.09,7.09,0,0,1,.52,2.427c.005.059.005.118.011.177,0,.027.005.053.005.081v.1h0v.043c0,.048.005.1.005.15q.032.82.048,1.64A4.431,4.431,0,0,1,273.681,315.274Z" transform="translate(-268.454 -302.801)" fill="#263238"/><g transform="translate(0 0)"><path d="M268.269,303.852c-.423-.568-.964-1.736-.343-2.347a.665.665,0,0,1,.884-.064,1.932,1.932,0,0,1,.584,1.061c.284.991.472,2,.83,2.979a.7.7,0,0,1,.038.1c.005.021-.027.027-.032.011a.71.71,0,0,0-.038-.1A8.572,8.572,0,0,1,268.269,303.852Z" transform="translate(-267.645 -301.302)" fill="#263238"/><path d="M270.828,306.231c-.005-.005-.005-.011-.011-.016a6.454,6.454,0,0,1-.4-.734,14.4,14.4,0,0,1-.606-1.624c-.07-.214-.37-1.254-.745-.841a.935.935,0,0,0-.107.7,2.62,2.62,0,0,0,.322.975,4.8,4.8,0,0,0,1.4,1.463.653.653,0,0,0,.075.053c.005.011.011.016.016.027a.046.046,0,0,0,.011.016c.005.005.005.005.011.005s.032,0,.032-.016C270.834,306.242,270.834,306.237,270.828,306.231Zm-.166-.118a5.819,5.819,0,0,1-1.19-1.19,2.91,2.91,0,0,1-.386-.787,3.017,3.017,0,0,1-.086-.38,1.8,1.8,0,0,1-.016-.295c.005-.214.1-.452.22-.472.156-.027.209.064.311.241a1.2,1.2,0,0,1,.091.188c.07.161.123.327.177.493.086.271.177.552.271.82.064.181.139.37.214.546a7.133,7.133,0,0,0,.461.9A.275.275,0,0,0,270.662,306.113Z" transform="translate(-268.243 -302.053)" fill="#fff"/></g></g><g transform="translate(0 6.157)"><g transform="translate(0.995 3.294)"><path d="M184.851,316.3a3.3,3.3,0,0,1-2.245.038,2.254,2.254,0,0,1-1.372-1.645c-.021-.22,0-.365.246-.317a2.791,2.791,0,0,1,1.029.622,7.311,7.311,0,0,0,1.216.755c.3.145.621.262.927.4.038.016.075.032.118.053a.159.159,0,0,1,.043.021.032.032,0,0,0,.021-.005c.016,0,.027,0,.032.011l.011.011a.04.04,0,0,1-.027.055Z" transform="translate(-181.228 -314.372)" fill="#263238"/><path d="M185.406,316.766a2.85,2.85,0,0,1-1.945-.038,3.127,3.127,0,0,1-.75-.606c-.1-.107-.4-.423-.337-.584.113-.295,1.1.611,1.233.691a3.215,3.215,0,0,0,1.581.452c.038.016.075.032.118.053a3.544,3.544,0,0,1-1.157-.193,5.33,5.33,0,0,1-1.291-.836c-.1-.064-.386-.295-.439-.1-.038.123.252.434.317.5a3.185,3.185,0,0,0,.707.578,2.911,2.911,0,0,0,1.956.081C185.4,316.756,185.4,316.76,185.406,316.766Z" transform="translate(-181.756 -314.886)" fill="#fff"/></g><g transform="translate(3.464 1.224)"><path d="M187.488,314.882v.1c0,.011-.005.016-.011.016a.033.033,0,0,1-.043-.005.019.019,0,0,1-.005-.016v-.011a.049.049,0,0,1,.005-.027h0l-.005-.005c-.23-.461-.386-.954-.621-1.415-.226-.439-.482-.859-.675-1.312-.123-.284-.638-1.741.064-1.693.311.021.6.407.761.638a3.19,3.19,0,0,1,.466,1.029A10.394,10.394,0,0,1,187.488,314.882Z" transform="translate(-185.835 -310.509)" fill="#263238"/><path d="M187.819,313.734a3.855,3.855,0,0,0-.317-1c-.053-.107-.311-.633-.493-.578-.118.032-.09.271-.086.354a3.168,3.168,0,0,0,.337.97,13.728,13.728,0,0,1,.654,1.956c.005.043.005.086.011.128a.661.661,0,0,0,.011.107.091.091,0,0,0,.005.038v.027a.033.033,0,0,0,.043.005c0-.027-.005-.059-.005-.086l.016.064h0v-.091a.847.847,0,0,0-.027-.113C187.927,314.935,187.921,314.329,187.819,313.734Zm.086,1.559c-.1-.391-.22-.772-.354-1.152-.107-.305-.23-.606-.365-.9a2.972,2.972,0,0,1-.193-.514c-.032-.136-.118-.643.209-.386a2.086,2.086,0,0,1,.461.938,5.014,5.014,0,0,1,.171.932c.037.363.048.725.069,1.083Z" transform="translate(-186.337 -311.274)" fill="#fff"/></g><g transform="translate(2.684 5.869)"><path d="M187.622,320.84h0l-.027.011a3.843,3.843,0,0,1-2.213.021,1.736,1.736,0,0,1-1-1.388c.021-.654,1.013-.08,1.27.053a21.388,21.388,0,0,1,1.977,1.266l.011.011h0C187.649,320.824,187.638,320.835,187.622,320.84Z" transform="translate(-184.38 -319.178)" fill="#263238"/><path d="M188.136,321.314l-.128-.048c-.5-.188-.991-.4-1.468-.627-.123-.059-1.018-.578-1.082-.311-.038.161.271.407.37.488a2.07,2.07,0,0,0,.606.348,5.472,5.472,0,0,0,1.6.166.356.356,0,0,1,.075.005c.005,0,.011.005.016.005h0C188.136,321.333,188.147,321.323,188.136,321.314Zm-1.4-.107a2.147,2.147,0,0,1-.659-.271c-.136-.086-.616-.4-.543-.588.038-.1.1-.064.214-.032.053.016.107.032.161.053a3.913,3.913,0,0,1,.37.177c.214.113.429.214.654.317.359.166.724.311,1.093.452a12.59,12.59,0,0,1-1.291-.109Z" transform="translate(-184.879 -319.677)" fill="#fff"/></g><g transform="translate(5.839 3.756)"><path d="M191.3,317.369a4.045,4.045,0,0,1-.74,2.251l-.011.011a.033.033,0,0,1-.038-.005.027.027,0,0,1-.005-.038.3.3,0,0,0,.027-.043c-.075-.938-.139-1.87-.236-2.808-.021-.22-.136-1.628.332-1.495.289.086.423.643.5.895A4.03,4.03,0,0,1,191.3,317.369Z" transform="translate(-190.268 -315.233)" fill="#263238"/><path d="M191.005,316.943c-.038-.07-.1-.145-.171-.07-.145.136-.075.793-.064.981.038.761.011,1.506-.021,2.261,0,.064-.005.128-.005.193l-.032.064a.033.033,0,0,0,.038.005v-.021c.011-.027.027-.059.038-.086h0a4.729,4.729,0,0,0,.407-2.379A2.378,2.378,0,0,0,191.005,316.943Zm-.226,3.279c-.005.016-.011.027-.016.043a.406.406,0,0,0,.005-.081,12.892,12.892,0,0,0,.064-1.764c-.011-.3-.038-.595-.038-.895,0-.123-.011-.482.075-.557s.113.059.139.136c.016.053.038.156.053.209a4.664,4.664,0,0,1-.283,2.909Z" transform="translate(-190.474 -315.98)" fill="#fff"/></g><path d="M186.885,319.6l-.136.027-.081-.354c-.113-.472-.23-.95-.359-1.42-.07-.268-.145-.536-.23-.8a.048.048,0,0,1-.005-.027c-.005-.021-.016-.043-.021-.064s-.016-.043-.021-.07a6.075,6.075,0,0,0-.82-1.661c-.123-.166-.252-.332-.391-.488a.307.307,0,0,0-.038-.043c-.005-.005-.005-.011-.011-.011a.347.347,0,0,0-.043-.048.234.234,0,0,1-.032-.038c-.423-.482-.884-.932-1.334-1.388-.128-.128-.257-.262-.38-.4-.011-.005-.016-.016-.021-.021a.136.136,0,0,1-.027-.027c-.563-.584-1.115-1.168-1.693-1.736-.021-.021.016-.048.032-.032.386.375.783.74,1.179,1.109.053.048.107.1.156.145.1.1.209.193.311.289.209.193.413.391.611.588a19.579,19.579,0,0,1,1.65,1.747c.038.048.075.1.107.145.021.032.043.059.064.09a1.237,1.237,0,0,1,.075.1,6.332,6.332,0,0,1,.89,2.025c.016.048.027.1.043.15a.346.346,0,0,0,.021.07.1.1,0,0,0,.011.038c.005.016.005.032.011.048h0a.136.136,0,0,0,.011.038l.032.128c.118.472.23.95.337,1.42C186.809,319.3,186.847,319.451,186.885,319.6Z" transform="translate(-180.235 -309.513)" fill="#263238"/><g transform="translate(0 0)"><path d="M180.228,310.487c-.472-.418-1.152-1.345-.718-1.99a.588.588,0,0,1,.755-.214,1.74,1.74,0,0,1,.7.82c.429.814.772,1.661,1.259,2.449.005.005.043.07.053.086s-.016.027-.027.016c-.016-.027-.032-.053-.048-.075A7.7,7.7,0,0,1,180.228,310.487Z" transform="translate(-179.371 -308.223)" fill="#263238"/><path d="M182.834,312.183c-.005-.005-.005-.011-.011-.011a6.869,6.869,0,0,1-.477-.568,12.158,12.158,0,0,1-.82-1.308c-.1-.171-.546-1.029-.8-.6a.8.8,0,0,0,.032.627,2.391,2.391,0,0,0,.455.793,4.191,4.191,0,0,0,1.484,1.024c.027.011.048.027.075.038a.074.074,0,0,1,.016.021c.005.005.005.011.011.011s.005.005.011.005a.02.02,0,0,0,.027-.016A.02.02,0,0,0,182.834,312.183Zm-.166-.07a5,5,0,0,1-1.248-.825,2.56,2.56,0,0,1-.477-.622,2.155,2.155,0,0,1-.139-.322,1.932,1.932,0,0,1-.07-.252c-.032-.188.005-.407.107-.452.136-.053.193.016.317.156a.99.99,0,0,1,.113.15,3.792,3.792,0,0,1,.241.4c.123.226.252.452.386.67.09.15.188.295.289.439a6.459,6.459,0,0,0,.563.7A.527.527,0,0,0,182.668,312.113Z" transform="translate(-179.979 -308.852)" fill="#fff"/></g></g><g transform="translate(54.468)"><g transform="translate(0)"><g transform="translate(2.588 1.406)"><path d="M288.027,302.573c-.22.8-.5,1.586-.782,2.368-.161.445-.327.884-.488,1.329a3.388,3.388,0,0,0-.343,1.511h0a.284.284,0,0,1-.005.07.005.005,0,0,1-.005.005c-.027.027-.1.021-.1-.032a.1.1,0,0,0-.005-.038c0-.005-.005-.005-.005-.011a1.9,1.9,0,0,1-.113-.452,10.785,10.785,0,0,1-.23-1.243,10.368,10.368,0,0,1-.027-2.578,8.674,8.674,0,0,1,.574-2.234,4.6,4.6,0,0,1,1.082-1.816c.461-.348.7.354.766.707A5.51,5.51,0,0,1,288.027,302.573Z" transform="translate(-285.853 -299.357)" fill="#455a64"/><path d="M287.73,301.928c-.3-.043-.654.884-.825,1.286a8.322,8.322,0,0,0-.552,1.967,10.834,10.834,0,0,0,.091,3.649c.011.048.016.1.027.145a.019.019,0,0,0,.005.011.068.068,0,0,0,.005.032.06.06,0,0,0,.1.032,2.862,2.862,0,0,1,0-.305c0-.091.005-.181.011-.271a14.753,14.753,0,0,1,.616-2.92C287.534,304.436,288.127,301.988,287.73,301.928Zm-1.211,6.73q-.008.2,0,.4l-.048-.3a12.014,12.014,0,0,1-.1-3.22,8.406,8.406,0,0,1,.4-1.773,8.89,8.89,0,0,1,.37-.9c.059-.123.4-.895.573-.83.123.048.048.777.048.793-.016.145-.038.289-.059.439-.048.3-.113.595-.181.89-.15.638-.343,1.27-.514,1.9a11.335,11.335,0,0,0-.489,2.6Z" transform="translate(-286.034 -300.551)" fill="#fff"/></g><g transform="translate(2.632 6.587)"><path d="M292.422,310.015a7.783,7.783,0,0,1-2.8,2.224c-.568.3-1.147.574-1.715.859a8.6,8.6,0,0,0-1.495.836c-.021.016-.038.032-.059.048a2.552,2.552,0,0,0-.337.343c-.011.011-.016.016-.027.011a.116.116,0,0,1-.027.043.011.011,0,0,1-.021-.005c.005-.016.011-.038.016-.053v-.005a.033.033,0,0,1,.005-.043c.005-.005.005-.011.011-.016s.011-.032.016-.053a7.985,7.985,0,0,1,2.277-3.2,6.661,6.661,0,0,1,3.119-1.833c.3-.07,1-.271,1.254,0C292.872,309.422,292.572,309.806,292.422,310.015Z" transform="translate(-285.937 -309.028)" fill="#455a64"/><path d="M291.586,310.561c-.22-.3-1.082.23-1.3.354a13.136,13.136,0,0,0-1.809,1.3,11.409,11.409,0,0,0-2.454,2.623h0l-.032.032c-.005.016-.011.038-.016.053s-.011.011-.011.016a.032.032,0,0,0,0,.043c.016-.011.027-.027.043-.038.113-.1.23-.2.348-.3.021-.016.038-.032.059-.048a24.036,24.036,0,0,1,2.674-1.736,12.006,12.006,0,0,0,1.8-1.3C291.034,311.434,291.773,310.813,291.586,310.561Zm-.322.536a11.51,11.51,0,0,1-3.1,2.229,12.837,12.837,0,0,0-2.052,1.442,12.352,12.352,0,0,1,2.256-2.352,17.677,17.677,0,0,1,1.479-1.131,6.744,6.744,0,0,1,.873-.509,3,3,0,0,1,.568-.209C291.666,310.518,291.4,310.931,291.264,311.1Z" transform="translate(-285.947 -309.697)" fill="#fff"/></g><g transform="translate(0 7.019)"><path d="M283.187,317.209a.06.06,0,0,1-.059.021c.005.005.005.016.011.021a.024.024,0,0,1-.005.027.019.019,0,0,1-.015,0,.019.019,0,0,1-.012-.009,10.992,10.992,0,0,1-1.95-4.008,5.642,5.642,0,0,1-.1-1.849c.048-.423.156-1.27.557-1.521.814-.509,1.086,2.2,1.125,2.6.075.745.086,1.489.139,2.234.064.814.188,1.624.311,2.428A.067.067,0,0,1,283.187,317.209Z" transform="translate(-281.025 -309.832)" fill="#455a64"/><path d="M283.6,318.1c-.032-.07-.059-.145-.086-.22a12.271,12.271,0,0,1-.783-3.692,11.737,11.737,0,0,0-.209-1.892c-.038-.156-.136-.734-.418-.487a4.269,4.269,0,0,0-.188,1.474,7.637,7.637,0,0,0,.322,1.875,12.58,12.58,0,0,0,1.259,2.936l.048.081c.011-.005.016-.016.005-.027s-.005-.011-.011-.021C283.563,318.12,283.59,318.114,283.6,318.1Zm-1.136-2.46a9.007,9.007,0,0,1-.439-1.838,6.957,6.957,0,0,1-.043-.75,3.6,3.6,0,0,1,.038-.588c.075-.477.128-.595.214-.6.048,0,.113.059.209.365a2.937,2.937,0,0,1,.118.611c.032.289.053.584.075.879.037.584.07,1.173.156,1.752a9.537,9.537,0,0,0,.664,2.428A15.084,15.084,0,0,1,282.465,315.639Z" transform="translate(-281.438 -310.721)" fill="#fff"/></g><g transform="translate(2.093 11.221)"><path d="M288.616,318.829a3.645,3.645,0,0,1-.868,1.28c-.724.74-1.591,1.312-2.363,2-.113.1-.23.209-.337.317-.011.011-.113.171-.107.161s.021-.07.059-.177h0a15.018,15.018,0,0,1,1.329-2.92,7.493,7.493,0,0,1,1.179-1.357c.214-.181.718-.573,1.034-.423C288.879,317.867,288.707,318.572,288.616,318.829Z" transform="translate(-284.935 -317.675)" fill="#455a64"/><path d="M288.124,319.022c-.317-.268-1.463,1.211-1.613,1.4a10.575,10.575,0,0,0-1.4,2.31c-.043.09-.081.188-.123.279-.038.107-.059.171-.059.177s.1-.145.113-.161a.594.594,0,0,1,.059-.053c.09-.091.188-.177.279-.257.477-.53.97-1.05,1.442-1.591a9.886,9.886,0,0,0,.927-1.232C287.812,319.793,288.264,319.14,288.124,319.022Zm-.166.445a20.777,20.777,0,0,1-2.849,3.424.472.472,0,0,1-.048.053c.016-.032.032-.07.048-.107a11.57,11.57,0,0,1,1.131-1.929,12.538,12.538,0,0,1,.863-1.056,5.461,5.461,0,0,1,.52-.536c.086-.07.322-.247.386-.2.1.063,0,.263-.05.354Z" transform="translate(-284.931 -318.285)" fill="#fff"/></g><g transform="translate(4.953)"><path d="M296.327,298.03c-1.4,2.24-4.3,2.952-5.824,5.085-.005.005-.005.005-.005.011-.048.064-.09.136-.136.2a.047.047,0,0,1-.081,0,.041.041,0,0,1,0-.043l.032-.048a12.617,12.617,0,0,1,2.084-3.976,6.378,6.378,0,0,1,2.958-2.342c.3-.1.895-.327,1.173-.043C296.82,297.177,296.5,297.75,296.327,298.03Z" transform="translate(-290.271 -296.734)" fill="#455a64"/><path d="M295.37,299.03c-.118-.118-.337-.027-.461.016a4.109,4.109,0,0,0-.873.423,6.659,6.659,0,0,0-1.484,1.312,13.874,13.874,0,0,0-1.935,2.792c-.118.23-.22.461-.317.7-.011.027-.021.059-.032.086a.05.05,0,0,0,.081,0c.043-.07.086-.128.128-.193.005-.005.005-.011.011-.016a8.256,8.256,0,0,1,.943-1.254,19.407,19.407,0,0,1,1.833-1.618C293.527,301.071,295.782,299.437,295.37,299.03Zm-.248.531a9.207,9.207,0,0,1-1.457,1.318c-.5.418-1.013.83-1.511,1.259a9.329,9.329,0,0,0-1.1,1.109,6.9,6.9,0,0,0-.74,1.066,9.889,9.889,0,0,1,.584-1.136c.005-.005.005-.011.011-.011a19.051,19.051,0,0,1,1.308-1.865c.005-.005.011-.016.016-.021a8.246,8.246,0,0,1,1.393-1.441,4.884,4.884,0,0,1,.927-.579c.375-.171.7-.271.766-.15C295.365,299.2,295.241,299.41,295.122,299.56Z" transform="translate(-290.268 -297.772)" fill="#fff"/></g></g><path d="M289.7,303.348c-.412.627-.814,1.27-1.211,1.913-.188.3-.375.606-.557.9-.005.005-.011.011-.011.016-.064.107-.136.22-.2.327a21.917,21.917,0,0,0-1.7,3.059,9.8,9.8,0,0,0-.514,1.764c-.011.064-.027.123-.038.188h0c-.005.032-.011.07-.016.1-.005.016-.005.038-.011.059-.1.525-.166,1.05-.236,1.565-.09.718-.139,1.436-.171,2.154a.264.264,0,0,0-.005.064.585.585,0,0,0-.005.1v.048c0,.032-.005.059-.005.09-.011.23-.021.461-.038.7l-.22-.032a14.41,14.41,0,0,1,.048-2.149.118.118,0,0,1,.005-.043c.005-.07.011-.139.021-.209.005-.086.016-.171.027-.257.021-.2.048-.407.075-.611a14.913,14.913,0,0,1,.772-3.494c.011-.032.027-.059.038-.09.005-.011.011-.027.016-.038a.33.33,0,0,1,.027-.064l.043-.1a1.892,1.892,0,0,1,.086-.181c.011-.016.016-.038.027-.053a23.7,23.7,0,0,1,1.634-2.727c.107-.161.209-.322.317-.477.059-.086.118-.177.177-.262q.136-.2.271-.4c.005-.005.005-.011.011-.011.434-.622.879-1.238,1.308-1.865C289.672,303.289,289.72,303.321,289.7,303.348Z" transform="translate(-282.746 -299.787)" fill="#455a64"/></g><g transform="translate(75.017 11.417)"><g transform="translate(0 0)"><g transform="translate(2.588 1.408)"><path d="M326.377,323.883c-.22.8-.5,1.586-.782,2.368-.161.445-.327.884-.488,1.329a3.387,3.387,0,0,0-.343,1.511h0a.287.287,0,0,1-.005.07.005.005,0,0,1-.005.005c-.027.027-.1.021-.1-.032a.1.1,0,0,0-.005-.038c0-.005-.005-.005-.005-.011a1.9,1.9,0,0,1-.113-.452,10.815,10.815,0,0,1-.23-1.243,10.374,10.374,0,0,1-.027-2.578,8.678,8.678,0,0,1,.573-2.234,4.605,4.605,0,0,1,1.082-1.816c.461-.348.7.354.766.707a5.51,5.51,0,0,1-.316,2.414Z" transform="translate(-324.203 -320.667)" fill="#455a64"/><path d="M326.09,323.238c-.3-.043-.654.884-.825,1.286a8.319,8.319,0,0,0-.552,1.967,10.834,10.834,0,0,0,.09,3.649c.011.048.016.1.027.145a.018.018,0,0,0,.005.011.068.068,0,0,0,.005.032.06.06,0,0,0,.1.032,2.926,2.926,0,0,1,0-.305c0-.091.005-.181.011-.271a14.759,14.759,0,0,1,.616-2.92C325.887,325.746,326.481,323.3,326.09,323.238Zm-1.219,6.73q-.008.2,0,.4c-.016-.1-.032-.2-.048-.3a12.006,12.006,0,0,1-.1-3.22,8.406,8.406,0,0,1,.4-1.774,8.9,8.9,0,0,1,.37-.9c.059-.123.4-.895.573-.83.123.048.048.777.048.793-.016.145-.038.29-.059.439-.048.3-.113.595-.181.89-.15.638-.343,1.27-.514,1.9A11.637,11.637,0,0,0,324.872,329.969Z" transform="translate(-324.388 -321.861)" fill="#fff"/></g><g transform="translate(2.632 6.582)"><path d="M330.772,331.315a7.782,7.782,0,0,1-2.8,2.223c-.568.3-1.147.574-1.715.859a8.6,8.6,0,0,0-1.495.836c-.021.016-.038.032-.059.048a2.563,2.563,0,0,0-.337.343c-.011.011-.016.016-.027.011a.117.117,0,0,1-.027.043.011.011,0,0,1-.021-.005c.005-.016.011-.038.016-.053v-.005a.033.033,0,0,1,.005-.043c.005-.005.005-.011.011-.016s.011-.032.016-.053a7.985,7.985,0,0,1,2.277-3.2,6.661,6.661,0,0,1,3.119-1.833c.3-.07,1-.271,1.254,0C331.222,330.726,330.922,331.106,330.772,331.315Z" transform="translate(-324.287 -330.328)" fill="#455a64"/><path d="M329.936,331.871c-.22-.3-1.082.23-1.3.354a13.131,13.131,0,0,0-1.809,1.3,11.412,11.412,0,0,0-2.454,2.623h0l-.032.032c-.005.016-.011.038-.016.053s-.011.011-.011.016a.033.033,0,0,0,0,.043c.016-.011.027-.027.043-.038.113-.1.23-.2.348-.3.021-.016.038-.032.059-.048a24.045,24.045,0,0,1,2.674-1.736,12,12,0,0,0,1.8-1.3C329.389,332.745,330.123,332.123,329.936,331.871Zm-.322.536a11.514,11.514,0,0,1-3.1,2.229,12.828,12.828,0,0,0-2.052,1.441,12.189,12.189,0,0,1,2.256-2.352,17.7,17.7,0,0,1,1.479-1.131,6.744,6.744,0,0,1,.873-.509,3.007,3.007,0,0,1,.568-.209C330.016,331.828,329.753,332.242,329.614,332.407Z" transform="translate(-324.297 -331.001)" fill="#fff"/></g><g transform="translate(0 7.02)"><path d="M321.537,338.519a.06.06,0,0,1-.059.021c.005.005.005.016.011.021a.024.024,0,0,1-.005.027.019.019,0,0,1-.027-.005,10.99,10.99,0,0,1-1.95-4.008,5.64,5.64,0,0,1-.1-1.849c.048-.423.156-1.27.557-1.521.814-.509,1.086,2.2,1.125,2.6.075.745.086,1.489.139,2.234.064.814.188,1.624.311,2.428C321.548,338.492,321.548,338.508,321.537,338.519Z" transform="translate(-319.375 -331.142)" fill="#455a64"/><path d="M321.95,339.4c-.032-.07-.059-.145-.086-.22a12.269,12.269,0,0,1-.782-3.692,11.748,11.748,0,0,0-.209-1.892c-.038-.156-.136-.734-.418-.488a4.269,4.269,0,0,0-.188,1.474,7.638,7.638,0,0,0,.322,1.875,12.578,12.578,0,0,0,1.259,2.936l.048.081c.011-.005.016-.016.005-.027s-.005-.011-.011-.021a.063.063,0,0,0,.059-.027Zm-1.136-2.454a9,9,0,0,1-.439-1.838,6.957,6.957,0,0,1-.043-.75,3.589,3.589,0,0,1,.038-.588c.075-.477.128-.595.214-.6.048,0,.113.059.209.365a2.933,2.933,0,0,1,.118.611c.032.289.053.584.075.879.038.584.07,1.173.156,1.752a9.542,9.542,0,0,0,.664,2.427A15.648,15.648,0,0,1,320.815,336.944Z" transform="translate(-319.788 -332.027)" fill="#fff"/></g><g transform="translate(2.098 11.223)"><path d="M326.966,340.14a3.646,3.646,0,0,1-.868,1.28c-.724.74-1.591,1.312-2.363,2-.113.1-.23.209-.337.317-.011.011-.113.171-.107.161s.021-.07.059-.177h0a15.018,15.018,0,0,1,1.329-2.92,7.489,7.489,0,0,1,1.179-1.357c.214-.181.718-.573,1.034-.423C327.234,339.176,327.057,339.883,326.966,340.14Z" transform="translate(-323.291 -338.986)" fill="#455a64"/><path d="M326.484,340.332c-.317-.268-1.463,1.211-1.613,1.4a10.576,10.576,0,0,0-1.4,2.309c-.043.091-.081.188-.123.279-.038.107-.059.171-.059.177s.1-.145.113-.161a.594.594,0,0,1,.059-.053c.091-.09.188-.177.279-.257.482-.531.97-1.05,1.441-1.591a9.881,9.881,0,0,0,.927-1.233C326.168,341.1,326.624,340.45,326.484,340.332Zm-.171.439a20.759,20.759,0,0,1-2.849,3.424.483.483,0,0,1-.048.053c.016-.032.032-.07.048-.107a11.58,11.58,0,0,1,1.131-1.929,12.546,12.546,0,0,1,.863-1.056,5.454,5.454,0,0,1,.52-.536c.086-.07.322-.247.386-.2.1.071,0,.269-.05.355Z" transform="translate(-323.291 -339.596)" fill="#fff"/></g><g transform="translate(4.959)"><path d="M334.687,319.337c-1.4,2.24-4.3,2.952-5.824,5.085-.005.005-.005.005-.005.011-.048.064-.09.136-.136.2a.05.05,0,0,1-.081,0,.041.041,0,0,1,0-.043l.032-.048a12.614,12.614,0,0,1,2.084-3.976,6.378,6.378,0,0,1,2.958-2.342c.3-.1.895-.327,1.173-.043C335.18,318.485,334.858,319.059,334.687,319.337Z" transform="translate(-328.631 -318.041)" fill="#455a64"/><path d="M333.73,320.34c-.118-.118-.337-.027-.461.016a4.108,4.108,0,0,0-.873.423,6.66,6.66,0,0,0-1.484,1.312,14.019,14.019,0,0,0-1.935,2.792c-.118.23-.22.461-.317.7-.011.027-.021.059-.032.086a.05.05,0,0,0,.081,0c.043-.07.086-.128.128-.193.005-.005.005-.011.011-.016a8.249,8.249,0,0,1,.943-1.254,19.4,19.4,0,0,1,1.833-1.618C331.882,322.381,334.138,320.742,333.73,320.34Zm-.252.531a9.474,9.474,0,0,1-1.457,1.318c-.5.418-1.013.83-1.511,1.259a9.329,9.329,0,0,0-1.1,1.109,6.886,6.886,0,0,0-.74,1.066,9.873,9.873,0,0,1,.584-1.136c.005-.005.005-.011.011-.011a19.034,19.034,0,0,1,1.308-1.865c.005-.005.011-.016.016-.021a8.249,8.249,0,0,1,1.393-1.442,4.883,4.883,0,0,1,.927-.578c.375-.171.7-.271.766-.15.043.086-.075.3-.2.451Z" transform="translate(-328.629 -319.081)" fill="#fff"/></g></g><path d="M328.059,324.657c-.412.627-.814,1.27-1.211,1.913-.188.3-.375.606-.557.9-.005.005-.011.011-.011.016-.064.107-.136.22-.2.327a21.917,21.917,0,0,0-1.7,3.059,9.805,9.805,0,0,0-.514,1.764c-.011.064-.027.123-.038.188h0c-.005.032-.011.07-.016.1s-.005.038-.011.059c-.1.525-.166,1.05-.236,1.565-.091.718-.139,1.436-.171,2.154a.264.264,0,0,0-.005.064.578.578,0,0,0-.005.1v.048c0,.032-.005.059-.005.09-.011.23-.021.461-.038.7l-.22-.032a14.412,14.412,0,0,1,.048-2.148.118.118,0,0,1,.005-.043c.005-.07.011-.139.021-.209.005-.086.016-.171.027-.257.021-.2.048-.407.075-.611a14.915,14.915,0,0,1,.772-3.494c.011-.032.027-.059.038-.09.005-.011.011-.027.016-.038a.327.327,0,0,1,.027-.064l.043-.1a1.878,1.878,0,0,1,.086-.181c.011-.016.016-.038.027-.053a23.7,23.7,0,0,1,1.634-2.727c.107-.161.209-.322.317-.477.059-.086.118-.177.177-.262q.136-.2.271-.4c.005-.005.005-.011.011-.011.434-.621.879-1.238,1.308-1.865C328.027,324.6,328.075,324.631,328.059,324.657Z" transform="translate(-321.101 -321.095)" fill="#455a64"/></g></g><g transform="translate(0 2.335)"><g transform="translate(20.556 0)"><path d="M258.116,332.893H164.421s-.348-9.131,2.963-12.42,6.5-4.11,7.582-4.828a61.213,61.213,0,0,0,7.083-6.4c2.417-2.578,5.9-6.441,7.695-6.8s10.025-1.8,11.724-1.221,10.893,7.237,11.879,7.528,18.725,7.453,20.335,7.727,10.813,2.442,14.853,4.426C254.086,323.62,258.116,332.893,258.116,332.893Z" transform="translate(-164.411 -301.092)" fill="#263238"/><path d="M255.4,317.019c-4.116.188-10.208,3.826-11.413,4.387-1.773.825-12.438-2.148-16.645-2.508s-5.546-5.578-5.292-6.423-4.6-2.347-3.992-4.362c.354-1.179,11.3-3.528,11.3-3.528,3.354,2.171,8.171,5.578,8.868,5.782C238.988,310.595,249.813,314.951,255.4,317.019Z" transform="translate(-189.287 -302.714)" fill="#37474f"/><path d="M204.949,325.168c.081-1.388,4.7-3.783,5.9-3.563a8.4,8.4,0,0,1,3.89,2.99c.332.777,1.881,4.533.4,4.56s-4.3-2.122-5.841-2.2S204.881,326.311,204.949,325.168Z" transform="translate(-183.227 -310.607)" fill="#37474f"/><path d="M269.728,336.194c-.289-.868,3.992-2.55,5.107-2.4s2.186,1.982,1.205,2.465-2.427-.2-3.183,0S269.948,336.853,269.728,336.194Z" transform="translate(-213.29 -316.268)" fill="#37474f"/></g><path d="M146.516,358.555H126.606c-2.143,0,2.449-5.3,4.324-6.076s6.785-.332,7.994.52,6.318,3.566,6.945,4.019A1.476,1.476,0,0,1,146.516,358.555Z" transform="translate(-126.048 -324.758)" fill="#37474f"/><g transform="translate(92.318 25.584)"><path d="M298.34,357.5h40.508a9.2,9.2,0,0,0-3.992-2.583c-2.09-.457-6.842-1.822-7.7-2.583s-8.075-3.569-10.834-3.494-7.319,2.583-7.984,3.194-3,2.888-3.754,3.076S300.215,355.751,298.34,357.5Z" transform="translate(-298.34 -348.838)" fill="#37474f"/><path d="M346.082,354.4a12.432,12.432,0,0,1-2.342.166c-.327-.027-3.5-1.275-4.672-1.4s-7.5-.343-7.957-.9c-.348-.418,2.068-1.736,3.654-2.422a32.75,32.75,0,0,1,7.587,2.958,13.589,13.589,0,0,0,3.52,1.447C345.948,354.3,346.018,354.356,346.082,354.4Z" transform="translate(-313.536 -349.308)" fill="#455a64"/><path d="M339.29,357.689c-.005-.284,2.1-.493,2.588-.429s2.567.782,2.159.922a6.7,6.7,0,0,1-2.042.209C341.31,358.348,339.29,358,339.29,357.689Z" transform="translate(-317.348 -352.742)" fill="#455a64"/></g></g></g></g></g><g transform="translate(41.823 132.498)"><g transform="translate(0 0)"><g transform="translate(39.454 14.729)"><g transform="translate(2.401 0)"><path d="M126.16,294.258c9.259,6.542,37.6,20.677,50.205,18.738,8.487-1.308,29.7-21.127,33.634-27.817,1.607-2.738-18.186-19.494-21.02-17.628-3.087,2.031-16.23,20.806-18.668,21.513s-25.944-3.257-39.04-3.911C123.415,284.758,121.923,291.263,126.16,294.258Z" transform="translate(-123.841 -243.245)" fill="#f7a9a0"/><g transform="translate(58.688 0.001)"><g transform="translate(0.006)"><path d="M256.159,269.905c4.433-3.793,16.139-20.227,17.72-23.972s5.353-14.869,2.609-16.369-4.116,1.661-4.116,1.661,1.007-5.4-2.052-6.21c-2.442-.643-4.6,3.713-4.6,3.713s.793-5.98-2.347-6.392c-2.861-.375-4,4.908-4,4.908s.156-5.069-2.669-4.9c-3.4.2-3.676,8.975-5.733,12.981-.466.911-17.595,18.411-17.595,18.411Z" transform="translate(-233.382 -222.317)" fill="#f7a9a0"/><g transform="translate(20.775 4.5)"><path d="M277.172,230.954c-.873,6.553-1.431,9.238-5,14.494-.07.1.07.23.15.128,3.965-4.828,4.849-7.968,5.165-14.628C277.5,230.627,277.215,230.649,277.172,230.954Z" transform="translate(-272.154 -230.716)" fill="#263238"/><path d="M288.807,234.1c-.809,6.682-2.208,9.591-5.546,15.373-.048.081.086.171.139.09,3.746-5.4,5.69-8.707,5.626-15.491C289.022,233.767,288.845,233.794,288.807,234.1Z" transform="translate(-277.305 -232.174)" fill="#263238"/><path d="M300.211,239.231c-1.254,6.414-2.518,9.8-6.478,14.992a.12.12,0,0,0,.181.156c4.549-4.9,6.167-9.12,6.489-15.089C300.425,238.883,300.291,238.829,300.211,239.231Z" transform="translate(-282.161 -234.541)" fill="#263238"/></g></g><g transform="translate(0 6.751)"><path d="M233.37,259.588s3.215-6.95,4.581-10.325,3.9-13.433,6.9-14.28c3.381-.95,4.035,8.477,1.65,14.51,0,0,8.354,6.623,6.332,12.533-.434,1.28-5.069,6.473-6.607,6.687Z" transform="translate(-233.37 -234.917)" fill="#f7a9a0"/><path d="M257.517,262.843c3.343,2.465,6.612,6.853,6.306,10.979a.1.1,0,0,0,.188.032c.932-4.383-2.808-9.495-5.925-11.515C257.485,261.949,256.649,262.206,257.517,262.843Z" transform="translate(-244.405 -247.56)" fill="#263238"/></g></g><path d="M213.7,222.863l-11.113,32.074-3.622,10.454-5.567,16.064c-6.419,5.412-13.09,10-17.029,10.609-12.6,1.94-40.942-12.2-50.2-18.738-4.239-3-2.743-9.5,5.106-9.1,13.1.659,36.6,4.624,39.04,3.911,1.549-.452,7.443-8.22,12.313-14.333l-.086-.064s3.215-6.95,4.576-10.325,3.89-13.433,6.9-14.28c2.572-.724,3.563,4.57,2.835,9.8,1.849-1.945,3.151-3.365,3.274-3.606,2.058-4.013,2.336-12.785,5.733-12.988,2.824-.171,2.669,4.9,2.669,4.9s1.141-5.283,4-4.908A2.092,2.092,0,0,1,213.7,222.863Z" transform="translate(-123.843 -222.314)" opacity="0.1"/></g><g transform="translate(0 41.122)"><path d="M161.011,329.532l6.714-26.428s-26.266-4.19-39.158-4.04c-10.834.128-13.2,7.85-1.141,14.719C138.838,320.283,161.011,329.532,161.011,329.532Z" transform="translate(-119.362 -299.059)" fill="#ebebeb"/><path d="M192.169,309a41.844,41.844,0,0,0-1.543,4.721c-.5,1.634-.927,3.279-1.372,4.924s-1.95,8.263-2.325,9.913c-.016.075.118.1.139.021.5-1.634,2.488-8.118,2.91-9.73s.863-3.226,1.238-4.849a42.324,42.324,0,0,0,1.034-4.978C192.255,308.992,192.185,308.966,192.169,309Z" transform="translate(-150.724 -303.667)" fill="#263238"/><path d="M162.991,322.069l-1.977,7.775s-22.167-9.248-33.58-15.753c-10.593-6.039-10.057-12.731-2.422-14.344Z" transform="translate(-119.365 -299.379)" opacity="0.1"/></g></g><g transform="translate(0 55.3)"><path d="M120.437,387.744l-74.707-.128c.188-1.538,15.769-70.83,33.843-86.793,6.2-5.481,18.079-1.409,19.568-.193C113.592,312.428,121.522,386.844,120.437,387.744Z" transform="translate(-45.73 -298.031)" fill="#ffc727"/><path d="M121.134,385.525H47.33c.482-2.052,1.147-4.822,1.99-8.112h71.048C120.727,380.686,120.99,383.456,121.134,385.525Zm-2.759-23.212H53.406c-.82,2.84-1.57,5.556-2.262,8.112h68.372c-.338-2.556-.718-5.278-1.143-8.112Zm-2.551-15.089H58.046c-.9,2.727-1.758,5.449-2.572,8.112h61.791c-.445-2.669-.921-5.385-1.441-8.112Zm-3.241-15.1H63.458c-1.045,2.658-2.052,5.374-3.022,8.112h53.995C113.847,337.493,113.231,334.771,112.584,332.124Zm-4.433-15.089H70.188c-1.312,2.533-2.6,5.262-3.847,8.112h44.4C109.919,322.277,109.056,319.554,108.151,317.035Zm-8.268-14.6a4.668,4.668,0,0,0-.873-.5H81.2a9.066,9.066,0,0,0-.89.7,36.525,36.525,0,0,0-6.1,7.421h31.035a22.941,22.941,0,0,0-5.363-7.62Z" transform="translate(-46.473 -299.846)" fill="#ebebeb"/></g><g transform="translate(21.639)"><g transform="translate(11.514 54.442)"><path d="M129.539,298.054l-3.874,10.759L110.849,296.43l-2.679,5.188s14.519,19.129,14.526,18.207l3.569-9.05,6.773,5.5-1.827-15.11Z" transform="translate(-107.866 -296.43)" fill="#ffc727"/><path d="M132.314,312.879c-.391-2.488-.707-5-1.216-7.463-.016-.086-.166-.113-.177-.011-.311,2.46,1.227,11.954,1.415,14.247-.011-.005-.021-.016-.032-.021-.284-.241-6.253-4.812-6.3-4.726-.82,1.457-3.445,8.053-3.612,8.648-2.3-3.038-11.965-14.971-14.622-17.8-.075-.081-.209.005-.15.1,2.081,3.242,14.6,19,14.757,18.947a96.606,96.606,0,0,0,3.724-9.564c1.029,1.018,7.11,6.237,7.094,5.862a75.53,75.53,0,0,0-.879-8.221Z" transform="translate(-107.603 -300.566)" fill="#263238"/></g><g transform="translate(0)"><g transform="translate(15.123 40.547)"><g transform="translate(0 0)"><path d="M129.349,299.006c-4.281,1.147-11.874-5.224-14.955-10.475-.209-.359.236-4.233.557-8.97.181-2.872.322-6.076.23-9.007-.021-.6,18.524,3.922,18.524,3.922a46.828,46.828,0,0,0-1.441,11.311,6.909,6.909,0,0,0,.161,1.2c.005.053.027.123.032.2C132.9,289.463,133.485,297.891,129.349,299.006Z" transform="translate(-114.34 -270.499)" fill="#f7a9a0"/></g><path d="M118.03,270.68c1,4.93,4.437,16.82,14.258,16.75a11.859,11.859,0,0,0,1.881-.156,1.083,1.083,0,0,0-.032-.2,7.552,7.552,0,0,1-.166-1.195,46.622,46.622,0,0,1,1.452-11.317S122.042,271.291,118.03,270.68Z" transform="translate(-116.053 -270.583)" fill="#263238"/></g><g transform="translate(9.873 8.303)"><path d="M104.626,223.486c-.9,6.762,5.563,24.792,10.824,28.184,7.63,4.919,18.59,3.7,22.381-5.117,3.676-8.548-5.165-31.9-10.9-34.827C118.482,207.417,105.96,213.5,104.626,223.486Z" transform="translate(-104.54 -210.321)" fill="#f7a9a0"/></g><path d="M108.313,242.321c3.664-1.114,5.085-5.717,3.767-12.913s-.859-10.111,2.288-11.97,7.716.359,9.5-.161.568-3.371,2.047-3.767c.729-.193,3.338,1.436,6.323,6.007,0,0-3.4-13.5-17.789-8.948-13.38,4.233-11.783,15.491-10.968,18.765A94.918,94.918,0,0,0,108.313,242.321Z" transform="translate(-93.932 -201.698)" fill="#263238"/><g transform="translate(4.801 1.989)"><path d="M95.086,212.18c-.295-.139,5.026-9.334,7.352-11.247s14.242-2.888,14.79-2.148S95.79,212.512,95.086,212.18Z" transform="translate(-95.074 -198.537)" fill="#ebebeb"/><path d="M117.225,198.8c.546.734-21.433,13.728-22.135,13.388a27.469,27.469,0,0,1,2.743-5.037c.005-.016.016-.016.021-.032,2-2.106,4.458-4.426,5-4.94a46.238,46.238,0,0,1,5.787-3.059C112.6,198.516,116.9,198.355,117.225,198.8Z" transform="translate(-95.077 -198.541)" opacity="0.1"/></g><path d="M96.33,225.8c-.391.136-5.98-6.9-6.928-7.855s-3.108-1.286-3.285-2.081,9.061-11.542,13.261-14.655,20.4-6.875,20.677-6.328-.171,1.956,0,3.183,2.895,10.041,2.428,10.111c-4.758.724-12.512,3.606-15.662,6.108C104.25,216.329,97.654,225.353,96.33,225.8Z" transform="translate(-86.114 -194.824)" fill="#ebebeb"/><path d="M92.306,220.688l-.766-.89c.375-.423,9.2-10.368,12.512-12.876,2.181-1.65,15.566-6.607,18.395-7.143l.271,1.173c-2.7.514-15.984,5.428-18.031,6.982C101.442,210.389,92.4,220.586,92.306,220.688Z" transform="translate(-88.633 -197.125)" fill="#ffc727"/><path d="M117.97,253.889s2.245,4.147.064,7.26-1.447,7.282.053,8.621c0,0-2.7,7.544,4.292,8.9,0,0-.477,7.673,7.984,8.455,0,0,2.54,2.588,6.794.52,0,0,6.923,1.784,9.977-3.67,0,0,7.325.686,7.625-8.1,0,0,4.613-3.7,1.286-8.557A4.465,4.465,0,0,0,155,260.463s1.758-6.007-5.615-7.534a2.723,2.723,0,0,0-2.524-2.861s-3.7-1.634-4.474-3.754c0,0,1.366,4.512-1.029,5.862a8.945,8.945,0,0,1-4.865.859s-2.94,3.778-9.77,3.649c-5.9-.113-8.541-6.366-8.541-6.366Z" transform="translate(-100.295 -218.725)" fill="#263238"/><g transform="translate(9.974 32.296)"><path d="M113.142,258.769s-5.3-5.214-7.742-3.215,2.32,10.1,5.733,10.7a3.3,3.3,0,0,0,4.025-2.551Z" transform="translate(-104.729 -255.098)" fill="#f7a9a0"/><path d="M108.6,260.206c-.053.005-.048.081,0,.09,2.406.493,3.97,2.347,5.192,4.346a1.819,1.819,0,0,0-2.77.005.07.07,0,0,0,.081.107,2.029,2.029,0,0,1,2.325.29,9.713,9.713,0,0,1,1.382,1.581c.145.181.482.005.365-.209a.216.216,0,0,1-.027-.048C114.673,263.507,111.715,259.928,108.6,260.206Z" transform="translate(-106.506 -257.462)" fill="#263238"/></g><g transform="translate(26.119 20.099)"><g transform="translate(11.352 5.435)"><path d="M156.11,245.766c-.005-.048.118.021.136.075.391,1.233,1.045,2.578,2.288,2.593.038,0,.059.064.016.07C157.128,248.788,156.281,246.994,156.11,245.766Z" transform="translate(-156.076 -243.998)" fill="#263238"/><path d="M156.718,242.6c1.907-.836,3.44,3.038,1.674,3.81C156.654,247.169,155.121,243.295,156.718,242.6Z" transform="translate(-156.047 -242.48)" fill="#263238"/></g><path d="M135.986,246.418a15.948,15.948,0,0,0,1.645-.466,2.774,2.774,0,0,0,1.586-.793.879.879,0,0,0-.075-1.072,2.188,2.188,0,0,0-2.181-.365,3.227,3.227,0,0,0-1.935,1.27A.941.941,0,0,0,135.986,246.418Z" transform="translate(-134.86 -237.564)" fill="#263238"/><path d="M155.237,234.722a15.15,15.15,0,0,1-1.709-.053,2.761,2.761,0,0,1-1.736-.386.888.888,0,0,1-.188-1.061,2.186,2.186,0,0,1,2.031-.884,3.194,3.194,0,0,1,2.181.761.944.944,0,0,1-.579,1.624Z" transform="translate(-142.586 -232.336)" fill="#263238"/><path d="M147.455,271.952a1.97,1.97,0,0,0,1.275.354,3.355,3.355,0,0,0,1.2-.766.045.045,0,0,1,.075.043,1.738,1.738,0,0,1-1.312,1.205,1.376,1.376,0,0,1-1.334-.74C147.31,271.984,147.4,271.925,147.455,271.952Z" transform="translate(-140.655 -250.527)" fill="#fff"/><g transform="translate(1.222 9.971)"><path d="M137.14,251.7a3.528,3.528,0,0,1,.927-.531,3.416,3.416,0,0,1,1.077-.226,3.058,3.058,0,0,1,1.163.188,2.978,2.978,0,0,1,1.045.713l.536.563-.724.118a7.133,7.133,0,0,0-1.495.412,2.97,2.97,0,0,0-1.28.938,2.3,2.3,0,0,1,.981-1.479,4.084,4.084,0,0,1,1.64-.686l-.188.686a2.788,2.788,0,0,0-1.656-.766,7.856,7.856,0,0,0-2.025.07Z" transform="translate(-137.14 -250.944)" fill="#263238"/><path d="M142.59,254.8a5.933,5.933,0,0,0,1.329-1.04c.086-.107.412-.557.359-.648a3.61,3.61,0,0,0-.52-.734,2.414,2.414,0,0,1,.67.67,1.131,1.131,0,0,1-.322.9A3.111,3.111,0,0,1,142.59,254.8Z" transform="translate(-139.67 -251.611)" fill="#263238"/></g><g transform="translate(6.689 2.399)"><g transform="translate(0 0)"><path d="M147.84,254.049a10.953,10.953,0,0,1,4.689-2.009c.136-.07.161-.4.136-.536l-.005-.011c-.016-.043-1.018-2.54-1.018-2.54.4.043,2.406.188,2.2-.284a65.485,65.485,0,0,0-6.125-11.805.119.119,0,0,0-.209.113c1.489,3.826,3.644,7.368,5.2,11.188a7.72,7.72,0,0,0-2.149.123c-.118.086,1.216,2.636,1.323,3.065a6.361,6.361,0,0,0-4.26,2.176C147.229,254.049,147.208,254.612,147.84,254.049Z" transform="translate(-147.344 -236.813)" fill="#263238"/></g></g><g transform="translate(6.688 14.553)"><g transform="translate(0 0)"><path d="M147.839,264.578a10.953,10.953,0,0,1,4.689-2.009c.136-.07.161-.4.136-.536l-.005-.011c-.016-.043-.922-2.293-.922-2.293-.289-.413-.959-.2-.809.07.081.295.847,1.65.954,2.081a6.36,6.36,0,0,0-4.26,2.176C147.229,264.578,147.207,265.14,147.839,264.578Z" transform="translate(-147.342 -259.496)" fill="#fff"/></g></g></g></g></g><g transform="translate(59.182 8.146)"><path d="M198.291,244.818l-41.553.332-.557-9.425,41.3-4.565Z" transform="translate(-156.18 -219.838)" fill="#37474f"/><path d="M241.7,242.765l-41.618-.852L199.21,227.2l41.226-5.755Z" transform="translate(-176.153 -215.33)" fill="#455a64"/><path d="M287.272,241.257l-31.737-2.985-1.276-21.545,31.164-6.7Z" transform="translate(-201.706 -210.029)" fill="#37474f"/><path d="M314.286,226.689c.466,7.877-.113,14.317-1.3,14.387s-2.513-6.259-2.979-14.13.113-14.317,1.3-14.387S313.82,218.819,314.286,226.689Z" transform="translate(-227.509 -211.203)" fill="#ffc727"/></g><g transform="translate(29.842 13.16)"><g transform="translate(1.496 0)"><path d="M107.085,311.648c13.438,14.194,49.081,37.529,56.974,34.32,14.558-5.921,20.184-47.582,22.06-55.672.8-3.451-28.94-5.824-29.872-2.154-.809,3.2-2.191,25.093-4.913,25.886-1.12.327-17.409-6.332-35.916-10.6C101.244,300.16,103.1,307.447,107.085,311.648Z" transform="translate(-104.216 -250.444)" fill="#f7a9a0"/><g transform="translate(51.124)"><g transform="translate(0)"><path d="M199.64,263.84s.74-3.408.043-11.885c-.546-6.623,2.786-22.558,19.349-31.174,6.349-3.3,11.435-.289,5.449,4.308-4.217,3.242-7.418,5.122-8.493,6.564,0,0,8.141.139,10.8,4.03a86.533,86.533,0,0,1,6.237,10.663,18.612,18.612,0,0,1-1.892,1.345,9.914,9.914,0,0,1-.525,10.55l-1.409,7.132Z" transform="translate(-199.628 -219.386)" fill="#f7a9a0"/><g transform="translate(1.378 6.833)"><path d="M202.2,252.055c2-2.849,6.332-8.825,11.579-12.479,5.83-4.056,18.149-10.3,21.1-5.97,2.165,3.177-2.331,5.974-2.331,5.974s5.637-1.506,6.96,1.79c1.211,3.006-2.4,4.962-2.4,4.962s3.573-.327,4.185,2.792c.729,3.751-6.885,3.821-9.425,8.257C231.3,258.378,202.2,252.055,202.2,252.055Z" transform="translate(-202.2 -232.137)" fill="#f7a9a0"/><g transform="translate(14.829 7.373)"><path d="M229.883,252.833a28.31,28.31,0,0,1,15.373-6.934c.145-.011.23.09.1.128a69.434,69.434,0,0,0-15.437,6.859C229.886,252.91,229.861,252.86,229.883,252.833Z" transform="translate(-229.875 -245.898)" fill="#263238"/></g><g transform="translate(19.095 14.072)"><path d="M237.849,264.4c2.213-1.843,9.248-5.7,15.759-6,.145-.005.226.1.1.136a74.51,74.51,0,0,0-15.817,5.925C237.849,264.476,237.816,264.423,237.849,264.4Z" transform="translate(-237.835 -258.4)" fill="#263238"/></g></g></g></g></g><g transform="translate(0 51.33)"><path d="M137.906,351.345l11.413-24.766s-25.06-8.9-37.77-11.1c-10.679-1.849-14.4,5.315-3.8,14.264C117.791,338.213,137.906,351.345,137.906,351.345Z" transform="translate(-101.423 -315.184)" fill="#ebebeb"/><path d="M170.128,336.459a42.512,42.512,0,0,0-2.379,4.362c-.787,1.517-1.511,3.059-2.245,4.592s-3.418,7.77-4.088,9.329c-.032.07.1.113.136.048.787-1.517,3.922-7.529,4.635-9.039s1.436-3.017,2.1-4.544a41.889,41.889,0,0,0,1.924-4.7C170.208,336.464,170.149,336.425,170.128,336.459Z" transform="translate(-129.268 -325.053)" fill="#263238"/><g transform="translate(10.05 17.562)"><path d="M120.179,347.959c6.83,4.324,13.388,9.05,19.943,13.782,2.181,1.57,4.346,3.177,6.569,4.672l-.226.07c.429-.755.859-1.506,1.308-2.251-.343.859-.713,1.7-1.082,2.55l-.161-.081a121.419,121.419,0,0,1-13.583-8.809c-4.372-3.161-8.659-6.43-12.768-9.934Z" transform="translate(-120.179 -347.959)" fill="#263238"/><path d="M121.63,351.07a29.5,29.5,0,0,1,4.42,2.143A9.885,9.885,0,0,1,121.63,351.07Z" transform="translate(-120.853 -349.403)" fill="#263238"/></g></g></g></g></g><g transform="translate(41.834 277.156)"><path d="M45.75,465.046c70.113-.327,148.766-.332,218.879,0-70.113.327-148.762.327-218.879,0Z" transform="translate(-45.75 -464.799)" fill="#263238"/></g></g></g></svg>