<svg xmlns="http://www.w3.org/2000/svg" xmlns:xlink="http://www.w3.org/1999/xlink" width="250" height="250" viewBox="0 0 250 250"><defs><clipPath id="b"><rect width="250" height="250"/></clipPath></defs><g id="a" clip-path="url(#b)"><g transform="translate(-33.859 6.54)" opacity="0.6"><g transform="translate(37.115 42.46)"><g transform="translate(110.857 29.766)"><path d="M352.713,138.2a2.625,2.625,0,0,1-.87-.147l-4.494-1.557a2.67,2.67,0,0,1-1.745-2.016l-.9-4.67a2.667,2.667,0,0,1,.872-2.519l3.6-3.114a2.674,2.674,0,0,1,2.617-.5l4.494,1.557a2.682,2.682,0,0,1,1.748,2.016l.9,4.67a2.667,2.667,0,0,1-.872,2.519l-3.6,3.114A2.688,2.688,0,0,1,352.713,138.2Zm-4.259-4.429,4.2,1.454,3.36-2.912-.84-4.365-4.2-1.454-3.36,2.912Z" transform="translate(-344.657 -123.531)" fill="#f5f5f5"/></g><g transform="translate(165.965 20.811)"><path d="M500.142,109.2a2.625,2.625,0,0,1-.87-.147L497,108.265a2.664,2.664,0,0,1-1.745-2.016l-.455-2.364a2.667,2.667,0,0,1,.872-2.519l1.821-1.575a2.674,2.674,0,0,1,2.617-.5l2.276.789a2.675,2.675,0,0,1,1.748,2.016l.455,2.364a2.667,2.667,0,0,1-.872,2.519l-1.821,1.575A2.708,2.708,0,0,1,500.142,109.2Zm-2.038-3.661,1.98.687,1.586-1.373-.4-2.06-1.98-.687-1.586,1.373Z" transform="translate(-494.747 -99.142)" fill="#f5f5f5"/></g><g transform="translate(231.015 57.783)"><path d="M675.133,207.523a1.94,1.94,0,0,1-1.51-.723l-1.281-1.6a1.939,1.939,0,0,1-.294-1.909l.745-1.909a1.929,1.929,0,0,1,1.51-1.208l2.027-.312a1.932,1.932,0,0,1,1.8.7l1.282,1.6a1.94,1.94,0,0,1,.294,1.909l-.745,1.909a1.929,1.929,0,0,1-1.51,1.208l-2.027.312a1.893,1.893,0,0,1-.289.022Zm1.487-6.216a.444.444,0,0,0-.07,0l-2.027.312a.463.463,0,0,0-.36.29l-.745,1.909a.47.47,0,0,0,.07.459l1.281,1.6a.468.468,0,0,0,.433.168l2.027-.312a.463.463,0,0,0,.36-.29l.745-1.909a.47.47,0,0,0-.07-.459h0l-1.281-1.6a.472.472,0,0,0-.362-.171Z" transform="translate(-671.917 -199.838)" fill="#e0e0e0"/></g><g transform="translate(0 67.486)"><path d="M48.224,240.2a2.49,2.49,0,0,1-1.939-.929l-3.014-3.756a2.483,2.483,0,0,1-.374-2.456l1.748-4.487a2.489,2.489,0,0,1,1.939-1.553l4.762-.73a2.492,2.492,0,0,1,2.313.9l3.011,3.756a2.494,2.494,0,0,1,.378,2.456L55.3,237.9a2.483,2.483,0,0,1-1.939,1.553l-4.762.73A2.567,2.567,0,0,1,48.224,240.2Zm-2.915-6.257,2.953,3.679,4.664-.716,1.711-4.4-2.953-3.679-4.664.716ZM54.664,232.556Z" transform="translate(-42.726 -226.265)" fill="#e0e0e0"/></g><g transform="translate(11.488 39.734)"><path d="M80.208,159.463H77.369A1.944,1.944,0,0,1,75.7,158.5l-1.421-2.46a1.93,1.93,0,0,1,0-1.931l1.421-2.46a1.94,1.94,0,0,1,1.674-.966h2.838a1.944,1.944,0,0,1,1.674.966l1.421,2.46a1.931,1.931,0,0,1,0,1.931l-1.421,2.46A1.94,1.94,0,0,1,80.208,159.463Zm-2.838-7.315a.46.46,0,0,0-.4.231l-1.421,2.46a.454.454,0,0,0,0,.463l1.421,2.46a.464.464,0,0,0,.4.231h2.838a.47.47,0,0,0,.4-.231l1.421-2.46a.454.454,0,0,0,0-.463l-1.421-2.46a.465.465,0,0,0-.4-.231Z" transform="translate(-74.016 -150.68)" fill="#ebebeb"/></g><g transform="translate(37.833)"><g transform="translate(4.66)"><path d="M182.076,63.2l-5.537-3.484-6.8-11.471-9.454-5.785-1.828,1.98.958,1.292,2.986,4L174.253,65.64l4.832,2.658Z" transform="translate(-158.46 -42.46)" fill="#ebebeb"/></g><g transform="translate(0 3.815)"><path d="M167.087,78.022l-1.583-5.28L148.089,52.85l-2.32,1.373,3.675,10.46,10.108,9.928,2.265,6.2Z" transform="translate(-145.769 -52.85)" fill="#ebebeb"/></g><g transform="translate(27.093 21.725)"><path d="M223.217,101.63s19.661,10.791,23.623,14.433,13.214,18.81,12.278,20.745-1.66,2.185-3.792.323-9.025-12.27-10.879-13.952-24.888-15.193-24.888-15.193Z" transform="translate(-219.56 -101.63)" fill="#e0e0e0"/></g><g transform="translate(11.117 13.792)"><g transform="translate(0.074 0.101)"><circle cx="6.227" cy="6.227" r="6.227" transform="translate(0 0)" fill="#ebebeb"/></g><g transform="translate(0 0)"><path d="M180.786,92.376a9.816,9.816,0,0,0,1.52.158,5.947,5.947,0,0,0,1.762-.261,6.16,6.16,0,0,0,4.387-6.5,5.778,5.778,0,0,0-.418-1.711,7.341,7.341,0,0,0-.4-.822,7.108,7.108,0,0,0-.537-.76,6.1,6.1,0,0,0-7.017-1.825,6.166,6.166,0,0,0-2.791,2.221,6.154,6.154,0,0,0,.672,7.812,6.011,6.011,0,0,0,1.414,1.087,9.59,9.59,0,0,0,1.4.6.356.356,0,0,1-.1-.022c-.073-.022-.168-.048-.286-.081a2.829,2.829,0,0,1-.455-.158,4.214,4.214,0,0,1-.6-.279,5.905,5.905,0,0,1-1.454-1.076,6.266,6.266,0,0,1-.738-7.989,5.943,5.943,0,0,1,1.23-1.333,7.2,7.2,0,0,1,.767-.543,6.916,6.916,0,0,1,.863-.415,6.275,6.275,0,0,1,7.229,1.879,6.721,6.721,0,0,1,.551.786,7.179,7.179,0,0,1,.408.848,5.829,5.829,0,0,1,.426,1.766,6.277,6.277,0,0,1-4.534,6.62,5.924,5.924,0,0,1-1.8.231,4.265,4.265,0,0,1-.657-.048,2.688,2.688,0,0,1-.477-.085c-.117-.03-.213-.051-.29-.07A.333.333,0,0,1,180.786,92.376Z" transform="translate(-176.049 -80.023)" fill="#e0e0e0"/></g></g><g transform="translate(13.831 16.513)"><g transform="translate(0.074 0.089)"><path d="M186.272,94.6a3.517,3.517,0,1,1,4.288-2.519A3.517,3.517,0,0,1,186.272,94.6Z" transform="translate(-183.64 -87.68)" fill="#e0e0e0"/></g><g transform="translate(0 0)"><path d="M186.146,94.446c0-.026.3.073.859.073a3.5,3.5,0,0,0,2.155-.767,3.43,3.43,0,0,0,1.282-3.029,3.163,3.163,0,0,0-.235-.955,3.263,3.263,0,0,0-.521-.881,3.418,3.418,0,0,0-3.918-1.021,3.152,3.152,0,0,0-.889.518,3.192,3.192,0,0,0-.671.72,3.471,3.471,0,0,0-.606,1.7,3.42,3.42,0,0,0,.25,1.564,3.529,3.529,0,0,0,1.51,1.718,7.44,7.44,0,0,0,.786.356,2.651,2.651,0,0,1-.822-.29,3.544,3.544,0,0,1-1.879-3.356,3.611,3.611,0,0,1,.617-1.8,3.443,3.443,0,0,1,.7-.764,3.283,3.283,0,0,1,.933-.547,3.595,3.595,0,0,1,4.584,4.883,3.519,3.519,0,0,1-1.04,1.285A3.478,3.478,0,0,1,187,94.6,2.68,2.68,0,0,1,186.146,94.446Z" transform="translate(-183.439 -87.435)" fill="#e0e0e0"/></g></g><g transform="translate(23.966 19.091)"><g transform="translate(0.043 0.083)"><path d="M211.519,100.472l2.545-4.429a2.709,2.709,0,0,1,3.7-1l.239.134a2.709,2.709,0,0,1,1,3.7l-2.545,4.429a2.709,2.709,0,0,1-3.7,1l-.239-.134A2.714,2.714,0,0,1,211.519,100.472Z" transform="translate(-211.159 -94.682)" fill="#ebebeb"/></g><g transform="translate(0 0)"><path d="M211.446,100.329a3.467,3.467,0,0,0-.3,1.036,2.76,2.76,0,0,0,.161,1.237,2.962,2.962,0,0,0,.382.683,2.768,2.768,0,0,0,.643.591,4.115,4.115,0,0,0,.859.441,2.625,2.625,0,0,0,1.024.128,2.665,2.665,0,0,0,1.939-1.072c.845-1.409,1.737-3.018,2.7-4.674a2.635,2.635,0,0,0,.011-2.584,2.52,2.52,0,0,0-.872-.925,3.162,3.162,0,0,0-1.131-.5,2.637,2.637,0,0,0-2.155.514,5.512,5.512,0,0,0-1.167,1.638c-.632,1.072-1.141,1.942-1.51,2.566-.173.29-.312.518-.418.694a1.494,1.494,0,0,1-.158.228,1.282,1.282,0,0,1,.125-.253c.1-.18.227-.415.389-.712.352-.632.848-1.513,1.458-2.6q.231-.413.485-.859a2.9,2.9,0,0,1,.7-.837,2.785,2.785,0,0,1,2.288-.562,3.326,3.326,0,0,1,1.193.521,2.72,2.72,0,0,1,.936.988,2.815,2.815,0,0,1-.011,2.772c-.966,1.663-1.846,3.246-2.721,4.685a2.806,2.806,0,0,1-2.071,1.127,2.859,2.859,0,0,1-1.083-.147,4.236,4.236,0,0,1-.889-.466,2.848,2.848,0,0,1-.661-.628,3.109,3.109,0,0,1-.386-.716,2.824,2.824,0,0,1-.134-1.285,2.66,2.66,0,0,1,.235-.782A1.553,1.553,0,0,1,211.446,100.329Z" transform="translate(-211.043 -94.457)" fill="#e0e0e0"/></g></g><g transform="translate(16.78 32.335)"><path d="M191.47,133.1s7.449,21.156,10.4,25.657,16.409,16.1,18.476,15.487,2.427-1.281.936-3.691-10.64-10.9-12-13-10.945-27.023-10.945-27.023Z" transform="translate(-191.47 -130.526)" fill="#e0e0e0"/></g><g transform="translate(14.38 28.935)"><g transform="translate(0.086 0.034)"><path d="M191.712,121.533l-4.78,1.787a2.71,2.71,0,0,0-1.59,3.488l.1.257a2.71,2.71,0,0,0,3.488,1.59l4.78-1.788a2.71,2.71,0,0,0,1.59-3.488l-.1-.257a2.708,2.708,0,0,0-3.488-1.589Z" transform="translate(-185.17 -121.36)" fill="#ebebeb"/></g><g transform="translate(0 0)"><path d="M191.564,121.474a1.462,1.462,0,0,1,.264-.1,2.672,2.672,0,0,1,2.052.242,3.164,3.164,0,0,1,.646.5,2.83,2.83,0,0,1,.514.756,3.962,3.962,0,0,1,.316.951,2.779,2.779,0,0,1-1.48,2.953c-1.56.628-3.268,1.242-5.063,1.924a2.814,2.814,0,0,1-2.736-.441,2.763,2.763,0,0,1-.822-1.087,3.394,3.394,0,0,1-.319-1.263,2.785,2.785,0,0,1,.925-2.166,2.836,2.836,0,0,1,.94-.554q.485-.176.925-.342c1.167-.422,2.118-.767,2.8-1.017.319-.11.573-.2.764-.268a1.615,1.615,0,0,1,.276-.081,1.364,1.364,0,0,1-.257.117c-.187.077-.441.176-.753.3l-2.779,1.072a5.479,5.479,0,0,0-1.806.889,2.628,2.628,0,0,0-.855,2.042,3.182,3.182,0,0,0,.312,1.2,2.55,2.55,0,0,0,.772,1.01,2.63,2.63,0,0,0,2.55.408c1.788-.679,3.523-1.3,5.052-1.9a2.639,2.639,0,0,0,1.414-2.768,4.068,4.068,0,0,0-.294-.918,2.685,2.685,0,0,0-.477-.727,2.826,2.826,0,0,0-.609-.485,2.785,2.785,0,0,0-1.191-.365A3.515,3.515,0,0,0,191.564,121.474Z" transform="translate(-184.934 -121.268)" fill="#e0e0e0"/></g></g></g></g><g transform="translate(33.859 193.271)"><g transform="translate(0)"><path d="M283.859,453.306c0,.051-55.971.1-124.993.1-69.048,0-125.007-.044-125.007-.1s55.955-.1,125.007-.1C227.889,453.21,283.859,453.254,283.859,453.306Z" transform="translate(-33.859 -453.21)" fill="#263238"/></g></g><g transform="translate(38.221 103.974)"><g transform="translate(0 0)"><g transform="translate(15.156)"><g transform="translate(0 0.115)"><path d="M87.02,257.59c.1-.308,11.54-37.7,11.54-37.7l-.286-4.644,2.992-4.927,3.716,1.226-.51,5.522-2.64,4.017L90.31,258.65Z" transform="translate(-87.02 -210.315)" fill="#e0e0e0"/></g><path d="M87.02,257.391s.077.022.22.067.36.11.635.2c.562.176,1.38.433,2.445.772l-.044.022c1.861-6.1,6.165-20.216,11.466-37.59l0-.011.007-.011c.837-1.275,1.733-2.636,2.64-4.017l-.015.044c.161-1.762.336-3.631.507-5.522l.067.1c-.1-.034-.2-.067-.308-.1l-3.411-1.127.11-.04L98.352,215.1l.015-.055q.143,2.374.283,4.645v.018l0,.015C95.3,230.588,92.408,240,90.344,246.7c-1.036,3.349-1.865,6.021-2.434,7.861-.286.914-.507,1.623-.657,2.108-.073.235-.132.418-.172.547s-.059.18-.059.18.015-.059.048-.18.092-.3.158-.54c.143-.481.356-1.186.628-2.1.558-1.84,1.366-4.509,2.379-7.857,2.045-6.719,4.92-16.159,8.239-27.06l0,.034q-.143-2.269-.286-4.644v-.03L98.2,215l2.992-4.927.04-.067.073.022q1.691.556,3.411,1.127c.106.034.209.07.308.1l.073.026-.007.077c-.176,1.891-.345,3.758-.51,5.522l0,.022-.015.018c-.911,1.381-1.806,2.743-2.644,4.013l.011-.026c-5.353,17.363-9.7,31.462-11.58,37.557l-.011.034-.034-.011c-1.068-.352-1.891-.628-2.45-.811-.272-.092-.477-.161-.624-.209S87.02,257.391,87.02,257.391Z" transform="translate(-87.02 -210.001)" fill="#263238"/></g><g transform="translate(0 45.524)"><path d="M58.132,337.673,53,344.619,45.81,370.684S44.778,376,50.649,377.51c6.594,1.7,8.114-3.356,8.114-3.356L65.75,348.7l-.106-8.834,1.726-1.942a.725.725,0,0,0-.316-1.171l-8.25-2.725a.726.726,0,0,0-.951.76Z" transform="translate(-45.74 -333.99)" fill="#ff725e"/></g><g transform="translate(12.299 49.271)"><g transform="translate(0 0)"><path d="M86.905,346.631c-.015.051-1.745-.455-3.863-1.123a39.509,39.509,0,0,1-3.8-1.309c.018-.053,1.745.452,3.863,1.127S86.92,346.579,86.905,346.631Z" transform="translate(-79.239 -344.195)" fill="#263238"/></g></g><g transform="translate(7.379 56.2)"><g transform="translate(0 0)"><path d="M78.469,367.1a2.667,2.667,0,0,1-.514-.092c-.331-.07-.8-.18-1.384-.327-1.164-.294-2.765-.734-4.512-1.293s-3.308-1.123-4.429-1.56c-.558-.217-1.01-.4-1.318-.537a2.965,2.965,0,0,1-.473-.224,2.969,2.969,0,0,1,.5.154c.349.125.8.286,1.34.477,1.131.4,2.695.947,4.439,1.505s3.334,1.021,4.49,1.342c.551.154,1.01.286,1.369.386a3.036,3.036,0,0,1,.493.168Z" transform="translate(-65.837 -363.067)" fill="#263238"/></g></g><g transform="translate(1.61 58.744)" opacity="0.3"><path d="M51.169,394.207l-.176-.05a1.212,1.212,0,0,1-.819-1.505l6.452-21.788a1.212,1.212,0,0,1,1.505-.819l.176.051a1.212,1.212,0,0,1,.819,1.505l-6.452,21.787a1.208,1.208,0,0,1-1.505.819Z" transform="translate(-50.124 -369.994)"/></g><g transform="translate(5.274 59.952)" opacity="0.3"><path d="M61.149,397.5l-.176-.051a1.212,1.212,0,0,1-.819-1.505l6.451-21.787a1.212,1.212,0,0,1,1.505-.819l.176.051a1.212,1.212,0,0,1,.819,1.505l-6.452,21.787A1.213,1.213,0,0,1,61.149,397.5Z" transform="translate(-60.104 -373.284)"/></g><g transform="translate(9.162 61.1)" opacity="0.3"><path d="M71.739,400.625l-.176-.051a1.212,1.212,0,0,1-.819-1.505L77.2,377.28a1.212,1.212,0,0,1,1.505-.819l.176.051a1.212,1.212,0,0,1,.819,1.505l-6.451,21.788a1.21,1.21,0,0,1-1.505.819Z" transform="translate(-70.694 -376.411)"/></g><g transform="translate(26.729 9.759)"><g transform="translate(0 0)"><path d="M121.745,237.69a7.521,7.521,0,0,1-1.634-.463,7.35,7.35,0,0,1-1.571-.646,14.884,14.884,0,0,1,3.205,1.109Z" transform="translate(-118.54 -236.581)" fill="#263238"/></g></g><g transform="translate(27.451 0.114)"><g transform="translate(0 0)"><path d="M126.173,211.536a3.506,3.506,0,0,1-.129.514c-.106.356-.246.83-.418,1.4-.378,1.219-.892,2.875-1.48,4.758l-.03.092-.088-.03-1.693-.588-1.745-.613-.085-.03.022-.085c.533-1.887,1-3.543,1.34-4.758.168-.573.3-1.04.411-1.392a3.363,3.363,0,0,1,.168-.5,2.986,2.986,0,0,1-.106.514c-.092.356-.209.83-.356,1.406-.327,1.223-.772,2.882-1.278,4.777l-.059-.114c.562.195,1.146.4,1.745.606.58.2,1.146.4,1.689.595l-.121.059c.609-1.876,1.146-3.523,1.544-4.736.195-.57.352-1.036.47-1.388A3.588,3.588,0,0,1,126.173,211.536Z" transform="translate(-120.506 -210.31)" fill="#263238"/></g></g></g></g><g transform="translate(145.054 52.536)"><g transform="translate(0 0)"><g transform="translate(26.434 0.662)"><g transform="translate(0 0)"><g transform="translate(0.093 0.09)"><path d="M417.014,86.626a2.625,2.625,0,0,1-.87-.147l-4.494-1.557a2.67,2.67,0,0,1-1.745-2.016l-.9-4.674a2.667,2.667,0,0,1,.872-2.519l3.6-3.114a2.674,2.674,0,0,1,2.617-.5l4.494,1.557a2.675,2.675,0,0,1,1.748,2.016l.9,4.67a2.667,2.667,0,0,1-.872,2.519l-3.592,3.114a2.689,2.689,0,0,1-1.756.654ZM412.755,82.2l4.2,1.454,3.359-2.91-.839-4.365-4.2-1.455-3.36,2.912Z" transform="translate(-408.957 -71.951)" fill="#e0e0e0"/></g><g transform="translate(0.093 0.09)"><path d="M417.014,86.626a2.625,2.625,0,0,1-.87-.147l-4.494-1.557a2.67,2.67,0,0,1-1.745-2.016l-.9-4.674a2.667,2.667,0,0,1,.872-2.519l3.6-3.114a2.674,2.674,0,0,1,2.617-.5l4.494,1.557a2.675,2.675,0,0,1,1.748,2.016l.9,4.67a2.667,2.667,0,0,1-.872,2.519l-3.592,3.114a2.689,2.689,0,0,1-1.756.654ZM412.755,82.2l4.2,1.454,3.359-2.91-.839-4.365-4.2-1.455-3.36,2.912Z" transform="translate(-408.957 -71.951)" fill="none"/></g><g transform="translate(2.982 2.97)"><g transform="translate(0 0)"><path d="M417.734,87.163a2.353,2.353,0,0,1-.073-.29c-.048-.217-.106-.5-.184-.863-.158-.779-.378-1.865-.65-3.2a.071.071,0,0,1,.022-.067c.955-.834,2.093-1.828,3.349-2.923a.1.1,0,0,1,.088-.018l4.2,1.45c-.055-.067.077.088.062.073h0v.017l0,.018.007.037.015.073.026.143.055.286c.037.191.074.378.11.565.073.374.143.745.213,1.107.14.731.275,1.439.4,2.118a.088.088,0,0,1-.029.085c-1.263,1.083-2.4,2.063-3.374,2.9a.07.07,0,0,1-.07.015l-3.073-1.1c-.345-.129-.62-.228-.826-.3a2.408,2.408,0,0,1-.276-.117,2.621,2.621,0,0,1,.308.088l.848.275,3.069,1.028-.07.015c.962-.841,2.093-1.828,3.349-2.923l-.03.085c-.132-.679-.268-1.388-.411-2.118-.07-.363-.143-.734-.213-1.107-.037-.187-.073-.374-.11-.565l-.055-.286-.03-.143-.015-.074-.007-.037,0-.018v-.015h0c-.015-.015.117.134.062.073-1.479-.514-2.9-1.01-4.2-1.461l.088-.018c-1.263,1.083-2.412,2.071-3.374,2.9l.022-.067c.242,1.329.436,2.412.576,3.183.062.367.114.657.151.877A1.7,1.7,0,0,1,417.734,87.163Z" transform="translate(-416.826 -79.797)" fill="#263238"/></g></g><path d="M416.854,86.472c0-.011.158,0,.455-.059a2.7,2.7,0,0,0,1.174-.54c.87-.764,2.114-1.854,3.65-3.2a2.609,2.609,0,0,0,.822-1.309,2.679,2.679,0,0,0,.085-.822,7.786,7.786,0,0,0-.147-.866c-.231-1.182-.478-2.445-.734-3.774a3.688,3.688,0,0,0-.268-.966,2.545,2.545,0,0,0-.6-.815,2.615,2.615,0,0,0-.885-.533c-.341-.117-.687-.239-1.036-.36-.7-.242-1.406-.485-2.126-.734l-1.087-.374a2.976,2.976,0,0,0-1.1-.231,2.641,2.641,0,0,0-1.091.242,3.559,3.559,0,0,0-.906.654l-1.7,1.472c-.559.485-1.105.955-1.638,1.421a2.587,2.587,0,0,0-.837,1.773,3.506,3.506,0,0,0,.11.973c.062.323.121.643.184.958.121.632.235,1.242.349,1.836s.213,1.171.331,1.707a2.6,2.6,0,0,0,.822,1.3,2.672,2.672,0,0,0,.613.393c.213.1.444.165.661.246.433.154.845.3,1.23.433.764.272,1.424.507,1.968.7a10.97,10.97,0,0,0,1.248.415c.29.051.452.048.452.055a1.838,1.838,0,0,1-.463-.022,10.077,10.077,0,0,1-1.267-.382c-.547-.184-1.212-.408-1.98-.668q-.578-.2-1.233-.418c-.217-.077-.444-.143-.675-.242a2.829,2.829,0,0,1-.65-.408,2.756,2.756,0,0,1-.878-1.369c-.125-.554-.224-1.123-.345-1.715s-.235-1.2-.356-1.832q-.094-.473-.187-.958a3.833,3.833,0,0,1-.114-1.013,2.775,2.775,0,0,1,.889-1.9c.537-.466,1.083-.944,1.641-1.424s1.123-.973,1.7-1.472c.147-.125.283-.25.441-.374a2.757,2.757,0,0,1,1.682-.565,3.23,3.23,0,0,1,1.164.242c.363.125.727.253,1.087.378l2.126.738c.349.121.694.242,1.036.36a2.771,2.771,0,0,1,1.577,1.447,3.8,3.8,0,0,1,.275,1.01c.253,1.329.492,2.6.72,3.778a8.1,8.1,0,0,1,.143.885,2.856,2.856,0,0,1-.1.87,2.756,2.756,0,0,1-.877,1.369l-3.694,3.154a2.706,2.706,0,0,1-1.215.521A2.009,2.009,0,0,1,416.854,86.472Z" transform="translate(-408.704 -71.707)" fill="#263238"/></g></g><g transform="translate(0.075 0.098)"><path d="M340.128,77.855a1.94,1.94,0,0,1-1.51-.723l-1.282-1.6a1.939,1.939,0,0,1-.294-1.909l.745-1.909A1.929,1.929,0,0,1,339.3,70.5l2.027-.312a1.95,1.95,0,0,1,1.8.7l1.281,1.6A1.939,1.939,0,0,1,344.7,74.4l-.745,1.909a1.929,1.929,0,0,1-1.51,1.208l-2.027.312A2.053,2.053,0,0,1,340.128,77.855Zm1.483-6.216a.445.445,0,0,0-.07,0l-2.027.312a.47.47,0,0,0-.363.29l-.745,1.909a.47.47,0,0,0,.07.459l1.281,1.6a.464.464,0,0,0,.433.168l2.027-.312a.474.474,0,0,0,.363-.29l.745-1.909a.47.47,0,0,0-.07-.459l-1.281-1.6A.478.478,0,0,0,341.611,71.639Z" transform="translate(-336.912 -70.17)" fill="#e0e0e0"/></g><g transform="translate(0.075 0.098)"><path d="M340.128,77.855a1.94,1.94,0,0,1-1.51-.723l-1.282-1.6a1.939,1.939,0,0,1-.294-1.909l.745-1.909A1.929,1.929,0,0,1,339.3,70.5l2.027-.312a1.95,1.95,0,0,1,1.8.7l1.281,1.6A1.939,1.939,0,0,1,344.7,74.4l-.745,1.909a1.929,1.929,0,0,1-1.51,1.208l-2.027.312A2.053,2.053,0,0,1,340.128,77.855Zm1.483-6.216a.445.445,0,0,0-.07,0l-2.027.312a.47.47,0,0,0-.363.29l-.745,1.909a.47.47,0,0,0,.07.459l1.281,1.6a.464.464,0,0,0,.433.168l2.027-.312a.474.474,0,0,0,.363-.29l.745-1.909a.47.47,0,0,0-.07-.459l-1.281-1.6A.478.478,0,0,0,341.611,71.639Z" transform="translate(-336.912 -70.17)" fill="none"/></g><g transform="translate(1.446 1.558)"><g transform="translate(0 0)"><path d="M343.975,74.155a.264.264,0,0,1,.158.007.442.442,0,0,1,.172.092,2.391,2.391,0,0,1,.176.195c.268.323.62.742,1.043,1.252.055.067.11.134.168.209a.528.528,0,0,1,.1.3.716.716,0,0,1-.07.3c-.034.092-.07.184-.106.279-.147.378-.3.782-.463,1.208-.04.106-.081.213-.125.323a.559.559,0,0,1-.276.3,1.313,1.313,0,0,1-.378.085l-.363.055c-.5.073-.98.158-1.531.231a.564.564,0,0,1-.418-.187c-.081-.1-.165-.206-.246-.3l-.47-.591c-.154-.195-.3-.386-.455-.57l-.11-.14a.6.6,0,0,1-.1-.176.576.576,0,0,1,.007-.4l.477-1.2c.073-.187.147-.367.217-.543a1.139,1.139,0,0,1,.125-.264.543.543,0,0,1,.235-.184c.7-.129,1.242-.18,1.626-.235a2.984,2.984,0,0,1,.606-.048.669.669,0,0,1-.151.037c-.121.022-.264.051-.436.085-.371.073-.947.154-1.59.286a.422.422,0,0,0-.173.14,1.442,1.442,0,0,0-.1.235c-.067.176-.134.36-.206.547-.143.378-.3.782-.459,1.208a.376.376,0,0,0,0,.275,1.145,1.145,0,0,0,.187.264l.459.57c.157.2.312.389.473.588.081.1.158.2.239.3a.357.357,0,0,0,.275.121l1.5-.224.363-.055a1.346,1.346,0,0,0,.323-.067.38.38,0,0,0,.187-.206c.044-.106.085-.217.129-.319l.477-1.2q.055-.143.11-.275a.562.562,0,0,0,.067-.246.383.383,0,0,0-.07-.22c-.055-.07-.106-.14-.158-.206-.4-.525-.742-.958-.995-1.292A.619.619,0,0,0,343.975,74.155Z" transform="translate(-340.648 -74.146)" fill="#263238"/></g></g><path d="M340,77.687a1.22,1.22,0,0,1,.246-.037c.18-.034.411-.073.7-.121q.47-.077,1.112-.187a2.608,2.608,0,0,0,.668-.161,1.837,1.837,0,0,0,.624-.426,1.872,1.872,0,0,0,.435-.712c.106-.283.22-.576.338-.877a3.8,3.8,0,0,0,.463-1.942,1.965,1.965,0,0,0-.47-.955c-.239-.3-.485-.6-.734-.911-.125-.154-.25-.312-.378-.47a2.02,2.02,0,0,0-.411-.418,1.856,1.856,0,0,0-1.107-.371,4.494,4.494,0,0,0-.609.07c-.206.034-.411.062-.613.1-.4.062-.8.125-1.193.184a1.857,1.857,0,0,0-1.263.988c-.077.158-.14.338-.206.507-.132.342-.264.671-.393.995a5.228,5.228,0,0,0-.323.933,1.927,1.927,0,0,0,.5,1.611l.921,1.171a4.926,4.926,0,0,0,.386.466,1.9,1.9,0,0,0,.4.3,2.33,2.33,0,0,0,.906.264s-.022.007-.062.007a1.739,1.739,0,0,1-.187,0,1.9,1.9,0,0,1-.69-.2,2,2,0,0,1-.43-.3,5.293,5.293,0,0,1-.408-.466c-.279-.342-.595-.731-.944-1.157a2.06,2.06,0,0,1-.551-1.722,5.091,5.091,0,0,1,.323-.969c.125-.323.253-.657.386-.995.07-.172.125-.342.209-.521a1.986,1.986,0,0,1,.336-.488,2.057,2.057,0,0,1,1.05-.6c.4-.07.8-.125,1.2-.191.2-.034.407-.062.613-.1a4.3,4.3,0,0,1,.638-.074,2.064,2.064,0,0,1,1.223.408,2.249,2.249,0,0,1,.444.452c.125.158.25.316.374.47.25.312.492.617.731.914a2.09,2.09,0,0,1,.5,1.04,2,2,0,0,1-.117,1.094c-.129.323-.25.635-.371.936s-.235.595-.345.872a2.047,2.047,0,0,1-.481.755,2.135,2.135,0,0,1-1.373.6l-1.116.154c-.308.04-.543.073-.709.088A1.1,1.1,0,0,1,340,77.687Z" transform="translate(-336.711 -69.903)" fill="#263238"/><g transform="translate(36.959 2.989)"><g transform="translate(0 0)"><path d="M439.47,78.046a5.683,5.683,0,0,1-.944,1.212,4.557,4.557,0,0,1-1.157,1.013,9.429,9.429,0,0,1,1.017-1.141A6.653,6.653,0,0,1,439.47,78.046Z" transform="translate(-437.37 -78.044)" fill="#263238"/></g></g><g transform="translate(32.175 0.88)"><g transform="translate(0 0)"><path d="M424.342,72.3a7.087,7.087,0,0,1,.687,2.849,7.979,7.979,0,0,1-.382-1.417A8.027,8.027,0,0,1,424.342,72.3Z" transform="translate(-424.342 -72.3)" fill="#263238"/></g></g><g transform="translate(26.635 5.696)"><g transform="translate(0 0)"><path d="M412.054,86.286a34.32,34.32,0,0,1-2.8-.865A6.717,6.717,0,0,1,412.054,86.286Z" transform="translate(-409.253 -85.421)" fill="#263238"/></g></g><g transform="translate(28.654 10.959)"><g transform="translate(0 0)"><path d="M414.751,101.722a8.7,8.7,0,0,1,1.645-1.971,8.7,8.7,0,0,1-1.645,1.971Z" transform="translate(-414.751 -99.751)" fill="#263238"/></g></g><g transform="translate(34.491 12.543)"><g transform="translate(0 0)"><path d="M431,106.46a3.853,3.853,0,0,1-.257-1.182,3.91,3.91,0,0,1-.07-1.212A7.789,7.789,0,0,1,431,106.46Z" transform="translate(-430.65 -104.066)" fill="#263238"/></g></g><g transform="translate(37.965 9.431)"><g transform="translate(0 0)"><path d="M442.207,96.4a3.485,3.485,0,0,1-1.083-.312,3.389,3.389,0,0,1-1.013-.492,3.486,3.486,0,0,1,1.083.312,3.406,3.406,0,0,1,1.013.492Z" transform="translate(-440.11 -95.593)" fill="#263238"/></g></g></g></g><g transform="translate(66.808 50.216)"><g transform="translate(156.898 0)"><g transform="translate(1.638 2.507)"><g transform="translate(0 0)"><g transform="translate(32.66 12.909)"><g transform="translate(0 0)"><path d="M644.34,130.865a67.253,67.253,0,0,0,6.91-9.4,23.642,23.642,0,0,0,3.407-11.044c.015-.591-.242-4.685-.808-4.85-.4-.117-.683,3.5-1.017,3.758a20.041,20.041,0,0,0-6.414,10.012,52.528,52.528,0,0,0-2.078,11.518" transform="translate(-644.34 -105.572)" fill="#263238"/></g></g><g transform="translate(0 0.997)"><g transform="translate(0 0)"><path d="M555.668,133.1c.991-2.566,5.867-15.406,5.849-15.413,0,0-8.412-4.377-5.526-13.291,1.4-4.307,4.99-12.939,8.335-20.711a17.455,17.455,0,0,1,21.622-9.638l.855.29c9.054,3.658,11,13.389,7.1,22.338l-17.98,41.673-15.766-4.872Z" transform="translate(-555.388 -73.129)" fill="#ffbf9d"/></g></g><g transform="translate(5.253 45.56)"><g transform="translate(0)"><path d="M570.574,194.5a22.626,22.626,0,0,0,12.711.485s-5,5.65-13.59,1.861Z" transform="translate(-569.695 -194.5)" fill="#ff9a6c"/></g></g><g transform="translate(8.862 19.321)"><g transform="translate(0 0)"><path d="M579.6,123.839a1.339,1.339,0,0,0,.79,1.693,1.282,1.282,0,0,0,1.693-.7,1.339,1.339,0,0,0-.789-1.693,1.277,1.277,0,0,0-1.693.7Z" transform="translate(-579.528 -123.034)" fill="#263238"/></g></g><g transform="translate(9.584 15.187)"><g transform="translate(0 0)"><path d="M581.5,112.467c.1.217,1.3-.168,2.666.3,1.369.444,2.133,1.483,2.335,1.366.1-.048.037-.4-.29-.866a3.684,3.684,0,0,0-1.8-1.3,3.538,3.538,0,0,0-2.192-.03C581.69,112.119,581.447,112.368,581.5,112.467Z" transform="translate(-581.492 -111.774)" fill="#263238"/></g></g><g transform="translate(20.828 24.134)"><g transform="translate(0 0)"><path d="M612.193,136.95a1.339,1.339,0,0,0,.789,1.693,1.282,1.282,0,0,0,1.693-.7,1.339,1.339,0,0,0-.79-1.693,1.275,1.275,0,0,0-1.692.7Z" transform="translate(-612.118 -136.143)" fill="#263238"/></g></g><g transform="translate(22.761 20.25)"><g transform="translate(0 0)"><path d="M617.387,126.257c.1.22,1.3-.168,2.666.3,1.366.444,2.133,1.483,2.335,1.366.1-.048.04-.4-.29-.866a3.661,3.661,0,0,0-1.8-1.3,3.538,3.538,0,0,0-2.192-.03C617.579,125.908,617.336,126.158,617.387,126.257Z" transform="translate(-617.38 -125.564)" fill="#263238"/></g></g><g transform="translate(11.124 18.611)"><g transform="translate(0 0)"><path d="M588.9,132.262a9.569,9.569,0,0,0-2.081-1.149c-.338-.154-.643-.336-.62-.591a1.886,1.886,0,0,1,.58-.955c.613-.73,1.252-1.5,1.924-2.306,2.706-3.294,4.792-6.047,4.656-6.157s-2.434,2.475-5.14,5.768c-.657.815-1.289,1.59-1.887,2.335a2.143,2.143,0,0,0-.643,1.309.918.918,0,0,0,.4.7,2.613,2.613,0,0,0,.565.283A9.283,9.283,0,0,0,588.9,132.262Z" transform="translate(-585.684 -121.101)" fill="#263238"/></g></g><g transform="translate(12.46 32.066)"><g transform="translate(0 0)"><path d="M594.9,157.754c-.217-.088-.72,1.392-2.343,2.016s-3.143-.073-3.224.132c-.051.085.253.408.914.65a3.9,3.9,0,0,0,2.666-.026,3.384,3.384,0,0,0,1.869-1.722C595.04,158.205,595,157.779,594.9,157.754Z" transform="translate(-589.324 -157.75)" fill="#263238"/></g></g><g transform="translate(24.711 15.016)"><g transform="translate(0 0)"><path d="M622.69,111.73c.011.415,1.432.7,2.967,1.436,1.549.7,2.685,1.608,3.007,1.348.147-.129.04-.551-.36-1.087a5.723,5.723,0,0,0-4.549-2.114C623.087,111.341,622.693,111.535,622.69,111.73Z" transform="translate(-622.69 -111.311)" fill="#263238"/></g></g><g transform="translate(11.68 10.738)"><g transform="translate(0 0)"><path d="M587.207,100.458c.134.389,1.182.386,2.32.753,1.149.327,2.016.914,2.346.664.151-.125.1-.485-.217-.921a3.534,3.534,0,0,0-3.758-1.141C587.39,99.995,587.152,100.27,587.207,100.458Z" transform="translate(-587.199 -99.66)" fill="#263238"/></g></g><g transform="translate(32.276 30.873)"><g transform="translate(0 0)"><path d="M646.585,154.5c.172-.015,6.708.257,4.465,6.26s-7.806,2.511-7.755,2.335S646.585,154.5,646.585,154.5Z" transform="translate(-643.295 -154.499)" fill="#ffbf9d"/></g></g><g transform="translate(34.947 33.496)"><g transform="translate(0 0)"><path d="M650.589,166.024c.034-.011.077.114.224.261a1.117,1.117,0,0,0,.775.308c.72,0,1.63-.805,2.063-1.872a3.727,3.727,0,0,0,.268-1.608,1.284,1.284,0,0,0-.488-1.1.571.571,0,0,0-.724.055c-.143.134-.151.272-.187.272s-.092-.151.051-.378a.7.7,0,0,1,.378-.286.849.849,0,0,1,.635.062,1.569,1.569,0,0,1,.745,1.34,3.741,3.741,0,0,1-.264,1.81,2.9,2.9,0,0,1-2.493,2.023,1.2,1.2,0,0,1-.9-.518C650.544,166.176,650.563,166.029,650.589,166.024Z" transform="translate(-650.57 -161.642)" fill="#ff9a6c"/></g></g><g transform="translate(16.522)"><g transform="translate(0)"><path d="M600.48,73.54c-.764-.906,3.345-2.926,6.139-3.092,4.222-.253,10.1.852,13.056,3.062,3.557,2.666,6.113,5.922,6.723,10.325a25.227,25.227,0,0,1-1.968,13.03,7.629,7.629,0,0,1-2.248,3.33c-1.342,1-3.268,1.219-3.9,3.073a2.683,2.683,0,0,1-1.322,1.586c-1.544.745-2.46-.863-2.655-2.2-.415-2.849.51-5.7,1.424-8.43a18.758,18.758,0,0,1,2.563-5.544c.675-.885,1.505-1.649,2.133-2.566a3.842,3.842,0,0,0,.723-3.15,4.076,4.076,0,0,0-.3-.679,6.678,6.678,0,0,0-5.738-3.554c-3.825-.1-10.262-.529-11.327-2.248a9.891,9.891,0,0,1-1.638-3.745Z" transform="translate(-600.387 -70.413)" fill="#263238"/></g></g></g></g><g transform="translate(0)"><path d="M589.15,65.528c.386.195,9.407,5.768,9.348,13.9s-1.546,10.119-1.546,10.119a5.085,5.085,0,0,1,.72,1.23c.242.617-1.141,2.71-2.328,2.013-8.1-7.517-19.261-11.83-31.994-15.773l-9.605-3.437c-2.809-.617-3.51-1.66-2.137-1.946,1.054-.22,9.778-.661,9.778-.661l1.884-.58,5.886-4.153s-.227-.936.966-1.245S581.555,61.673,589.15,65.528Z" transform="translate(-550.927 -63.583)" fill="#ff725e"/></g><g transform="translate(12.334 6.806)"><path d="M584.52,82.12s.129.051.374.132c.3.1.654.209,1.083.345.947.283,2.3.76,3.954,1.369a78.662,78.662,0,0,1,12.392,6.051,121.124,121.124,0,0,1,11.389,7.806c1.409,1.068,2.534,1.957,3.312,2.563.356.279.654.51.9.7.206.158.319.235.319.235s-.1-.1-.3-.261c-.239-.2-.529-.436-.877-.723-.768-.624-1.879-1.527-3.279-2.607a113.446,113.446,0,0,0-11.375-7.857,75.04,75.04,0,0,0-12.436-6.014,56,56,0,0,0-5.459-1.74Z" transform="translate(-584.52 -82.12)" fill="#263238"/></g><g transform="translate(23.268 3.133)" opacity="0.3"><g transform="translate(0 0)"><path d="M636.711,78.3s-9.957-5.331-15.458-4.685l.643-.088q-2.566.215-5.136.426a2.946,2.946,0,0,1-2.46-.537,22.092,22.092,0,0,1,8.041-1.3C627.264,72.142,634.49,73.913,636.711,78.3Z" transform="translate(-614.3 -72.116)"/></g></g><g transform="translate(18.202 2.654)"><g transform="translate(0 0)"><path d="M628.112,77.578a8.02,8.02,0,0,0-.731-.944,13.771,13.771,0,0,0-2.416-2.181,16.509,16.509,0,0,0-4.3-2.2,13.873,13.873,0,0,0-5.839-.811,24.877,24.877,0,0,0-3.025.5c-.966.22-1.9.382-2.783.628a14.969,14.969,0,0,1-2.493.595,4.785,4.785,0,0,1-2.177-.29c-2.6-.855-4.009-1.939-3.837-2.063a.427.427,0,0,0,.134.275,3.422,3.422,0,0,0,.7.54,14.828,14.828,0,0,0,2.959,1.358,4.913,4.913,0,0,0,2.229.316,14.669,14.669,0,0,0,2.519-.584c.87-.239,1.814-.4,2.776-.617a25.69,25.69,0,0,1,3.007-.492,13.841,13.841,0,0,1,5.772.789,16.886,16.886,0,0,1,4.277,2.148,14.711,14.711,0,0,1,2.434,2.129c.261.283.452.51.576.668S628.112,77.578,628.112,77.578Z" transform="translate(-600.502 -70.811)" fill="#263238"/></g></g><g transform="translate(33.118 9.824)" opacity="0.3"><g transform="translate(0)"><path d="M655.451,99.717a24.927,24.927,0,0,1-4.887-2.7c-1.851-1.123-3.712-2.152-5.5-3.363-1.362-.918-3.011-1.891-3.617-3.312a2.311,2.311,0,0,0-.037,2.273,11.176,11.176,0,0,0,2.718,2.519,58.618,58.618,0,0,0,11.162,6.418,13.306,13.306,0,0,0,.165-1.832" transform="translate(-641.126 -90.34)"/></g></g><g transform="translate(33.223 9.096)"><g transform="translate(0 0)"><path d="M655.728,94.2c1.017.933,1.634,1.535,1.318,2.566-.264.859-.793,1.84-1.678,1.7a2.19,2.19,0,0,1-.749-.323q-6.069-3.557-12.142-7.112a2.068,2.068,0,0,1-1.01-.966,1.394,1.394,0,0,1,1.068-1.638,3.843,3.843,0,0,1,2.148.242A45.791,45.791,0,0,1,655.728,94.2" transform="translate(-641.413 -88.356)" fill="#ff725e"/></g></g><g transform="translate(33.184 8.651)"><g transform="translate(0 0)"><path d="M641.531,89.56a1.3,1.3,0,0,1-.154-.69,1.724,1.724,0,0,1,1.1-1.461,4.289,4.289,0,0,1,2.823.319c1.028.411,2.155.881,3.319,1.414a36.555,36.555,0,0,1,5.717,3.172c.69.473,1.226.892,1.594,1.182.15.121.29.231.418.338a.888.888,0,0,0,.154.11.755.755,0,0,0-.132-.134c-.125-.114-.257-.235-.4-.363-.356-.308-.881-.742-1.568-1.23a33.822,33.822,0,0,0-5.717-3.233c-1.167-.533-2.3-1-3.334-1.4a4.348,4.348,0,0,0-2.923-.286,1.787,1.787,0,0,0-1.123,1.571,1.176,1.176,0,0,0,.114.537A.667.667,0,0,0,641.531,89.56Z" transform="translate(-641.306 -87.147)" fill="#263238"/></g></g><g transform="translate(14.292 3.956)"><g transform="translate(0)"><path d="M591.934,74.36l8.265,2.647-1.487,2.074-8.859-3.253Z" transform="translate(-589.853 -74.36)" fill="#fff"/></g></g><g transform="translate(10.663 7.708)"><g transform="translate(0 0)"><path d="M595.592,92.373c.022-.044-3.459-1.821-7.773-3.973s-7.828-3.862-7.85-3.822,3.459,1.821,7.773,3.973S595.57,92.414,595.592,92.373Z" transform="translate(-579.97 -84.578)" fill="#263238"/></g></g></g><g transform="translate(117.227 46.11)"><path d="M510.919,203.106l.11-5.427-18.571,6.9s-3.431-11.145-3.431-11.673l-4.116,2.589-6.84-2.941-6.842-3.382-13.834,24.218-14.514,42.8,34.2,22.808,25.356-27.174,15.414-23.487,8.474-14.877Z" transform="translate(-442.88 -189.17)" fill="#ff725e"/><g transform="translate(41.713 6.679)"><g transform="translate(0 0)"><path d="M562.7,216.012a3.334,3.334,0,0,1-.03-.543c0-.378-.011-.889-.018-1.524l.085.055a23.269,23.269,0,0,0-5.592,3.829l-.147.14-.011-.2c-.015-.242-.03-.5-.044-.76-.151-2.662-.272-5.071-.352-6.818-.037-.852-.062-1.549-.085-2.067,0-.228-.011-.411-.015-.562a.833.833,0,0,1,.007-.2.638.638,0,0,1,.029.195c.015.151.03.336.048.562.037.514.085,1.212.147,2.063.114,1.745.261,4.153.408,6.815.015.261.03.518.04.76l-.161-.067a21.793,21.793,0,0,1,5.671-3.8l.085-.04,0,.092c-.015.632-.026,1.141-.037,1.52A3.135,3.135,0,0,1,562.7,216.012Z" transform="translate(-556.489 -207.362)" fill="#263238"/></g></g><g transform="translate(49.996 14.198)"><g transform="translate(0 0)"><path d="M595.382,227.84a1.04,1.04,0,0,1-.213.114c-.161.077-.367.172-.62.294-.565.257-1.348.617-2.3,1.054-1.972.881-4.656,2.08-7.622,3.411l-3.62,1.6-.154.07.029-.165a28.539,28.539,0,0,0,.422-5.225l.085.051c-.72.349-1.3.628-1.715.834-.187.088-.338.158-.459.213a.568.568,0,0,1-.161.062.693.693,0,0,1,.147-.092c.117-.062.264-.143.444-.242.411-.217.98-.51,1.689-.881l.085-.044,0,.1a26.63,26.63,0,0,1-.363,5.258l-.125-.1c1.131-.5,2.346-1.046,3.617-1.608,2.974-1.309,5.669-2.489,7.644-3.36l2.328-1,.635-.261A1.035,1.035,0,0,1,595.382,227.84Z" transform="translate(-579.051 -227.84)" fill="#263238"/></g></g></g><g transform="translate(0 33.153)"><g transform="translate(0 0)"><g transform="translate(5.886)"><g transform="translate(0)"><path d="M284.831,261.414H144.979a5.348,5.348,0,0,1-5.35-5.349V159.229a5.348,5.348,0,0,1,5.35-5.35H284.831a5.348,5.348,0,0,1,5.349,5.35v96.835A5.348,5.348,0,0,1,284.831,261.414Z" transform="translate(-139.63 -153.88)" fill="#455a64"/></g></g><g transform="translate(0 100.587)"><path d="M280.176,437.25H130.135a6.536,6.536,0,0,1-6.535-6.535V427.84H286.711v2.875a6.536,6.536,0,0,1-6.535,6.536Z" transform="translate(-123.6 -427.84)" fill="#455a64"/></g><g transform="translate(9.928 4.274)"><rect width="142.047" height="90.81" fill="#263238"/></g><g transform="translate(66.32 99.581)"><path d="M304.23,425.1l2.023,3.477h28.481l1.879-3.477Z" transform="translate(-304.23 -425.1)" fill="#263238"/></g><g transform="translate(12.707 7.35)"><g transform="translate(0.147)"><path d="M293.894,261.343H159.811a1.2,1.2,0,0,1-1.2-1.2V175.1a1.2,1.2,0,0,1,1.2-1.2H293.894a1.2,1.2,0,0,1,1.2,1.2v85.042A1.2,1.2,0,0,1,293.894,261.343Z" transform="translate(-158.61 -173.9)" fill="#ebebeb"/></g><g transform="translate(0 6.533)"><g transform="translate(0 0)"><path d="M294.7,272.734H158.21l.143-81.04H294.7Z" transform="translate(-158.21 -191.694)" fill="#fafafa"/></g></g><g transform="translate(9.365 2.196)"><g transform="translate(0)"><path d="M185.964,181.058a1.125,1.125,0,1,1-1.123-1.178A1.153,1.153,0,0,1,185.964,181.058Z" transform="translate(-183.716 -179.88)" fill="#263238"/></g></g><g transform="translate(2.55 2.196)"><g transform="translate(0)"><path d="M167.4,181.058a1.125,1.125,0,1,1-1.123-1.178A1.153,1.153,0,0,1,167.4,181.058Z" transform="translate(-165.156 -179.88)" fill="#263238"/></g></g><g transform="translate(6.054 2.196)"><g transform="translate(0)"><path d="M176.948,181.058a1.125,1.125,0,1,1-1.123-1.178A1.153,1.153,0,0,1,176.948,181.058Z" transform="translate(-174.7 -179.88)" fill="#263238"/></g></g></g><g transform="translate(5.886 99.475)"><g transform="translate(0 0)"><path d="M288.889,424.916c0,.059-33.415.106-74.625.106-41.225,0-74.633-.048-74.633-.106s33.408-.106,74.633-.106S288.889,424.858,288.889,424.916Z" transform="translate(-139.631 -424.81)" fill="#263238"/></g></g></g><g transform="translate(46.17 19.104)"><g transform="translate(0 0)"><path d="M269.613,216.236a29.132,29.132,0,0,1,7.1-3.087l1.461-7.027,11.874-.209,1.707,6.972a29.118,29.118,0,0,1,7.207,2.835l6-3.932,8.544,8.249-3.719,6.135a28.979,28.979,0,0,1,3.084,7.1l7.027,1.461.209,11.874-6.972,1.711a29.037,29.037,0,0,1-2.836,7.2l3.932,6-8.25,8.544-6.135-3.719a28.98,28.98,0,0,1-7.1,3.084l-1.461,7.027-11.874.209-1.71-6.972a29.036,29.036,0,0,1-7.2-2.834l-6,3.932-8.544-8.25,3.718-6.136a29.13,29.13,0,0,1-3.087-7.1l-7.027-1.461-.21-11.873,6.972-1.711a29.035,29.035,0,0,1,2.834-7.2l-3.932-6,8.25-8.544,6.139,3.723Zm6.33,15.821a12.742,12.742,0,1,0,18.017-.316A12.742,12.742,0,0,0,275.943,232.057Z" transform="translate(-249.35 -205.912)" fill="#e0e0e0"/></g></g><g transform="translate(111.514 23.501)"><g transform="translate(0 0)"><path d="M429.682,228.345a10.019,10.019,0,0,1,.826-2.537l-1.48-1.983,2.662-3.11,2.188,1.153a10.016,10.016,0,0,1,2.379-1.212l.356-2.45,4.083-.319.734,2.361a10.021,10.021,0,0,1,2.537.826l1.982-1.48,3.11,2.662-1.153,2.188a10.016,10.016,0,0,1,1.212,2.379l2.45.356.319,4.083-2.361.734a10.019,10.019,0,0,1-.826,2.537l1.48,1.982-2.662,3.11-2.188-1.153a10.017,10.017,0,0,1-2.379,1.212l-.356,2.45-4.083.319-.734-2.361a10.02,10.02,0,0,1-2.537-.826l-1.983,1.479-3.11-2.662L431.3,235.9a10.017,10.017,0,0,1-1.212-2.379l-2.45-.356-.319-4.083,2.361-.734Zm5.533,1.237a4.393,4.393,0,1,0,3.609-3.921,4.393,4.393,0,0,0-3.609,3.921Z" transform="translate(-427.321 -217.888)" fill="#e0e0e0"/></g></g><g transform="translate(21.834 60.786)"><g transform="translate(0 0)"><path d="M185.692,333.607a11.75,11.75,0,0,1,.51-3.11l-2.08-2.049,2.548-4.1,2.761.955a11.875,11.875,0,0,1,2.559-1.84l-.022-2.919,4.707-1.1,1.278,2.625a11.9,11.9,0,0,1,3.11.51l2.049-2.08,4.1,2.548-.955,2.761a11.873,11.873,0,0,1,1.84,2.559l2.919-.022,1.1,4.7L209.5,334.32a11.9,11.9,0,0,1-.51,3.11l2.08,2.049-2.548,4.1-2.761-.955a11.874,11.874,0,0,1-2.559,1.84l.022,2.919-4.709,1.1-1.278-2.625a11.9,11.9,0,0,1-3.11-.51l-2.049,2.08-4.1-2.548.955-2.761a11.875,11.875,0,0,1-1.84-2.559l-2.919.022-1.1-4.7,2.625-1.278Zm6.8,1.322a5.185,5.185,0,1,0,3.866-6.231,5.185,5.185,0,0,0-3.866,6.231Z" transform="translate(-183.066 -319.438)" fill="#e0e0e0"/></g></g><g transform="translate(31.128 27.843)"><g transform="translate(0 0)"><path d="M210.161,237.594a7.536,7.536,0,0,1,.624-1.913l-1.116-1.494,2-2.346,1.652.87a7.634,7.634,0,0,1,1.792-.914l.268-1.846,3.077-.239.551,1.781a7.537,7.537,0,0,1,1.913.624L222.421,231l2.346,2-.87,1.652a7.633,7.633,0,0,1,.914,1.792l1.846.268.239,3.077-1.781.551a7.539,7.539,0,0,1-.624,1.913l1.116,1.494-2,2.346-1.652-.87a7.632,7.632,0,0,1-1.792.914l-.268,1.846-3.077.239-.551-1.781a7.538,7.538,0,0,1-1.913-.624l-1.494,1.116-2.346-2,.87-1.652a7.632,7.632,0,0,1-.914-1.792l-1.846-.268-.239-3.077,1.781-.551Zm4.167,1.494a3.311,3.311,0,1,0,3.044-3.557,3.311,3.311,0,0,0-3.044,3.557Z" transform="translate(-208.381 -229.713)" fill="#ebebeb"/></g></g><g transform="translate(112.503 62.083)"><g transform="translate(0 0)"><path d="M431.541,329.748a6.5,6.5,0,0,1,.537-1.644l-.958-1.285,1.722-2.016,1.417.745a6.426,6.426,0,0,1,1.544-.786l.231-1.586,2.644-.206.473,1.531a6.494,6.494,0,0,1,1.644.537l1.285-.958L444.1,325.8l-.745,1.417a6.467,6.467,0,0,1,.786,1.539l1.586.231.206,2.644-1.531.473a6.494,6.494,0,0,1-.537,1.644l.958,1.285-1.721,2.016-1.417-.745a6.467,6.467,0,0,1-1.539.786l-.231,1.586-2.644.206-.474-1.531a6.494,6.494,0,0,1-1.644-.537l-1.285.958-2.016-1.722.745-1.417a6.608,6.608,0,0,1-.786-1.539l-1.586-.231-.206-2.644,1.527-.473Zm3.58,1.281a2.843,2.843,0,1,0,.673-2.071A2.845,2.845,0,0,0,435.121,331.029Z" transform="translate(-430.015 -322.97)" fill="#ebebeb"/></g></g><g transform="translate(57.163 28.943)"><g transform="translate(0 0)"><path d="M303.685,276.611H285.419a6.127,6.127,0,0,1-5.306-9.194l9.135-15.821,9.135-15.821a6.128,6.128,0,0,1,10.615,0l9.135,15.821,9.135,15.821a6.13,6.13,0,0,1-5.306,9.194Z" transform="translate(-279.291 -232.71)" fill="#ff725e"/></g><g transform="translate(4.334 3.643)"><g transform="translate(0 0)"><path d="M330.818,275.525s.051.1.143.283a2.447,2.447,0,0,1,.184.911,2.517,2.517,0,0,1-.426,1.443,2.491,2.491,0,0,1-.687.687,2.238,2.238,0,0,1-1.05.342c-3.114.034-7.607.029-13.166.04s-12.179.011-19.526.022H293.5a2.4,2.4,0,0,1-2.251-1.63,2.637,2.637,0,0,1-.092-1.479c.034-.121.073-.242.11-.36.055-.114.1-.231.161-.342l.352-.643c.47-.863.947-1.729,1.424-2.607,1.92-3.506,3.907-7.141,5.939-10.861s4.024-7.354,5.944-10.861q1.443-2.633,2.827-5.162c.235-.422.452-.841.7-1.256a2.852,2.852,0,0,1,1.028-1.021,3.022,3.022,0,0,1,2.761-.125,2.818,2.818,0,0,1,1.091.872,12.112,12.112,0,0,1,.687,1.178l1.27,2.324,2.427,4.446c1.564,2.867,3.022,5.54,4.355,7.982,2.655,4.88,4.806,8.825,6.293,11.562.738,1.362,1.311,2.423,1.7,3.147.191.356.338.632.436.822s.147.283.147.283-.059-.092-.161-.272-.257-.459-.455-.811c-.4-.72-.984-1.773-1.733-3.132-1.5-2.728-3.668-6.668-6.344-11.533-1.337-2.438-2.8-5.1-4.373-7.971q-1.179-2.148-2.434-4.443l-1.275-2.324a11.428,11.428,0,0,0-.675-1.153,2.7,2.7,0,0,0-1.028-.819,2.852,2.852,0,0,0-2.6.117,2.674,2.674,0,0,0-.962.958c-.239.4-.463.834-.694,1.252q-1.383,2.533-2.823,5.168c-1.92,3.51-3.907,7.141-5.939,10.864s-4.022,7.351-5.941,10.859c-.481.878-.955,1.745-1.428,2.607a5.486,5.486,0,0,0-.609,1.3,2.5,2.5,0,0,0,.085,1.373,2.229,2.229,0,0,0,2.078,1.513h2.79c7.347.007,13.967.015,19.526.022l13.163.018a2.218,2.218,0,0,0,1.021-.323,2.47,2.47,0,0,0,1.112-2.071A2.818,2.818,0,0,0,330.818,275.525Z" transform="translate(-291.093 -242.632)" fill="#263238"/></g></g><g transform="translate(21.435 16.57)"><path d="M337.67,294.425a3.132,3.132,0,0,1,6.234,0,3.127,3.127,0,0,1-6.234,0Zm.03-16.585h6.2l-1.043,12.219h-4.146Z" transform="translate(-337.67 -277.84)" fill="#fff"/></g><g transform="translate(19.188 0.874)"><g transform="translate(0 0)"><path d="M337.63,235.47a5.1,5.1,0,0,0-1.164-.239,4.1,4.1,0,0,0-2.647.885,6.668,6.668,0,0,0-1.751,2.248c-.336.661-.488,1.1-.518,1.087a1.088,1.088,0,0,1,.077-.316,7.553,7.553,0,0,1,.319-.826,6.194,6.194,0,0,1,1.755-2.339,4.031,4.031,0,0,1,2.776-.87,2.821,2.821,0,0,1,.87.213C337.54,235.393,337.638,235.459,337.63,235.47Z" transform="translate(-331.55 -235.092)" fill="#fff"/></g></g><g transform="translate(17.632 6.326)"><g transform="translate(0 0)"><path d="M327.312,251.578a4.784,4.784,0,0,1,.966-1.638A4.943,4.943,0,0,1,327.312,251.578Z" transform="translate(-327.312 -249.94)" fill="#fff"/></g></g><g transform="translate(1.414 9.748)" opacity="0.3"><path d="M315.285,259.26l-28.452,17.53-3.694,6.4,34.153-20.454Z" transform="translate(-283.14 -259.26)" fill="#fff"/></g><g transform="translate(0.327 17.517)" opacity="0.3"><path d="M317.891,280.42,280.18,302.661a3.978,3.978,0,0,0,.819,1.586l37.557-22.672Z" transform="translate(-280.18 -280.42)" fill="#fff"/></g></g></g><g transform="translate(122.181 67.566)"><g transform="translate(0 0)"><g transform="translate(0.368)"><g transform="translate(0)"><path d="M523.224,301.137a11.1,11.1,0,0,0-11.617-3.11l-3.514-3.855-.488-.547L479.8,263.118a11.1,11.1,0,0,0-11.753-15.4l-1.358.54,4.729,3.176-.25,5.155-3.822,3.47-5.155-.25-3.37-3.714-1.4.543c-.4,3.114,1.689,7.031,3.962,9.539a11.107,11.107,0,0,0,11.6,3.117l28.271,31.018.87.966,2.68,2.941a11.1,11.1,0,0,0,1.98,11.848,11.26,11.26,0,0,0,8.393,4.079l1.4-.543-3.371-3.716.25-5.155,3.822-3.47,5.155.25,1.98,4.259,1.393-.544A11.161,11.161,0,0,0,523.224,301.137Z" transform="translate(-457.375 -247.608)" fill="#e0e0e0"/></g></g><g transform="translate(0.368)" opacity="0.3"><g transform="translate(0)"><path d="M523.224,301.137a11.1,11.1,0,0,0-11.617-3.11l-3.514-3.855-.488-.547L479.8,263.118a11.1,11.1,0,0,0-11.753-15.4l-1.358.54,4.729,3.176-.25,5.155-3.822,3.47-5.155-.25-3.37-3.714-1.4.543c-.4,3.114,1.689,7.031,3.962,9.539a11.107,11.107,0,0,0,11.6,3.117l28.271,31.018.87.966,2.68,2.941a11.1,11.1,0,0,0,1.98,11.848,11.26,11.26,0,0,0,8.393,4.079l1.4-.543-3.371-3.716.25-5.155,3.822-3.47,5.155.25,1.98,4.259,1.393-.544A11.161,11.161,0,0,0,523.224,301.137Z" transform="translate(-457.375 -247.608)"/></g></g><g transform="translate(0 0.453)"><g transform="translate(0.096 0.09)"><path d="M521.359,302.617a11.1,11.1,0,0,0-11.617-3.11l-3.514-3.855-.488-.547L477.935,264.6a11.1,11.1,0,0,0-11.753-15.4l3.37,3.716-.25,5.155-3.829,3.47-5.155-.25-3.371-3.716a11.1,11.1,0,0,0,14.165,13.2l28.271,31.018.87.966,2.68,2.941a11.105,11.105,0,0,0,11.764,15.38l-3.371-3.716.25-5.155,3.822-3.47,5.155.25,3.37,3.716a11.09,11.09,0,0,0-2.565-10.086Z" transform="translate(-456.634 -249.088)" fill="#e0e0e0"/></g><g transform="translate(0 0)"><path d="M521.2,302.461s.161.176.466.533a11.614,11.614,0,0,1,1.149,1.733,11.112,11.112,0,0,1,.991,7.824l-.018.073-.051-.055c-1-1.1-2.141-2.349-3.378-3.712l.034.015c-1.59-.077-3.319-.158-5.159-.242l.04-.015c-1.193,1.087-2.475,2.251-3.819,3.473l.018-.04c-.077,1.6-.158,3.345-.246,5.159l-.018-.048c1.043,1.149,2.192,2.412,3.374,3.712l.088.1-.128.018a11.167,11.167,0,0,1-10.071-3.808,11.021,11.021,0,0,1-2.537-5.441,11.245,11.245,0,0,1,.756-6.231l.015.088c-9.429-10.343-20.26-22.224-31.829-34.913l.1.026a11.2,11.2,0,0,1-14.286-13.313l.044-.176.121.132q1.7,1.872,3.37,3.716l-.067-.03,5.155.25-.067.026q1.933-1.751,3.825-3.47l-.03.067q.127-2.6.253-5.155l.022.067q-1.707-1.879-3.37-3.716l-.117-.129.172-.022a11.174,11.174,0,0,1,10.681,4.593,11.048,11.048,0,0,1,2.023,5.408,11.39,11.39,0,0,1-.863,5.522l-.015-.088L509.6,299.323l-.044-.011a11.132,11.132,0,0,1,9.142,1.076,11.67,11.67,0,0,1,1.924,1.48c.382.393.57.595.57.595s-.2-.191-.58-.58a11.731,11.731,0,0,0-1.931-1.458,11.117,11.117,0,0,0-9.094-1.036l-.026.007-.018-.018c-6.921-7.582-18.031-19.757-31.837-34.884l-.037-.04.022-.048a11.244,11.244,0,0,0,.845-5.441,11.013,11.013,0,0,0-12.513-9.836l.055-.151,3.37,3.716.026.029,0,.037q-.121,2.55-.25,5.155l0,.04-.029.026q-1.895,1.718-3.822,3.47l-.029.026-.04,0q-2.561-.127-5.155-.25l-.04,0-.026-.029-3.37-3.716.162-.04a11.009,11.009,0,0,0,7.949,13.254,11.131,11.131,0,0,0,6.1-.168l.059-.018.04.044c11.562,12.7,22.386,24.581,31.811,34.928l.037.04-.022.048a11.091,11.091,0,0,0-.753,6.139,10.861,10.861,0,0,0,2.5,5.369,11.011,11.011,0,0,0,9.933,3.771l-.04.114c-1.182-1.3-2.328-2.566-3.367-3.719l-.018-.018v-.026c.088-1.81.176-3.554.257-5.155v-.026l.018-.015c1.348-1.219,2.632-2.383,3.825-3.466l.018-.015h.022c1.836.092,3.565.176,5.155.257h.018l.015.015c1.234,1.362,2.368,2.617,3.367,3.719l-.067.018a11.091,11.091,0,0,0-.951-7.787,11.875,11.875,0,0,0-1.131-1.74C521.347,302.648,521.2,302.461,521.2,302.461Z" transform="translate(-456.374 -248.842)" fill="#263238"/></g></g><g transform="translate(14.296 17.829)"><g transform="translate(0 0)"><path d="M501.141,296.169a.975.975,0,0,1-.121.275,6.541,6.541,0,0,1-.426.694,8.926,8.926,0,0,1-4.208,3.231,6.255,6.255,0,0,1-.779.235,1.093,1.093,0,0,1-.3.048c-.007-.034.4-.143,1.025-.408a10.558,10.558,0,0,0,2.284-1.322,10.446,10.446,0,0,0,1.865-1.865C500.9,296.518,501.112,296.154,501.141,296.169Z" transform="translate(-495.311 -296.169)" fill="#263238"/></g></g><g transform="translate(22.187 24.982)"><g transform="translate(0 0)"><path d="M545.794,321.749l-10.578-4.92-9.44-1.178,3.466,2.919s-12.2,4.252-12.416,5.214.966,3.536,3.114,3.058a3.631,3.631,0,0,0-.7,3.084c.5,1.63,1.615,1.924,3.668,1.546,0,0-1.4,2.089-.3,3.154a3.587,3.587,0,0,0,2.8.793s.022,2.544,1.366,2.768a21.766,21.766,0,0,0,6.488-.474c1.4-.434,7.1-2.2,7.1-2.2l4.631-1.017Z" transform="translate(-516.803 -315.65)" fill="#ffbf9d"/><g transform="translate(3.134 9.294)"><g transform="translate(0 0)"><path d="M531.756,341a21.3,21.3,0,0,1-6.418,1.865A21.3,21.3,0,0,1,531.756,341Z" transform="translate(-525.337 -340.964)" fill="#ff9a6c"/></g></g><g transform="translate(6.214 14.31)"><g transform="translate(0 0)"><path d="M538.861,354.663a13.788,13.788,0,0,1-5.133,1.546,7.032,7.032,0,0,1,2.493-1.024A7.142,7.142,0,0,1,538.861,354.663Z" transform="translate(-533.727 -354.624)" fill="#ff9a6c"/></g></g><g transform="translate(8.591 18.433)"><g transform="translate(0 0)"><path d="M544.569,365.945c.026.158-.987.371-2.177.668s-2.114.72-2.188.58a3.583,3.583,0,0,1,2.056-1.091A4.281,4.281,0,0,1,544.569,365.945Z" transform="translate(-540.2 -365.855)" fill="#ff9a6c"/></g></g><g transform="translate(8.06 2.48)"><g transform="translate(0 0)"><path d="M544.987,322.439a12.586,12.586,0,0,1-3.058,1.237,12.38,12.38,0,0,1-3.172.906,8.934,8.934,0,0,1,3-1.406A9.049,9.049,0,0,1,544.987,322.439Z" transform="translate(-538.754 -322.404)" fill="#ff9a6c"/></g></g></g></g><g transform="translate(45.545 30.156)"><path d="M584.062,329.74l22.87,8.283-1.337,15.7L580.42,343.567Z" transform="translate(-580.42 -329.74)" fill="#ffbf9d"/></g></g><g transform="translate(61.161 2.688)"><path d="M640.32,254.93a23.288,23.288,0,0,1,4.718,8.621c1.722,5.5,9.924,29.024,9.715,36.5-.217,7.729-5.419,13.244-16.853,10.189-6.822-1.821-14.951-4.769-14.951-4.769l5.775-18.993,4.52,1.138-7.3-13.7Z" transform="translate(-622.95 -254.93)" fill="#ff725e"/></g><g transform="translate(59.016 11.665)"><g transform="translate(0 0)"><path d="M631.393,279.38c.044.03-3.121,4.538-7.064,10.064s-7.178,9.983-7.218,9.954,3.117-4.534,7.064-10.064S631.348,279.35,631.393,279.38Z" transform="translate(-617.11 -279.38)" fill="#263238"/></g></g><g transform="translate(66.947 34.14)"><g transform="translate(0 0)"><path d="M653.811,344.426c-.007.015-.2-.1-.554-.261a10.407,10.407,0,0,0-1.568-.554c-.679-.187-1.5-.363-2.412-.562s-1.917-.422-2.967-.657c-2.1-.47-4.009-.906-5.383-1.234-.661-.161-1.212-.294-1.626-.4a4.56,4.56,0,0,1-.591-.168,3.363,3.363,0,0,1,.606.1c.418.085.973.2,1.641.336,1.384.29,3.288.709,5.4,1.178,1.05.239,2.049.463,2.963.671s1.733.4,2.412.6a9.009,9.009,0,0,1,1.564.617,4.342,4.342,0,0,1,.4.231A.772.772,0,0,1,653.811,344.426Z" transform="translate(-638.709 -340.594)" fill="#263238"/></g></g><g transform="translate(71.28 35.118)" opacity="0.3"><g transform="translate(0 0)"><path d="M667.124,346.936a2.849,2.849,0,0,0-1.575-2.1,7.776,7.776,0,0,0-2.629-.7c-4.109-.565-8.265-.72-12.41-.872l.382.165a77.437,77.437,0,0,1,14.962,4.358,1.116,1.116,0,0,0,.866.1.9.9,0,0,0,.4-.945Z" transform="translate(-650.51 -343.255)"/></g></g></g><g transform="translate(98.086 26.061)"><g transform="translate(0 0)"><g transform="translate(2.889 7.188)" opacity="0.3"><g transform="translate(0 0)"><path d="M413.5,154.426c-3.855-.657-8.463.463-12.318-.191a2.558,2.558,0,0,0-1.711.1,2.133,2.133,0,0,0-.848,1.828,6.965,6.965,0,0,0,2.218,5.2,9.858,9.858,0,0,0,5.181,2.475,7.1,7.1,0,0,0,4.564-.533C412.971,162.008,414.128,157.074,413.5,154.426Z" transform="translate(-398.618 -154.14)"/></g></g><path d="M393.553,149.091s-2.339-2.739-2.677-4.006a22.235,22.235,0,0,1-.011-4.67,2.557,2.557,0,0,1,1.671-2.276.854.854,0,0,1,.872.07,8.744,8.744,0,0,1,1.065-1.2c.918-.94,1.355-1.575,3.374-.991,0,0,1.487-1.568,2.343-1.45a13.242,13.242,0,0,1,1.7.367s3.257-.134,3.926.9a2.987,2.987,0,0,0,1.48.98,4.051,4.051,0,0,1,2.324,2.118,8.311,8.311,0,0,1,.65,2.838l-3.315.132s.235,7.6-.6,8.217-1.149.4-1.149.4-.635,1.785-3.114.463c0,0-2.056.62-2.934-.228s-4.1-9-4.1-9l.092,4.05s1.7,2.621.866,3.235S393.553,149.091,393.553,149.091Z" transform="translate(-390.747 -134.563)" fill="#ffbf9d"/></g><g transform="translate(6.933 4.221)"><g transform="translate(0)"><path d="M409.631,146.06a2.558,2.558,0,0,1,.187.477c.117.349.268.793.448,1.322.371,1.12.866,2.673,1.406,4.387a37.567,37.567,0,0,0,1.491,4.343,8.918,8.918,0,0,0,.676,1.212,4.842,4.842,0,0,1,.283.43s-.037-.026-.1-.092a3.721,3.721,0,0,1-.246-.294,7.429,7.429,0,0,1-.734-1.2,31.526,31.526,0,0,1-1.553-4.347c-.543-1.715-1.017-3.275-1.355-4.406-.158-.54-.286-.988-.389-1.34A2.861,2.861,0,0,1,409.631,146.06Z" transform="translate(-409.631 -146.06)" fill="#ff9a6c"/></g></g><g transform="translate(10.997 3.281)"><g transform="translate(0)"><path d="M420.7,143.5a2.782,2.782,0,0,1,.168.492c.1.356.235.811.389,1.362.323,1.149.753,2.743,1.219,4.505s.878,3.36,1.164,4.52c.132.554.246,1.017.331,1.376a2.546,2.546,0,0,1,.1.51,2.774,2.774,0,0,1-.168-.492c-.1-.356-.235-.811-.389-1.358-.323-1.149-.753-2.743-1.219-4.509s-.878-3.363-1.164-4.52c-.132-.554-.246-1.017-.33-1.376A2.865,2.865,0,0,1,420.7,143.5Z" transform="translate(-420.7 -143.5)" fill="#ff9a6c"/></g></g></g></g></g></g></svg>