<svg xmlns="http://www.w3.org/2000/svg" xmlns:xlink="http://www.w3.org/1999/xlink" width="250" height="250" viewBox="0 0 250 250"><defs><clipPath id="b"><rect width="250" height="250"/></clipPath></defs><g id="a" clip-path="url(#b)"><g transform="translate(-46.103 -51.093)" opacity="0.6"><g transform="translate(54.326 71.865)"><g transform="translate(0 0)"><path d="M393.942,345.421H350.18s4.34-11.851,11.016-11.851,8.768,8.182,8.768,8.182,4.5-4.444,8.206-4.444,6.92,5.874,6.92,5.874A6.46,6.46,0,0,1,393.942,345.421Z" transform="translate(-225.235 -243.083)" fill="#ebebeb"/><path d="M298.064,311.844h-23.08s5.156-7.474,9.219-7.474,5.262,4.984,5.262,4.984,2.867-2.322,5.522-1.911S298.064,311.844,298.064,311.844Z" transform="translate(-66.59 -271.61)" fill="#ebebeb"/><path d="M103.276,172.911H58.32s6.155-13.746,12.742-14.6S80.8,168.52,80.8,168.52s4.246-3.913,7.586-3.913,5.916,5.156,5.916,5.156S100.982,166.23,103.276,172.911Z" transform="translate(-58.32 -136.413)" fill="#ebebeb"/><path d="M210.848,93.8H180.48S185.7,83.841,191.355,83.7s8.631,7.535,8.631,7.535S208.793,84.172,210.848,93.8Z" transform="translate(-102.584 -83.696)" fill="#ebebeb"/></g></g><g transform="translate(200.364 61.41)"><rect width="5.592" height="202.935" transform="translate(41.144 26.01)" fill="#dbdbdb"/><path d="M300.083,61.41,256.14,137.515h87.881Z" transform="translate(-256.14 -61.41)" fill="#cf1322"/><path d="M310.883,84.91,276.49,144.478h68.787Z" transform="translate(-266.943 -73.885)" fill="#fff"/><g transform="translate(40.459 33.861)"><path d="M342.38,121.65h6.967l-.469,20.082h-6.028Z" transform="translate(-342.38 -121.65)" fill="#cf1322"/><rect width="6.024" height="6.024" transform="translate(0.469 23.3)" fill="#cf1322"/></g><g transform="translate(0 87.471)"><rect width="87.881" height="35.403" fill="#cf1322"/><path d="M344.281,268.731H260.35V237.25h83.931Zm-83.461-.58h82.993V237.83H260.819Z" transform="translate(-258.375 -235.289)" fill="#fff"/><g transform="translate(9.059 9.385)"><path d="M279.832,246.453h1.74l1.1,3.223,1.1-3.223h1.755l-1.661,4.429L285.1,254l2.759-7.567h2.055l-3.966,9.735h-1.59l-1.689-4.086-1.689,4.086h-1.59l-3.937-9.735h2.031L280.249,254l1.206-3.115Z" transform="translate(-275.45 -246.332)" fill="#fadb14"/><path d="M308.316,246.42h1.675l3.7,9.735h-1.947l-.905-2.426h-3.4l-.891,2.426H304.6ZM310.5,252.4l-1.342-3.823-1.4,3.823Z" transform="translate(-290.924 -246.326)" fill="#fadb14"/><path d="M326.26,256.155V246.42h4.307a2.765,2.765,0,0,1,1.242.281,3.261,3.261,0,0,1,.981.741,3.49,3.49,0,0,1,.643,1.042,3.149,3.149,0,0,1,.235,1.173,3.255,3.255,0,0,1-.474,1.72,2.714,2.714,0,0,1-1.281,1.117l2.219,3.659h-2.125l-1.989-3.265h-1.864v3.265Zm1.891-4.922h2.374a1.03,1.03,0,0,0,.488-.122,1.214,1.214,0,0,0,.389-.338,1.754,1.754,0,0,0,.263-.5,1.905,1.905,0,0,0,.1-.621,1.7,1.7,0,0,0-.4-1.131,1.3,1.3,0,0,0-.427-.328,1.081,1.081,0,0,0-.488-.117h-2.289v3.158Z" transform="translate(-302.423 -246.326)" fill="#fadb14"/><path d="M347.591,249.915v6.24H345.7V246.42h1.468l5.071,6.39v-6.376h1.891v9.721H352.6Z" transform="translate(-312.742 -246.326)" fill="#fadb14"/><path d="M368,256.155V246.42h1.891v9.735Z" transform="translate(-324.58 -246.326)" fill="#fadb14"/><path d="M378.251,249.915v6.24H376.36V246.42h1.468l5.071,6.39v-6.376h1.889v9.721h-1.534Z" transform="translate(-329.018 -246.326)" fill="#fadb14"/><path d="M404.757,254.97a3.721,3.721,0,0,1-2.717,1.164,4.253,4.253,0,0,1-1.8-.385,4.64,4.64,0,0,1-1.468-1.056,4.921,4.921,0,0,1-.985-1.586,5.239,5.239,0,0,1-.366-1.971,4.963,4.963,0,0,1,1.365-3.434,4.8,4.8,0,0,1,1.5-1.056,4.467,4.467,0,0,1,1.876-.389,4.546,4.546,0,0,1,2.351.577,3.74,3.74,0,0,1,1.473,1.548l-1.412,1.042a2.643,2.643,0,0,0-1.037-1.112,2.824,2.824,0,0,0-1.445-.385,2.461,2.461,0,0,0-1.131.263,2.684,2.684,0,0,0-.875.714,3.277,3.277,0,0,0-.563,1.042,3.905,3.905,0,0,0-.2,1.248,3.71,3.71,0,0,0,.22,1.281,3.245,3.245,0,0,0,.605,1.037,2.868,2.868,0,0,0,.908.694,2.607,2.607,0,0,0,1.147.253,3.324,3.324,0,0,0,2.552-1.332v-.687H402.8v-1.386h3.523v5.008H404.76V254.97Z" transform="translate(-340.197 -246.239)" fill="#fadb14"/><path d="M420.22,252.389V246.22h1.839v6.169Zm0,3.659V253.98h1.839v2.069Z" transform="translate(-352.301 -246.22)" fill="#fadb14"/><g transform="translate(0.75 12.643)"><path d="M279.02,273.25h.887l1.959,5.151h-1.032l-.478-1.285h-1.8l-.474,1.285h-1.032Zm1.154,3.162-.713-2.022-.741,2.022Z" transform="translate(-277.048 -273.211)" fill="#fff"/><path d="M290.8,274.127h-1.647V278.4h-.994v-4.274H286.51v-.877H290.8Z" transform="translate(-282.071 -273.211)" fill="#fff"/><path d="M300.368,274.127h-1.647V278.4h-.994v-4.274H296.08v-.877h4.288Z" transform="translate(-287.151 -273.211)" fill="#fff"/><path d="M310.155,277.524v.877H306.58V273.25h3.509v.877h-2.51v1.239h2.168v.812h-2.168v1.342h2.576Z" transform="translate(-292.725 -273.211)" fill="#fff"/><path d="M316.879,275.1v3.3h-1V273.25h.779l2.684,3.383V273.26h1V278.4h-.812Z" transform="translate(-297.662 -273.211)" fill="#fff"/><path d="M331.028,274.127h-1.647V278.4h-.994v-4.274H326.74v-.877h4.288Z" transform="translate(-303.427 -273.211)" fill="#fff"/><path d="M337.24,278.4V273.25h1V278.4Z" transform="translate(-309.001 -273.211)" fill="#fff"/><path d="M343.511,278.4a2.389,2.389,0,0,1-1.027-.22,2.456,2.456,0,0,1-.788-.586,2.691,2.691,0,0,1-.511-.84,2.657,2.657,0,0,1-.183-.967,2.613,2.613,0,0,1,.191-.985,2.718,2.718,0,0,1,.53-.835,2.542,2.542,0,0,1,.8-.577,2.416,2.416,0,0,1,1.009-.216,2.225,2.225,0,0,1,1.018.23,2.552,2.552,0,0,1,.788.6,2.828,2.828,0,0,1,.507.84,2.637,2.637,0,0,1,0,1.942,2.683,2.683,0,0,1-.521.826,2.462,2.462,0,0,1-1.811.788Zm-1.5-2.613a2.031,2.031,0,0,0,.1.647,1.654,1.654,0,0,0,.3.554,1.414,1.414,0,0,0,1.75.38,1.481,1.481,0,0,0,.474-.394,1.783,1.783,0,0,0,.291-.554,2.048,2.048,0,0,0,.1-.629,2.172,2.172,0,0,0-.1-.647,1.815,1.815,0,0,0-.3-.549,1.392,1.392,0,0,0-.474-.382,1.473,1.473,0,0,0-1.276.01,1.433,1.433,0,0,0-.474.394,1.8,1.8,0,0,0-.287.549,1.844,1.844,0,0,0-.1.622Z" transform="translate(-310.997 -273.168)" fill="#fff"/><path d="M354.359,275.1v3.3h-1V273.25h.779l2.684,3.383V273.26h1V278.4h-.812Z" transform="translate(-317.558 -273.211)" fill="#fff"/><path d="M368.86,278.4V273.25h2.181a1.481,1.481,0,0,1,.657.15,1.662,1.662,0,0,1,.521.394,1.922,1.922,0,0,1,.343.554,1.618,1.618,0,0,1,.122.621,1.741,1.741,0,0,1-.117.633,1.8,1.8,0,0,1-.328.549,1.648,1.648,0,0,1-.507.385,1.446,1.446,0,0,1-.652.143h-1.215v1.726h-1Zm1-2.6h1.159a.571.571,0,0,0,.46-.225.936.936,0,0,0,.183-.61,1.026,1.026,0,0,0-.056-.352.838.838,0,0,0-.15-.263.632.632,0,0,0-.22-.164.624.624,0,0,0-.258-.056h-1.117Z" transform="translate(-325.786 -273.211)" fill="#fff"/><path d="M378.5,278.4V273.25h1v4.274h2.628v.877Z" transform="translate(-330.904 -273.211)" fill="#fff"/><path d="M391.1,277.524v.877H387.53V273.25h3.509v.877h-2.51v1.239H390.7v.812h-2.168v1.342H391.1Z" transform="translate(-335.697 -273.211)" fill="#fff"/><path d="M397.71,273.25h.887l1.959,5.151h-1.032l-.478-1.285h-1.8l-.474,1.285h-1.032Zm1.154,3.162-.713-2.022-.741,2.022Z" transform="translate(-340.055 -273.211)" fill="#fff"/><path d="M409.68,274.568a1.133,1.133,0,0,0-.183-.136,2.349,2.349,0,0,0-.328-.169,2.57,2.57,0,0,0-.418-.141,1.865,1.865,0,0,0-.455-.056,1.03,1.03,0,0,0-.615.15.5.5,0,0,0-.2.427.416.416,0,0,0,.075.263.669.669,0,0,0,.22.183,1.978,1.978,0,0,0,.366.143c.143.042.319.089.511.136.253.065.478.141.685.216a1.839,1.839,0,0,1,.521.291,1.181,1.181,0,0,1,.328.418,1.426,1.426,0,0,1,.117.6,1.5,1.5,0,0,1-.155.709,1.251,1.251,0,0,1-.422.474,1.744,1.744,0,0,1-.61.263,3.02,3.02,0,0,1-.723.085,3.829,3.829,0,0,1-1.147-.173,3.57,3.57,0,0,1-1.014-.493l.441-.863a1.47,1.47,0,0,0,.235.169,3.52,3.52,0,0,0,.4.211,3.029,3.029,0,0,0,.516.178,2.38,2.38,0,0,0,.582.07c.549,0,.826-.178.826-.53a.434.434,0,0,0-.1-.281.771.771,0,0,0-.268-.2,2.669,2.669,0,0,0-.422-.16c-.164-.048-.347-.1-.554-.16a4.424,4.424,0,0,1-.643-.22,1.709,1.709,0,0,1-.455-.281,1.056,1.056,0,0,1-.272-.375,1.3,1.3,0,0,1-.089-.511,1.557,1.557,0,0,1,.143-.694,1.421,1.421,0,0,1,.4-.507,1.844,1.844,0,0,1,.6-.31,2.485,2.485,0,0,1,.732-.1,2.865,2.865,0,0,1,1,.169,3.621,3.621,0,0,1,.8.4Z" transform="translate(-345.627 -273.178)" fill="#fff"/><path d="M420.094,277.524v.877H416.52V273.25h3.509v.877h-2.51v1.239h2.168v.812h-2.168v1.342h2.575Z" transform="translate(-351.087 -273.211)" fill="#fff"/></g></g></g></g><g transform="translate(70.609 144.486)"><g transform="translate(0 0)"><g transform="translate(6.636 112.808)"><g transform="translate(0)"><g transform="translate(18.197 0.018)"><g transform="translate(0 0)"><path d="M164.01,403.509H123.393c-.335-1.309-.657-2.594-.985-3.861-.371-1.459-.736-2.876-1.089-4.265-.075-.31-.16-.621-.235-.919-.268-1.06-.53-2.1-.788-3.1-.155-.614-.31-1.215-.46-1.811s-.31-1.206-.46-1.788c-.042-.155-.075-.31-.117-.46-.042-.169-.085-.335-.122-.5-.052-.206-.1-.4-.155-.6v0c-.056-.211-.108-.418-.16-.624-.1-.389-.2-.779-.3-1.154-.143-.554-.281-1.1-.418-1.633-.056-.23-.117-.464-.173-.69-.1-.371-.191-.732-.277-1.089-.061-.235-.117-.469-.173-.694-.244-.934-.464-1.806-.669-2.628-.056-.216-.108-.427-.164-.633-.089-.357-.173-.694-.258-1.023-.056-.206-.108-.408-.155-.6-.178-.7-.347-1.338-.483-1.9-.042-.15-.075-.3-.113-.43-.1-.371-.178-.7-.253-.994-.033-.117-.056-.23-.089-.335s-.056-.225-.085-.324c-.014-.07-.038-.143-.052-.206-.023-.1-.052-.2-.07-.277a.65.65,0,0,0-.033-.122c-.061-.244-.1-.366-.1-.366h39.54s1.3,4.492,3.387,11.729c.422,1.473.882,3.063,1.37,4.753C160.654,391.78,162.268,397.409,164.01,403.509Z" transform="translate(-114.964 -370.479)" fill="#37474f"/><g transform="translate(8.582 9.267)"><path d="M139.745,413.993h-1.014q-2.252-9.339-4.372-18.7c-.338-1.52-.676-3.035-1.009-4.56-.033-.143-.061-.281-.1-.427-.014-.075.1-.108.117-.033a1.367,1.367,0,0,0,.042.141q.69,2.449,1.365,4.908Q137.357,404.623,139.745,413.993Z" transform="translate(-133.254 -390.23)" fill="#263238"/></g><path d="M153.224,370.479l-1.745,8.736-1.431,7.164-2.437,12.212-.253,1.252-.418,2.083-.314,1.581H123.376c-.328-1.314-.657-2.6-.976-3.861-.371-1.459-.736-2.876-1.089-4.265-.075-.31-.16-.621-.235-.919-.268-1.06-.53-2.1-.788-3.1-.155-.615-.31-1.215-.46-1.811s-.31-1.206-.46-1.788c-.042-.155-.075-.31-.117-.46-.042-.169-.085-.335-.122-.5-.052-.206-.1-.4-.155-.6v0c-.056-.211-.108-.418-.16-.624-.1-.39-.2-.779-.3-1.154-.143-.554-.281-1.1-.418-1.633-.061-.235-.117-.464-.173-.69-.1-.371-.191-.732-.277-1.089-.061-.235-.117-.469-.173-.694-.244-.934-.464-1.806-.669-2.628-.056-.216-.108-.427-.164-.633-.089-.356-.173-.694-.258-1.023-.056-.206-.108-.408-.155-.6-.178-.7-.347-1.338-.483-1.9-.042-.15-.075-.3-.113-.43-.1-.371-.178-.7-.253-.994-.033-.117-.056-.23-.089-.335s-.056-.225-.085-.324c-.014-.07-.038-.143-.052-.206-.023-.1-.052-.2-.07-.277a.647.647,0,0,0-.033-.122c-.061-.244-.1-.366-.1-.366Z" transform="translate(-114.96 -370.478)" fill="#263238"/></g></g><path d="M132.643,370.44v.014c-.014.216-.164,2.576-.544,6.174-.108,1.051-.235,2.2-.385,3.441-.23,1.952-.521,4.105-.877,6.38-.605,3.969-1.4,8.3-2.43,12.531q-.549,2.287-1.195,4.508l-51.039.019c.6-7.778,1.154-14.813,1.59-20.356.615-7.8,1-12.691,1-12.691l46.3-.014h7.577Z" transform="translate(-76.173 -370.44)" fill="#37474f"/><g transform="translate(5.375 3.486)"><path d="M185.94,379.075c-.056,1.83-.136,3.65-.253,5.466-.122,1.971-.3,3.936-.563,5.907,0,.07-.014.143-.023.216-.244,1.844-.516,3.683-.831,5.512A19.637,19.637,0,0,1,183,401.309a4.96,4.96,0,0,1-1.195,1.609,3.5,3.5,0,0,1-1.633.844,2.189,2.189,0,0,1-.3.052c-.023,0-.056,0-.089,0a.107.107,0,0,1,.056.108c-.019.614,0,1.234-.07,1.844,0,.023,0,.052-.01.075-.061.53-.16,1.056-.258,1.581h-.877a.3.3,0,0,0,.01-.033c.155-.577.281-1.159.427-1.74s.352-1.173.488-1.778a.1.1,0,0,1,.042-.056,2.728,2.728,0,0,1-2.637-1.651,4.717,4.717,0,0,1-.042-2.4c.16-1.046.314-2.088.474-3.134.3-1.919.685-3.819,1.023-5.728.052-.287.1-.582.155-.868.685-3.884,1.4-7.774,2.261-11.626.033-.16.065-.319.1-.478.019-.108.2-.075.188.023-.023.258-.052.521-.085.779-.15,1.478-.324,2.951-.53,4.415-.249,1.726-.418,3.458-.657,5.184-.085.586-.164,1.173-.253,1.759-.394,2.838-.807,5.672-1.29,8.5-.225,1.314-1.046,3.664.844,4.072a1.936,1.936,0,0,0,1.281-.16,4.026,4.026,0,0,0,1.755-2.219,29.386,29.386,0,0,0,1-4.724c.31-1.731.582-3.458.826-5.193v0q.464-3.249.966-6.493c.169-1.1.347-2.2.521-3.3.085-.511.164-1.018.249-1.529C185.766,378.935,185.94,378.967,185.94,379.075Z" transform="translate(-134.953 -377.87)" fill="#263238"/><path d="M99.9,393.633a25.7,25.7,0,0,0,6.3-.849c.948-.244,1.886-.549,2.815-.854a7.233,7.233,0,0,0,2.538-1.276c1.431-1.234,2.1-3.181,2.721-4.9a46.9,46.9,0,0,0,1.651-5.958c.023-.1.169-.065.169.028a23.041,23.041,0,0,1-.86,6.761c-.511,1.867-1.206,3.95-2.712,5.256a10.658,10.658,0,0,1-5.77,2.111,26.637,26.637,0,0,1-6.859-.1.111.111,0,0,1,.011-.221Z" transform="translate(-94.082 -378.859)" fill="#263238"/><path d="M89.91,379.867q-.169,4.286-.361,8.576-.443,9.993-.962,19.986h-.956q.655-10.014,1.386-20.014.317-4.279.647-8.553C89.68,379.7,89.92,379.709,89.91,379.867Z" transform="translate(-87.631 -378.865)" fill="#263238"/></g></g></g><g transform="translate(45.22 49.098)"><path d="M171.256,241.039c7.01,8.481,32.033,39.713,28.51,48.412-3.57,8.811-11.926,14.867-16.275,8.731-3.589-5.062-17.1-40.1-19.033-49.153C162.618,240.415,164.368,232.7,171.256,241.039Z" transform="translate(-161.26 -236.137)" fill="#d3766a"/><g transform="translate(0 0)"><path d="M166.4,270.085l26.024-5.175S174.1,242.2,166.829,237.042c-8.186-5.8-9.366-.352-7.844,9.064S166.4,270.085,166.4,270.085Z" transform="translate(-158.416 -234.648)" fill="#ffc727"/><path d="M192.423,264.9,166.4,270.08s-5.892-14.562-7.412-23.978-.343-14.872,7.844-9.069c.413.3.863.647,1.347,1.046.191.16.389.328.591.5,0,0,0,0,0,.01a122.635,122.635,0,0,1,9.458,9.646c.061.07.122.136.188.206,2.684,2.988,5.362,6.094,7.646,8.792q.493.584.956,1.14C190.213,262.163,192.423,264.9,192.423,264.9Z" transform="translate(-158.417 -234.644)" fill="#ffc727"/><path d="M178.134,266.309a8.358,8.358,0,0,0-.558,2.327,8.659,8.659,0,0,0,1.135-2.106,8.331,8.331,0,0,0,.563-2.322,8.494,8.494,0,0,0-1.14,2.1Zm-9.711-11.4a8.333,8.333,0,0,0-2.322-.563,8.3,8.3,0,0,0,2.1,1.14,8.409,8.409,0,0,0,2.322.563A8.3,8.3,0,0,0,168.422,254.909Zm5.017-11.316a11.589,11.589,0,0,0-.586-1.121s0,0,0-.01c-.2-.173-.4-.343-.591-.5a9.549,9.549,0,0,0,.621,1.886,8.123,8.123,0,0,0,1.242,2.041,8.374,8.374,0,0,0-.684-2.294ZM191.319,262.7c-.07-.15-.141-.3-.216-.446q-.464-.556-.956-1.14a9.075,9.075,0,0,0,.6,1.839A8.425,8.425,0,0,0,192,265a8.367,8.367,0,0,0-.679-2.295Zm-9.007-10.584c-.131.1-.263.2-.389.3a5.691,5.691,0,0,0,.577-.1c-.068-.071-.129-.137-.19-.207Z" transform="translate(-162.494 -238.527)" fill="#fff"/><g transform="translate(7.788 26.365)"><g transform="translate(0)"><path d="M196.654,290.84c-.929.038-9.064,1.525-10.823,1.886s-8.975,1.768-10.762,2.294a.066.066,0,0,0,.019.131c1.844-.178,9.127-1.577,10.926-1.911s9.819-1.98,10.673-2.28C196.762,290.934,196.72,290.84,196.654,290.84Z" transform="translate(-175.014 -290.84)" fill="#263238"/></g></g><path d="M181.4,267.092l-15,2.979s-5.892-14.562-7.412-23.974c-1.121-6.948-.774-11.738,2.772-11.443Z" transform="translate(-158.417 -234.642)" fill="#263238"/></g></g><g transform="translate(5.274 47.78)"><g transform="translate(0 0)"><path d="M139.3,311.459,73.27,314.968s5.591-56.256,30.011-80.178c3.017-2.956,11.044-4.321,15.14-1.121,2.186,1.708,6.15,9.345,8.252,17.143C128.756,258.6,139.471,311.215,139.3,311.459Z" transform="translate(-73.27 -231.831)" fill="#ffc727"/></g><path d="M113.184,246.931a8.533,8.533,0,0,0-.558,2.322,8.33,8.33,0,0,0,1.14-2.1,8.5,8.5,0,0,0,.563-2.322,8.582,8.582,0,0,0-1.145,2.1Zm-7.6,30.11a8.2,8.2,0,0,0-.563,2.327,9.18,9.18,0,0,0,1.7-4.424,8.517,8.517,0,0,0-1.133,2.1Zm-4.826,31.944a8.339,8.339,0,0,0-.563,2.318,9.179,9.179,0,0,0,1.7-4.424,8.411,8.411,0,0,0-1.134,2.107Zm30.63-41.36c-.028.065-.056.136-.085.206a8.357,8.357,0,0,0-.558,2.327,7.442,7.442,0,0,0,.873-1.481v0c-.078-.357-.153-.7-.228-1.047Zm-12.52,38.052A8.377,8.377,0,0,0,118.3,308a8.319,8.319,0,0,0,1.147-2.1,8.492,8.492,0,0,0,.558-2.322,8.518,8.518,0,0,0-1.138,2.1Zm-26.765-40.3a8.286,8.286,0,0,0-.558,2.322,8.463,8.463,0,0,0,1.135-2.1,8.331,8.331,0,0,0,.563-2.322,8.33,8.33,0,0,0-1.141,2.1Zm29.491-8.947a8.333,8.333,0,0,0-2.322-.563,8.3,8.3,0,0,0,2.1,1.14,8.408,8.408,0,0,0,2.322.563,8.3,8.3,0,0,0-2.1-1.14Zm6.6,25.161a8.373,8.373,0,0,0-2.318-.558,8.141,8.141,0,0,0,2.1,1.135,8.508,8.508,0,0,0,2.322.568,8.265,8.265,0,0,0-2.1-1.144Zm3.458,29.918a8.331,8.331,0,0,0-2.322-.563,9.208,9.208,0,0,0,4.42,1.7,8.453,8.453,0,0,0-2.1-1.14ZM82.243,309.89a8.33,8.33,0,0,0-2.322-.563,9.249,9.249,0,0,0,4.424,1.7,8.411,8.411,0,0,0-2.1-1.14Zm17.593-20.108a8.3,8.3,0,0,0-2.322-.568,8.348,8.348,0,0,0,2.1,1.147,8.492,8.492,0,0,0,2.322.558,8.461,8.461,0,0,0-2.1-1.137Zm6.32-28.5a8.459,8.459,0,0,0-1.248-2.041,9.164,9.164,0,0,0,1.928,4.33,8.558,8.558,0,0,0-.679-2.289Zm11.414,25.329a8.557,8.557,0,0,0-1.242-2.041,8.342,8.342,0,0,0,.68,2.289,8.439,8.439,0,0,0,1.242,2.041,8.458,8.458,0,0,0-.68-2.289Zm-26.877,13.77a8.344,8.344,0,0,0-1.248-2.036,8.558,8.558,0,0,0,.68,2.289,8.255,8.255,0,0,0,1.248,2.036,8.391,8.391,0,0,0-.68-2.289Zm4.466,20.038a8.411,8.411,0,0,0-1.242-2.041,8.136,8.136,0,0,0,.68,2.289c.028.065.061.127.089.191l.643-.033Zm35.008-24.105a8.331,8.331,0,0,0-2.041,1.239,9.2,9.2,0,0,0,4.33-1.919,7.985,7.985,0,0,0-2.289.68Zm-19.526,20.375a8.442,8.442,0,0,0-2.041,1.242,8.456,8.456,0,0,0,2.289-.68A8.283,8.283,0,0,0,112.93,316a8.191,8.191,0,0,0-2.289.687Zm-31.916,4.645c-.281.131-.563.268-.835.418l1.553-.08a7.279,7.279,0,0,0,1.572-1.023,8.464,8.464,0,0,0-2.289.685Zm12.259-42.791a8.53,8.53,0,0,0-2.041,1.242,9.263,9.263,0,0,0,4.335-1.923,8.369,8.369,0,0,0-2.294.681Zm17.945,19.93a8.515,8.515,0,0,0-2.041,1.248,8.214,8.214,0,0,0,2.294-.68,8.4,8.4,0,0,0,2.041-1.248,8.54,8.54,0,0,0-2.293.681Zm7.971-30.715A8.441,8.441,0,0,0,114.858,269a9.263,9.263,0,0,0,4.335-1.923A8.371,8.371,0,0,0,116.9,267.756ZM99.235,249.811c-.164.075-.323.15-.483.235-.183.263-.366.53-.544.8a10.981,10.981,0,0,0,1.281-.469,8.59,8.59,0,0,0,2.041-1.242,8.375,8.375,0,0,0-2.294.68Z" transform="translate(-75.722 -238.73)" fill="#fff"/></g><g transform="translate(0 50.469)"><g transform="translate(0 0.392)"><path d="M88.439,246.338C69.885,268.2,57.2,302.762,63.79,307.837c7.474,5.761,35.083,10.5,46.052,11.456,3.4.3,3.922-27.881.272-27.8-4.424.1-20.966-3.256-21.408-3.26-.948-.014,8.065-28.613,10.668-39.821C102.995,232.8,95.4,238.128,88.439,246.338Z" transform="translate(-62.028 -238.4)" fill="#d3766a"/><g transform="translate(44.438 50.035)"><path d="M196.322,352.548a4.212,4.212,0,0,1-1.75,4.475,6.239,6.239,0,0,1,1.971,3.763c.23,2.562-3.692,4.044-3.692,4.044a7.7,7.7,0,0,1,1.445,4.3c-.028,2.472-3.767,4.532-3.767,4.532a6.748,6.748,0,0,1-1.107,4.579c-2.566,3.5-9.172,2.993-13.375,2.721s-16.983-5.512-19.3-6.183L159.4,348.32s19.188-4.129,24.084-3.106C187.611,346.078,195.436,349.381,196.322,352.548Z" transform="translate(-156.75 -345.051)" fill="#d3766a"/><g transform="translate(21.731 8.354)"><path d="M222.215,366.345c-4.162-1.971-8.684-2.6-13.155-3.486a.079.079,0,0,0-.028.155c4.462.83,8.7,2.533,13.117,3.536a.109.109,0,0,0,.066-.2Z" transform="translate(-206.203 -362.859)" fill="#263238"/><path d="M218.715,384.54a11.99,11.99,0,0,0-3.068-.666c-1.1-.16-2.2-.3-3.312-.427-2.214-.248-4.433-.451-6.657-.586-.1,0-.131.143-.028.155,2.2.253,4.405.539,6.6.887q1.647.26,3.289.544a14.3,14.3,0,0,0,3.115.394.161.161,0,0,0,.061-.3Z" transform="translate(-204.405 -373.477)" fill="#263238"/><path d="M215.03,404.364a8.458,8.458,0,0,0-2.792-.455c-1.009-.1-2.022-.191-3.031-.3-2.017-.206-4.039-.418-6.047-.694-.1-.014-.131.141-.028.155,2.041.3,4.077.615,6.122.891q1.506.2,3.01.39a7.894,7.894,0,0,0,2.759.113.056.056,0,0,0,.006-.1Z" transform="translate(-203.07 -384.124)" fill="#263238"/></g></g></g><g transform="translate(6.723 0)"><path d="M102.612,273.208l-26.253-3.823s17.124-23.626,24.119-29.153c7.873-6.221,9.331-.835,8.3,8.649S102.612,273.208,102.612,273.208Z" transform="translate(-76.359 -237.564)" fill="#ffc727"/><path d="M101.376,254.68a8.293,8.293,0,0,0-2.041,1.242A9.263,9.263,0,0,0,103.67,254,8.374,8.374,0,0,0,101.376,254.68Zm6.92,11.468a8.458,8.458,0,0,0-1.248-2.041,9.164,9.164,0,0,0,1.928,4.33,8.557,8.557,0,0,0-.679-2.287Zm-25.991,7.9h0c-.131.173-.258.347-.385.511l.033.014a8.506,8.506,0,0,0,2.322.568A8.149,8.149,0,0,0,82.3,274.051Zm11.94-3.8a8.286,8.286,0,0,0-.558,2.322,8.463,8.463,0,0,0,1.135-2.1,8.331,8.331,0,0,0,.563-2.322,8.329,8.329,0,0,0-1.14,2.1Z" transform="translate(-79.311 -246.289)" fill="#fff"/><g transform="translate(4.303 13.627)"><g transform="translate(0 13.877)"><path d="M85.6,296.19c.929-.01,9.13,1.056,10.908,1.323s9.055,1.3,10.865,1.736a.066.066,0,1,1-.014.131c-1.853-.085-9.2-1.1-11.011-1.342s-9.909-1.468-10.776-1.726C85.5,296.29,85.536,296.19,85.6,296.19Z" transform="translate(-85.531 -296.19)" fill="#263238"/></g><path d="M127.764,288.12c.8.056,2.041.2,2.041.2.788-3.622,1.956-7.192,2.9-10.776.962-3.65,2.027-7.263,3.031-10.9.014-.056.1-.033.089.023q-.655,3.138-1.347,6.263c.1-.249.211-.5.31-.746.366-.891.755-1.768,1.093-2.669a.063.063,0,0,1,.122.033,22.64,22.64,0,0,1-.919,2.759c-.268.629-.577,1.234-.891,1.834-.272,1.192-.54,2.389-.84,3.575-.934,3.646-1.689,7.76-2.9,11.321,0,0-1.834-.427-2.735-.741a.091.091,0,0,1,.051-.174Z" transform="translate(-107.891 -266.61)" fill="#263238"/></g></g></g><g transform="translate(28.269)"><g transform="translate(0)"><g transform="translate(8.56 37.594)"><g transform="translate(0 0)"><path d="M154.074,233.413c-3.551,1.206-10.317-3.749-13.211-8.008-.2-.3-.038-3.589-.028-7.6,0-2.437-.07-5.146-.3-7.619-.052-.507,15.857,2.28,15.857,2.28a39.5,39.5,0,0,0-.586,9.631,5.847,5.847,0,0,0,.2,1c.01.048.028.1.038.164C156.542,225.156,157.508,232.244,154.074,233.413Z" transform="translate(-140.53 -210.119)" fill="#d3766a"/></g><path d="M154.937,223.5a9.523,9.523,0,0,0,1.577-.235c-.01-.065-.028-.117-.038-.169a5.355,5.355,0,0,1-.2-1,39.756,39.756,0,0,1,.586-9.627s-12.916-2.266-15.434-2.341C142.183,212.93,145.777,224.172,154.937,223.5Z" transform="translate(-141.005 -210.12)" fill="#263238"/></g><g transform="translate(3.951 8.342)"><path d="M130.927,157.757c-1.242,5.634,2.923,21.3,7.117,24.536,6.08,4.692,15.412,4.444,19.235-2.721,3.706-6.948-2.083-27.272-6.709-30.143C143.758,145.2,132.767,149.434,130.927,157.757Z" transform="translate(-130.704 -147.768)" fill="#d3766a"/></g><path d="M183.8,196.817c0-.019-.038-.014-.038,0,.3,3.941-.3,7.91-2.885,11.044a8.5,8.5,0,0,1-2.308,2.022c-.048.023,0,.1.042.07a11.073,11.073,0,0,0,2.219-1.591,9.972,9.972,0,0,0,1.689-2.172,12.224,12.224,0,0,0,1.651-5.83,17.716,17.716,0,0,0-.37-3.548Z" transform="translate(-152.15 -165.458)" fill="#263238"/><g transform="translate(17.046 18.982)"><g transform="translate(1.289 6.989)"><path d="M165.543,187.231c-.019-.038-.07.07-.056.113.291,1.051.446,2.3-.422,2.88-.028.019-.01.07.023.056C166.209,189.835,165.989,188.174,165.543,187.231Z" transform="translate(-163.322 -186.342)" fill="#263238"/><path d="M162.377,185.357c-1.731.287-1.037,3.727.568,3.462C164.521,188.561,163.826,185.118,162.377,185.357Z" transform="translate(-161.366 -185.345)" fill="#263238"/></g><g transform="translate(9.646 5.198)"><path d="M179.18,184.387c0-.042.1.033.1.08.173,1.074.558,2.276,1.59,2.439.033,0,.038.061,0,.061C179.663,187.028,179.175,185.428,179.18,184.387Z" transform="translate(-179.18 -183.038)" fill="#263238"/><path d="M179.918,181.571c1.693-.464,2.5,2.951.934,3.383C179.308,185.381,178.5,181.96,179.918,181.571Z" transform="translate(-179.182 -181.527)" fill="#263238"/></g><path d="M161.884,180.013a14.408,14.408,0,0,1-1.248.727,2.341,2.341,0,0,1-1.412.5.739.739,0,0,1-.605-.676,1.848,1.848,0,0,1,1.06-1.539,2.679,2.679,0,0,1,1.9-.427.793.793,0,0,1,.305,1.416Z" transform="translate(-158.618 -174.758)" fill="#263238"/><path d="M178.935,172.49a13.405,13.405,0,0,1-1.44-.08,2.346,2.346,0,0,1-1.455-.361.74.74,0,0,1-.136-.9,1.846,1.846,0,0,1,1.726-.7,2.715,2.715,0,0,1,1.825.685.8.8,0,0,1-.52,1.356Z" transform="translate(-167.745 -170.448)" fill="#263238"/><g transform="translate(4.639 2.045)"><g transform="translate(0 0)"><path d="M168.934,189.15a9.171,9.171,0,0,1,4.138-1.1c.117-.042.178-.31.178-.43v-.01c-.01-.038-.539-2.233-.539-2.233.328.085,1.975.451,1.867.033a54.953,54.953,0,0,0-3.659-10.547.1.1,0,0,0-.188.065c.774,3.359,2.135,6.563,2.963,9.923a6.268,6.268,0,0,0-1.8-.16c-.108.056.69,2.336.727,2.707a5.337,5.337,0,0,0-3.8,1.29C168.424,189.075,168.345,189.539,168.934,189.15Z" transform="translate(-168.508 -174.807)" fill="#263238"/></g></g><path d="M164.8,211.593c.3.191.629.478,1.018.427a2.8,2.8,0,0,0,1.074-.507c.028-.019.07.01.056.042a1.449,1.449,0,0,1-1.215.86,1.147,1.147,0,0,1-1.027-.755C164.681,211.6,164.756,211.565,164.8,211.593Z" transform="translate(-161.847 -192.244)" fill="#263238"/><g transform="translate(3.79 14.751)"><path d="M170.2,201.89c-1,.191-4.166,1.478-3.383,2.955.343.647,1.434.258,2.224-.68a6.96,6.96,0,0,0,1.159-2.275Z" transform="translate(-166.697 -201.89)" fill="#263238"/><path d="M168.637,206.571c-.723.629-1.529.807-1.816.268a1.017,1.017,0,0,1,.117-1.14C167.543,205.59,168.843,205.487,168.637,206.571Z" transform="translate(-166.698 -203.877)" fill="#ff9abb"/></g></g><path d="M150.633,145.3c-4.778,5.245-13.967,1.168-13.967,1.168a6.364,6.364,0,0,1-5.367,5.4s1.147,9.909-1.4,10.49c-3.88.887-8.171-11.987-7.558-14.858s3.744-4.307,3.744-4.307a6.511,6.511,0,0,1,1.736-4.457c2.168-2.646,11.946-2.069,11.946-2.069a8.762,8.762,0,0,1,1.6-3.706,2.459,2.459,0,0,1,3.523-.493,5.859,5.859,0,0,0-.371,2.6c.206,2.932,2.514,2.389,1.891-.169a4.1,4.1,0,0,0-1.52-2.426c.746-1.942,2.477-2.923,3.814-2.294C151.135,131.321,154.611,140.938,150.633,145.3Z" transform="translate(-122.284 -129.987)" fill="#263238"/><g transform="translate(1.525 28.275)"><path d="M132.664,193.335s-4.508-4.387-6.568-2.688,2.007,8.534,4.9,9.027a2.8,2.8,0,0,0,3.4-2.177Z" transform="translate(-125.535 -190.256)" fill="#d3766a"/><path d="M129.285,195.193a.038.038,0,0,0,0,.075c2.041.4,3.368,1.971,4.415,3.655a1.543,1.543,0,0,0-2.346.019c-.042.042.019.113.07.089a1.72,1.72,0,0,1,1.971.235,8.372,8.372,0,0,1,1.177,1.332c.122.15.408,0,.31-.178-.01-.014-.014-.028-.023-.042C134.441,197.956,131.922,194.939,129.285,195.193Z" transform="translate(-127.51 -192.869)" fill="#263238"/></g></g><path d="M136.929,244.323a21.84,21.84,0,0,0,8.224,7.591,11.328,11.328,0,0,0,5.3,1.434,4.79,4.79,0,0,0,2.745-.76,5.578,5.578,0,0,0,1.675-2.285,10.974,10.974,0,0,0,.807-3.157,26.258,26.258,0,0,0,.16-3.7c0-.048.065-.042.07,0,.033,1.168.164,2.332.113,3.5a11.826,11.826,0,0,1-.484,3.047,6.863,6.863,0,0,1-1.412,2.557,4.3,4.3,0,0,1-2.622,1.332,10.182,10.182,0,0,1-5.719-1,18.8,18.8,0,0,1-4.846-3.242,20.6,20.6,0,0,1-4.11-5.269C136.788,244.3,136.887,244.257,136.929,244.323Z" transform="translate(-130.002 -190.2)" fill="#263238"/></g><g transform="translate(59.134 15.565)"><path d="M200.451,305.71c3.486,6.779,12.583,1.839,14.558-3.1,4.64-11.6,6.066-36,4.8-47.22-.408-3.613-23.49-.258-24.358,3.533C194.545,262.882,193.381,291.96,200.451,305.71Z" transform="translate(-191.629 -211.301)" fill="#d3766a"/><g transform="translate(0 0)"><path d="M216.372,208.97s.948-7.311,1.487-13.746c.3-3.589-.474-10.908-1.459-13.647-1.473-4.1-10.251-20.277-14.22-18.236-3.592,1.847,5.714,14.8,5.714,14.8s-8.238-13.891-12.155-10.87,8.543,16.251,8.543,16.251-8.782-14.084-12.328-10.331c-2.679,2.838,7.932,15.454,7.932,15.454s-7.633-12.052-10.513-9.252c-3.185,3.1,5.878,15.355,5.878,15.355-6.127,8.351-7.352,13.571-2.482,18.573C193.553,214.135,216.372,208.97,216.372,208.97Z" transform="translate(-188.404 -163.163)" fill="#d3766a"/><g transform="translate(6.198 4.754)"><path d="M223.406,188.142c-.908-1.665-1.816-3.359-2.871-4.94s-2.163-3.125-3.359-4.6a32.231,32.231,0,0,0-5.2-5.3c3.223,3.021,7.079,8.623,8.135,10.2s2.181,3.1,3.237,4.677C223.376,188.227,223.427,188.184,223.406,188.142Z" transform="translate(-206.958 -173.297)" fill="#263238"/><path d="M215.137,199.683c-1.252-2.078-2.421-4.189-3.763-6.212s-2.782-3.809-4.253-5.724c-.113-.143-.155-.038-.048.113,1.393,1.975,2.533,3.908,3.9,5.9s2.824,3.927,4.114,5.958C215.108,199.751,215.155,199.718,215.137,199.683Z" transform="translate(-204.325 -180.932)" fill="#263238"/><path d="M207.861,211.711a55.907,55.907,0,0,0-6.465-9.275c-.117-.141-.155,0-.042.16,2.21,2.97,3.955,5.5,6.4,9.181C207.786,211.832,207.9,211.781,207.861,211.711Z" transform="translate(-201.286 -188.735)" fill="#263238"/></g><path d="M194.978,175.844a6.805,6.805,0,0,1-.4-2.092,2.789,2.789,0,0,1,.7-1.773c.028-.033.08.019.048.048a2.247,2.247,0,0,0-.46,2.046,10.624,10.624,0,0,0,.511,1.9,14.237,14.237,0,0,0,.821,1.858,18.629,18.629,0,0,0,.985,1.768l0,0h0a.039.039,0,0,1,0,.033h0c-.014.014-.033.019-.042,0a7.083,7.083,0,0,0-2.466-1.87,3,3,0,0,0-1.426-.382,1.866,1.866,0,0,0-1.764,1.75,3.742,3.742,0,0,0,.258,1.338,27.063,27.063,0,0,0,1.135,2.909c.239.526.5,1.042.769,1.548s.591.994.831,1.515c.014.033-.1.061-.127.042-.319-.268-2.562-2.439-3.908-2.552a1.67,1.67,0,0,0-1.717.9,3.364,3.364,0,0,0-.2,2.135,24.531,24.531,0,0,0,1.112,3.659c.014.038-.048.056-.061.019-.352-.863-1.117-2.73-1.356-3.632a3.314,3.314,0,0,1,.117-2.3,2.057,2.057,0,0,1,1.675-1.2,3.4,3.4,0,0,1,2.046.765,23.232,23.232,0,0,1,2.055,1.792c-.225-.319-1.182-1.994-1.44-2.505a24.92,24.92,0,0,1-1.323-3.167,2.582,2.582,0,0,1,.352-2.768,2.33,2.33,0,0,1,2.642-.4,6.105,6.105,0,0,1,1.886,1.252c-.136-.2-.268-.394-.385-.605A10.69,10.69,0,0,1,194.978,175.844Z" transform="translate(-188.074 -167.837)" fill="#263238"/></g><path d="M199.57,343.29c.427,1.248.83,2.5,1.295,3.727.441,1.234.908,2.458,1.422,3.655a17.439,17.439,0,0,0,1.8,3.378,3.079,3.079,0,0,0,.281.352l.3.3a6.521,6.521,0,0,0,.751.526,5.948,5.948,0,0,0,1.689.685,6.356,6.356,0,0,0,1.816.141,7.53,7.53,0,0,0,1.806-.389,12.076,12.076,0,0,0,3.322-1.83c.526-.371,1-.816,1.492-1.234a7.969,7.969,0,0,0,1.234-1.45,12.716,12.716,0,0,0,1.661-3.523,11.484,11.484,0,0,1-1.272,3.763,8.285,8.285,0,0,1-1.195,1.647,19.287,19.287,0,0,1-1.468,1.37,11.889,11.889,0,0,1-3.481,2.092,7.8,7.8,0,0,1-2.031.464,7.04,7.04,0,0,1-2.1-.141,6.9,6.9,0,0,1-1.947-.812,6.824,6.824,0,0,1-.86-.615l-.394-.4a3.372,3.372,0,0,1-.324-.422,16.243,16.243,0,0,1-1.764-3.636,47.733,47.733,0,0,1-2.031-7.648Z" transform="translate(-194.177 -258.784)" fill="#263238"/></g></g></g><g transform="translate(51.68 290.308)"><path d="M51.68,441.044l29.855-.117,29.855-.038,59.713-.079,59.711.08,29.855.038,29.855.117-29.855.113-29.855.042-59.711.08-59.711-.08-29.855-.042Z" transform="translate(-51.68 -440.81)" fill="#263238"/></g><g transform="translate(58.722 133.114)"><g transform="translate(0 0)"><path d="M50.69,94.118a16.642,16.642,0,0,0,26.568,13.366l8.158,2.083-3.4-7.6a16.649,16.649,0,1,0-31.33-7.851Z" transform="translate(-50.69 -77.365)" fill="#fff"/><path d="M50.69,94a16.721,16.721,0,0,0,2.51,8.717,18.517,18.517,0,0,0,1.327,1.872,18.236,18.236,0,0,0,1.6,1.647,10.154,10.154,0,0,0,.868.751l.92.68c.31.225.652.4.976.605l.488.291c.169.1.343.169.516.253l1.037.488,1.079.385a8.156,8.156,0,0,0,1.1.319c.371.085.736.206,1.112.258a16.805,16.805,0,0,0,2.271.248,14.227,14.227,0,0,0,2.28-.033,16.684,16.684,0,0,0,4.429-1.037,16.868,16.868,0,0,0,3.969-2.21l.061-.048.08.019,8.168,2.046-.239.281L81.82,101.95l-.048-.1.052-.1a16.476,16.476,0,0,0,.549-14.4,17.134,17.134,0,0,0-4.424-5.944A16.416,16.416,0,0,0,71.358,78,16.521,16.521,0,0,0,50.69,94Zm0,0a16.755,16.755,0,0,1,6.395-13.146,16.769,16.769,0,0,1,21.086.281A16.808,16.808,0,0,1,84.2,94.631a16.522,16.522,0,0,1-1.985,7.333l.01-.2,3.378,7.6.173.389-.413-.108-8.148-2.12.141-.028a16.692,16.692,0,0,1-8.576,3.2,14.583,14.583,0,0,1-2.308,0,16.312,16.312,0,0,1-2.289-.277c-.382-.056-.746-.183-1.121-.272a8.3,8.3,0,0,1-1.1-.338l-1.079-.4c-.347-.16-.69-.338-1.037-.5-.169-.089-.347-.164-.516-.258l-.493-.3c-.324-.206-.666-.389-.971-.621l-.92-.7c-.314-.22-.577-.507-.868-.755a18.407,18.407,0,0,1-1.6-1.661,19.374,19.374,0,0,1-1.323-1.881A16.814,16.814,0,0,1,50.69,94Z" transform="translate(-50.69 -77.25)" fill="#263238"/><g transform="translate(14.426 6.719)"><path d="M81.44,91.57h3.894l-.263,14.356H81.7Z" transform="translate(-81.44 -91.57)" fill="#cf1322"/><rect width="3.368" height="3.368" transform="translate(0.263 16.153)" fill="#cf1322"/></g></g></g></g></g></svg>